<svg width="14" height="12" viewBox="0 0 14 12" fill="none" xmlns="http://www.w3.org/2000/svg">
<g clip-path="url(#clip0_272_40)">
<path d="M13.1817 0.295605L1.00069 0.295604C0.428868 0.295604 0.182432 0.591208 0.182432 0.939246C0.182432 1.08702 0.226752 1.24911 0.32044 1.40167L6.43802 11.6567C6.57113 11.8903 6.82746 12 7.08874 12C7.35492 12 7.60635 11.8903 7.74436 11.6567L13.862 1.40167C13.9507 1.24911 14 1.08702 14 0.939247C14 0.591209 13.7486 0.295605 13.1817 0.295605ZM12.738 1.12515C12.8563 1.12515 12.9204 1.17759 12.9204 1.26341C12.9204 1.2968 12.9106 1.33493 12.8859 1.37785L7.22675 10.8701C7.18733 10.9273 7.14296 10.9559 7.08874 10.9559C7.03453 10.9559 6.99016 10.9273 6.95073 10.8701L1.2965 1.37784C1.26692 1.33493 1.25708 1.2968 1.25708 1.26341C1.25708 1.17758 1.32608 1.12515 1.43946 1.12515L12.738 1.12515Z" fill="black"/>
</g>
<defs>
<clipPath id="clip0_272_40">
<rect width="14" height="12" fill="white" transform="translate(14 12) rotate(-180)"/>
</clipPath>
</defs>
</svg>
