<svg width="14" height="12" viewBox="0 0 14 12" fill="none" xmlns="http://www.w3.org/2000/svg">
<g clip-path="url(#clip0_274_140)">
<g clip-path="url(#clip1_274_140)">
<path d="M13.1817 0.295605L1.00069 0.295605C0.428867 0.295605 0.182431 0.591209 0.182431 0.939247C0.182431 1.08702 0.226751 1.24911 0.320439 1.40167L6.43802 11.6567C6.57113 11.8903 6.82746 12 7.08874 12C7.35492 12 7.60635 11.8903 7.74436 11.6567L13.862 1.40167C13.9507 1.24911 14 1.08702 14 0.939247C14 0.591209 13.7486 0.295605 13.1817 0.295605Z" fill="black" fill-opacity="0.85"/>
</g>
</g>
<defs>
<clipPath id="clip0_274_140">
<rect width="14" height="12" fill="white" transform="matrix(-1 0 0 -1 14 12)"/>
</clipPath>
<clipPath id="clip1_274_140">
<rect width="14" height="12" fill="white" transform="matrix(-1 0 0 -1 14 12)"/>
</clipPath>
</defs>
</svg>
