<svg width="164" height="164" viewBox="0 0 164 164" fill="none" xmlns="http://www.w3.org/2000/svg">
<rect width="164" height="164" fill="white"/>
<rect x="27" y="16" width="97" height="14" rx="7" fill="#9BD3FF"/>
<rect x="27" y="33" width="97" height="14" rx="7" fill="#9BD3FF"/>
<rect x="27" y="50" width="97" height="14" rx="7" fill="#9BD3FF"/>
<rect x="27" y="67" width="46" height="14" rx="7" fill="#9BD3FF"/>
<rect x="76" y="117" width="46" height="14" rx="7" fill="#9BD3FF"/>
<rect x="27" y="134" width="95" height="14" rx="7" fill="#9BD3FF"/>
<path d="M29.7138 111V105.545H34.1634V111H33.1229V106.462H30.7472V111H29.7138Z" fill="black"/>
<path d="M32.2138 97.8537V88.7273H33.723V97.8537H32.2138ZM32.2138 96.1065C31.7947 96.1065 31.4124 96.0391 31.0668 95.9041C30.7211 95.7668 30.4228 95.5739 30.1719 95.3253C29.9209 95.0743 29.7268 94.7772 29.5895 94.4339C29.4522 94.0883 29.3835 93.7083 29.3835 93.294C29.3835 92.875 29.4522 92.4938 29.5895 92.1506C29.7268 91.8049 29.9209 91.5078 30.1719 91.2592C30.4228 91.0083 30.7211 90.8153 31.0668 90.6804C31.4124 90.5431 31.7947 90.4744 32.2138 90.4744H32.4943V96.1065H32.2138ZM32.2138 94.9276H32.3807V91.6534H32.2138C32.0102 91.6534 31.8291 91.696 31.6705 91.7812C31.5118 91.8665 31.3781 91.9837 31.2692 92.1328C31.1603 92.2796 31.0774 92.4524 31.0206 92.6513C30.9661 92.8501 30.9389 93.0644 30.9389 93.294C30.9389 93.5971 30.9886 93.8729 31.0881 94.1214C31.1875 94.3677 31.3331 94.5642 31.5249 94.7109C31.7166 94.8554 31.9463 94.9276 32.2138 94.9276ZM33.723 96.1065H33.4425V90.4744H33.723C34.142 90.4744 34.5244 90.5431 34.87 90.6804C35.2157 90.8153 35.514 91.0083 35.7649 91.2592C36.0159 91.5078 36.21 91.8049 36.3473 92.1506C36.4846 92.4938 36.5533 92.875 36.5533 93.294C36.5533 93.7083 36.4846 94.0883 36.3473 94.4339C36.21 94.7772 36.0159 95.0743 35.7649 95.3253C35.514 95.5739 35.2157 95.7668 34.87 95.9041C34.5244 96.0391 34.142 96.1065 33.723 96.1065ZM33.723 94.9276C33.9266 94.9276 34.1077 94.8861 34.2663 94.8033C34.425 94.718 34.5587 94.6009 34.6676 94.4517C34.7765 94.3026 34.8594 94.1297 34.9162 93.9332C34.973 93.7344 35.0014 93.5213 35.0014 93.294C35.0014 92.9886 34.9505 92.7128 34.8487 92.4666C34.7493 92.218 34.6049 92.0204 34.4155 91.8736C34.2261 91.7268 33.9953 91.6534 33.723 91.6534H33.5561V94.9276H33.723ZM40.0289 96.1065C39.4679 96.1065 38.9849 95.9929 38.5801 95.7656C38.1776 95.536 37.8675 95.2116 37.6497 94.7926C37.4319 94.3712 37.323 93.8729 37.323 93.2976C37.323 92.7365 37.4319 92.2441 37.6497 91.8203C37.8675 91.3965 38.1741 91.0663 38.5694 90.8295C38.9672 90.5928 39.4335 90.4744 39.9686 90.4744C40.3284 90.4744 40.6634 90.5324 40.9735 90.6484C41.286 90.7621 41.5583 90.9337 41.7903 91.1634C42.0247 91.393 42.207 91.6818 42.3372 92.0298C42.4674 92.3755 42.5325 92.7803 42.5325 93.2443V93.6598H37.9267V92.7223H41.1085C41.1085 92.5045 41.0611 92.3116 40.9664 92.1435C40.8717 91.9754 40.7404 91.844 40.5723 91.7493C40.4065 91.6522 40.2136 91.6037 39.9934 91.6037C39.7638 91.6037 39.5602 91.657 39.3826 91.7635C39.2074 91.8677 39.0701 92.0085 38.9707 92.1861C38.8713 92.3613 38.8204 92.5566 38.818 92.772V93.6634C38.818 93.9332 38.8677 94.1664 38.9672 94.3629C39.069 94.5594 39.2122 94.7109 39.3968 94.8175C39.5815 94.924 39.8005 94.9773 40.0538 94.9773C40.2219 94.9773 40.3758 94.9536 40.5154 94.9062C40.6551 94.8589 40.7747 94.7879 40.8741 94.6932C40.9735 94.5985 41.0493 94.4825 41.1014 94.3452L42.5005 94.4375C42.4295 94.7737 42.2839 95.0672 42.0637 95.3182C41.8459 95.5668 41.5642 95.7609 41.2186 95.9006C40.8753 96.0379 40.4788 96.1065 40.0289 96.1065ZM43.5197 96V90.5455H45.8457C46.5181 90.5455 47.0495 90.6733 47.4402 90.929C47.8308 91.1847 48.0261 91.5481 48.0261 92.0192C48.0261 92.3151 47.916 92.5613 47.6958 92.7578C47.4757 92.9543 47.1703 93.0869 46.7797 93.1555C47.1064 93.1792 47.3845 93.2538 47.6142 93.3793C47.8462 93.5024 48.0225 93.6622 48.1433 93.8587C48.2664 94.0552 48.3279 94.273 48.3279 94.5121C48.3279 94.8222 48.2451 95.0885 48.0794 95.3111C47.916 95.5336 47.6757 95.7041 47.3585 95.8224C47.0436 95.9408 46.6589 96 46.2044 96H43.5197ZM44.9295 94.8672H46.2044C46.4151 94.8672 46.5796 94.8175 46.698 94.718C46.8187 94.6162 46.8791 94.4777 46.8791 94.3026C46.8791 94.1084 46.8187 93.9557 46.698 93.8445C46.5796 93.7332 46.4151 93.6776 46.2044 93.6776H44.9295V94.8672ZM44.9295 92.7898H45.8777C46.0292 92.7898 46.1582 92.7685 46.2647 92.7259C46.3736 92.6809 46.4565 92.617 46.5133 92.5341C46.5725 92.4512 46.6021 92.353 46.6021 92.2393C46.6021 92.0713 46.5346 91.9399 46.3997 91.8452C46.2647 91.7505 46.0801 91.7031 45.8457 91.7031H44.9295V92.7898ZM49.2814 98.0455V90.5455H50.7729V91.4616H50.8404C50.9067 91.3149 51.0025 91.1657 51.128 91.0142C51.2559 90.8603 51.4216 90.7325 51.6252 90.6307C51.8311 90.5265 52.0868 90.4744 52.3922 90.4744C52.79 90.4744 53.1569 90.5786 53.4931 90.7869C53.8292 90.9929 54.098 91.3042 54.2992 91.7209C54.5004 92.1352 54.601 92.6548 54.601 93.2798C54.601 93.8883 54.5028 94.402 54.3063 94.821C54.1122 95.2377 53.847 95.5537 53.5108 95.7692C53.177 95.9822 52.803 96.0888 52.3887 96.0888C52.0951 96.0888 51.8453 96.0402 51.6394 95.9432C51.4358 95.8461 51.2689 95.7242 51.1387 95.5774C51.0085 95.4283 50.909 95.2779 50.8404 95.1264H50.7942V98.0455H49.2814ZM50.7623 93.2727C50.7623 93.5971 50.8072 93.88 50.8972 94.1214C50.9872 94.3629 51.1174 94.5511 51.2878 94.6861C51.4583 94.8187 51.6654 94.8849 51.9093 94.8849C52.1555 94.8849 52.3638 94.8175 52.5343 94.6825C52.7047 94.5452 52.8337 94.3558 52.9213 94.1143C53.0113 93.8705 53.0563 93.59 53.0563 93.2727C53.0563 92.9579 53.0125 92.6809 52.9249 92.4418C52.8373 92.2027 52.7083 92.0156 52.5378 91.8807C52.3674 91.7457 52.1578 91.6783 51.9093 91.6783C51.6631 91.6783 51.4547 91.7434 51.2843 91.8736C51.1162 92.0038 50.9872 92.1884 50.8972 92.4276C50.8072 92.6667 50.7623 92.9484 50.7623 93.2727ZM57.165 96.103C56.8169 96.103 56.5068 96.0426 56.2346 95.9219C55.9623 95.7988 55.7469 95.6177 55.5882 95.3786C55.432 95.1371 55.3539 94.8364 55.3539 94.4766C55.3539 94.1735 55.4095 93.919 55.5208 93.7131C55.632 93.5071 55.7836 93.3414 55.9753 93.2159C56.1671 93.0904 56.3849 92.9957 56.6287 92.9318C56.8749 92.8679 57.133 92.8229 57.4029 92.7969C57.7201 92.7637 57.9758 92.733 58.1699 92.7045C58.3641 92.6738 58.5049 92.6288 58.5925 92.5696C58.6801 92.5104 58.7239 92.4228 58.7239 92.3068V92.2855C58.7239 92.0606 58.6529 91.8866 58.5108 91.7635C58.3712 91.6404 58.1723 91.5788 57.9142 91.5788C57.642 91.5788 57.4254 91.6392 57.2644 91.7599C57.1034 91.8783 56.9969 92.0275 56.9448 92.2074L55.5456 92.0938C55.6167 91.7623 55.7563 91.4759 55.9647 91.2344C56.173 90.9905 56.4417 90.8035 56.7708 90.6733C57.1022 90.5407 57.4857 90.4744 57.9213 90.4744C58.2244 90.4744 58.5144 90.5099 58.7914 90.581C59.0707 90.652 59.3181 90.7621 59.5336 90.9112C59.7514 91.0604 59.923 91.2521 60.0485 91.4865C60.1739 91.7185 60.2367 91.9967 60.2367 92.321V96H58.802V95.2436H58.7594C58.6718 95.4141 58.5546 95.5644 58.4078 95.6946C58.2611 95.8224 58.0847 95.9231 57.8787 95.9964C57.6728 96.0675 57.4348 96.103 57.165 96.103ZM57.5982 95.0589C57.8207 95.0589 58.0172 95.0152 58.1877 94.9276C58.3581 94.8376 58.4919 94.7169 58.589 94.5653C58.686 94.4138 58.7346 94.2422 58.7346 94.0504V93.4716C58.6872 93.5024 58.6221 93.5308 58.5392 93.5568C58.4587 93.5805 58.3676 93.603 58.2658 93.6243C58.164 93.6432 58.0622 93.661 57.9604 93.6776C57.8586 93.6918 57.7663 93.7048 57.6834 93.7166C57.5059 93.7427 57.3508 93.7841 57.2182 93.8409C57.0856 93.8977 56.9827 93.9747 56.9093 94.0717C56.8359 94.1664 56.7992 94.2848 56.7992 94.4268C56.7992 94.6328 56.8738 94.7902 57.0229 94.8991C57.1744 95.0057 57.3662 95.0589 57.5982 95.0589ZM61.0907 96L61.0836 94.7997H61.2647C61.3926 94.7997 61.5027 94.7689 61.595 94.7074C61.6897 94.6435 61.7678 94.5405 61.8294 94.3984C61.8909 94.2564 61.9395 94.0682 61.975 93.8338C62.0105 93.5971 62.0342 93.3059 62.046 92.9602L62.1348 90.5455H66.2825V96H64.8407V91.7351H63.4949L63.4096 93.4006C63.3883 93.8575 63.3327 94.2505 63.2427 94.5795C63.1551 94.9086 63.0332 95.1785 62.877 95.3892C62.7207 95.5975 62.5325 95.7514 62.3123 95.8509C62.0922 95.9503 61.8365 96 61.5453 96H61.0907ZM68.4034 92.2216H70.0334C70.7554 92.2216 71.3189 92.3944 71.7237 92.7401C72.1286 93.0833 72.331 93.5426 72.331 94.1179C72.331 94.492 72.2398 94.821 72.0575 95.1051C71.8752 95.3868 71.6125 95.607 71.2692 95.7656C70.9259 95.9219 70.514 96 70.0334 96H67.4553V90.5455H68.9006V94.8104H70.0334C70.2867 94.8104 70.495 94.7464 70.6584 94.6186C70.8217 94.4908 70.9046 94.3274 70.907 94.1286C70.9046 93.9179 70.8217 93.7462 70.6584 93.6136C70.495 93.4787 70.2867 93.4112 70.0334 93.4112H68.4034V92.2216Z" fill="#358FD7"/>
<path d="M32.7884 3.18182V9H32.0838V3.92045H32.0497L30.6293 4.86364V4.14773L32.0838 3.18182H32.7884Z" fill="black"/>
<path d="M32.5011 26.0795C32.1109 26.0795 31.7662 26.0104 31.467 25.8722C31.1696 25.732 30.9376 25.5398 30.771 25.2955C30.6043 25.0492 30.5219 24.7689 30.5238 24.4545C30.5219 24.2083 30.5702 23.9811 30.6687 23.7727C30.7672 23.5625 30.9016 23.3873 31.0721 23.2472C31.2444 23.1051 31.4367 23.0152 31.6488 22.9773V22.9432C31.3704 22.8712 31.1488 22.715 30.984 22.4744C30.8192 22.232 30.7378 21.9564 30.7397 21.6477C30.7378 21.3523 30.8126 21.0881 30.9641 20.8551C31.1156 20.6222 31.324 20.4384 31.5891 20.304C31.8562 20.1695 32.1602 20.1023 32.5011 20.1023C32.8382 20.1023 33.1393 20.1695 33.4045 20.304C33.6696 20.4384 33.878 20.6222 34.0295 20.8551C34.1829 21.0881 34.2605 21.3523 34.2624 21.6477C34.2605 21.9564 34.1763 22.232 34.0096 22.4744C33.8448 22.715 33.6261 22.8712 33.3533 22.9432V22.9773C33.5636 23.0152 33.753 23.1051 33.9215 23.2472C34.0901 23.3873 34.2246 23.5625 34.3249 23.7727C34.4253 23.9811 34.4764 24.2083 34.4783 24.4545C34.4764 24.7689 34.3912 25.0492 34.2227 25.2955C34.056 25.5398 33.824 25.732 33.5266 25.8722C33.2312 26.0104 32.8893 26.0795 32.5011 26.0795ZM32.5011 25.4545C32.7643 25.4545 32.9916 25.4119 33.1829 25.3267C33.3742 25.2415 33.5219 25.1212 33.6261 24.9659C33.7302 24.8106 33.7833 24.6288 33.7852 24.4205C33.7833 24.2008 33.7264 24.0066 33.6147 23.8381C33.503 23.6695 33.3505 23.5369 33.1573 23.4403C32.966 23.3437 32.7473 23.2955 32.5011 23.2955C32.253 23.2955 32.0314 23.3437 31.8363 23.4403C31.6431 23.5369 31.4906 23.6695 31.3789 23.8381C31.2691 24.0066 31.2151 24.2008 31.217 24.4205C31.2151 24.6288 31.2653 24.8106 31.3675 24.9659C31.4717 25.1212 31.6204 25.2415 31.8136 25.3267C32.0067 25.4119 32.2359 25.4545 32.5011 25.4545ZM32.5011 22.6932C32.7094 22.6932 32.8941 22.6515 33.055 22.5682C33.2179 22.4848 33.3458 22.3684 33.4386 22.2188C33.5314 22.0691 33.5787 21.8939 33.5806 21.6932C33.5787 21.4962 33.5323 21.3248 33.4414 21.179C33.3505 21.0312 33.2246 20.9176 33.0636 20.8381C32.9026 20.7566 32.7151 20.7159 32.5011 20.7159C32.2833 20.7159 32.0929 20.7566 31.93 20.8381C31.7672 20.9176 31.6412 21.0312 31.5522 21.179C31.4632 21.3248 31.4196 21.4962 31.4215 21.6932C31.4196 21.8939 31.4641 22.0691 31.555 22.2188C31.6478 22.3684 31.7757 22.4848 31.9386 22.5682C32.1014 22.6515 32.2889 22.6932 32.5011 22.6932Z" fill="black"/>
<path d="M32.4869 144.08C32.1535 144.08 31.8533 144.013 31.5863 143.881C31.3192 143.748 31.1052 143.566 30.9442 143.335C30.7833 143.104 30.6952 142.841 30.68 142.545H31.3619C31.3884 142.809 31.5077 143.027 31.7198 143.199C31.9338 143.369 32.1895 143.455 32.4869 143.455C32.7255 143.455 32.9376 143.399 33.1232 143.287C33.3107 143.175 33.4575 143.022 33.5636 142.827C33.6715 142.63 33.7255 142.407 33.7255 142.159C33.7255 141.905 33.6696 141.679 33.5579 141.48C33.448 141.279 33.2965 141.121 33.1033 141.006C32.9102 140.89 32.6895 140.831 32.4414 140.83C32.2634 140.828 32.0806 140.855 31.8931 140.912C31.7056 140.967 31.5513 141.038 31.43 141.125L30.771 141.045L31.1232 138.182H34.146V138.807H31.7141L31.5096 140.523H31.5437C31.663 140.428 31.8126 140.349 31.9925 140.287C32.1725 140.224 32.36 140.193 32.555 140.193C32.9111 140.193 33.2283 140.278 33.5067 140.449C33.7871 140.617 34.0067 140.848 34.1658 141.142C34.3268 141.436 34.4073 141.771 34.4073 142.148C34.4073 142.519 34.324 142.85 34.1573 143.142C33.9925 143.432 33.7653 143.661 33.4755 143.83C33.1857 143.996 32.8562 144.08 32.4869 144.08Z" fill="black"/>
<path d="M30.8548 37.1818V43H30.1502V37.9205H30.1161L28.6957 38.8636V38.1477L30.1502 37.1818H30.8548ZM34.3462 43.0795C34.0129 43.0795 33.7127 43.0133 33.4457 42.8807C33.1786 42.7481 32.9646 42.5663 32.8036 42.3352C32.6426 42.1042 32.5546 41.8409 32.5394 41.5455H33.2212C33.2478 41.8087 33.3671 42.0265 33.5792 42.1989C33.7932 42.3693 34.0489 42.4545 34.3462 42.4545C34.5849 42.4545 34.797 42.3987 34.9826 42.2869C35.1701 42.1752 35.3169 42.0218 35.4229 41.8267C35.5309 41.6297 35.5849 41.4072 35.5849 41.1591C35.5849 40.9053 35.529 40.679 35.4173 40.4801C35.3074 40.2794 35.1559 40.1212 34.9627 40.0057C34.7695 39.8902 34.5489 39.8314 34.3008 39.8295C34.1228 39.8277 33.94 39.8551 33.7525 39.9119C33.565 39.9669 33.4106 40.0379 33.2894 40.125L32.6303 40.0455L32.9826 37.1818H36.0053V37.8068H33.5735L33.369 39.5227H33.4031C33.5224 39.428 33.672 39.3494 33.8519 39.2869C34.0318 39.2244 34.2193 39.1932 34.4144 39.1932C34.7705 39.1932 35.0877 39.2784 35.3661 39.4489C35.6464 39.6174 35.8661 39.8485 36.0252 40.142C36.1862 40.4356 36.2667 40.7708 36.2667 41.1477C36.2667 41.5189 36.1834 41.8504 36.0167 42.142C35.8519 42.4318 35.6246 42.661 35.3349 42.8295C35.0451 42.9962 34.7156 43.0795 34.3462 43.0795Z" fill="black"/>
<path d="M30.8665 155.182V161H30.1619V155.92H30.1278L28.7074 156.864V156.148L30.1619 155.182H30.8665ZM32.5398 161V160.489L34.4602 158.386C34.6856 158.14 34.8712 157.926 35.017 157.744C35.1629 157.561 35.2708 157.388 35.3409 157.227C35.4129 157.064 35.4489 156.894 35.4489 156.716C35.4489 156.511 35.3996 156.334 35.3011 156.185C35.2045 156.035 35.072 155.92 34.9034 155.838C34.7348 155.757 34.5455 155.716 34.3352 155.716C34.1117 155.716 33.9167 155.762 33.75 155.855C33.5852 155.946 33.4574 156.074 33.3665 156.239C33.2775 156.403 33.233 156.597 33.233 156.818H32.5625C32.5625 156.477 32.6411 156.178 32.7983 155.92C32.9555 155.663 33.1695 155.462 33.4403 155.318C33.7131 155.174 34.0189 155.102 34.358 155.102C34.6989 155.102 35.0009 155.174 35.2642 155.318C35.5275 155.462 35.7339 155.656 35.8835 155.901C36.0331 156.145 36.108 156.417 36.108 156.716C36.108 156.93 36.0691 157.139 35.9915 157.344C35.9157 157.546 35.7831 157.773 35.5938 158.023C35.4062 158.271 35.1458 158.574 34.8125 158.932L33.5057 160.33V160.375H36.2102V161H32.5398Z" fill="black"/>
<path d="M27.7585 60V59.4886L29.679 57.3864C29.9044 57.1402 30.09 56.9261 30.2358 56.7443C30.3816 56.5606 30.4896 56.3883 30.5597 56.2273C30.6316 56.0644 30.6676 55.8939 30.6676 55.7159C30.6676 55.5114 30.6184 55.3343 30.5199 55.1847C30.4233 55.035 30.2907 54.9195 30.1222 54.8381C29.9536 54.7566 29.7642 54.7159 29.554 54.7159C29.3305 54.7159 29.1354 54.7623 28.9688 54.8551C28.804 54.946 28.6761 55.0739 28.5852 55.2386C28.4962 55.4034 28.4517 55.5966 28.4517 55.8182H27.7812C27.7812 55.4773 27.8598 55.178 28.017 54.9205C28.1742 54.6629 28.3883 54.4621 28.6591 54.3182C28.9318 54.1742 29.2377 54.1023 29.5767 54.1023C29.9176 54.1023 30.2197 54.1742 30.483 54.3182C30.7462 54.4621 30.9527 54.6562 31.1023 54.9006C31.2519 55.1449 31.3267 55.4167 31.3267 55.7159C31.3267 55.9299 31.2879 56.1392 31.2102 56.3438C31.1345 56.5464 31.0019 56.7727 30.8125 57.0227C30.625 57.2708 30.3646 57.5739 30.0312 57.9318L28.7244 59.3295V59.375H31.429V60H27.7585ZM32.6023 60V59.4886L34.5227 57.3864C34.7481 57.1402 34.9337 56.9261 35.0795 56.7443C35.2254 56.5606 35.3333 56.3883 35.4034 56.2273C35.4754 56.0644 35.5114 55.8939 35.5114 55.7159C35.5114 55.5114 35.4621 55.3343 35.3636 55.1847C35.267 55.035 35.1345 54.9195 34.9659 54.8381C34.7973 54.7566 34.608 54.7159 34.3977 54.7159C34.1742 54.7159 33.9792 54.7623 33.8125 54.8551C33.6477 54.946 33.5199 55.0739 33.429 55.2386C33.34 55.4034 33.2955 55.5966 33.2955 55.8182H32.625C32.625 55.4773 32.7036 55.178 32.8608 54.9205C33.018 54.6629 33.232 54.4621 33.5028 54.3182C33.7756 54.1742 34.0814 54.1023 34.4205 54.1023C34.7614 54.1023 35.0634 54.1742 35.3267 54.3182C35.59 54.4621 35.7964 54.6562 35.946 54.9006C36.0956 55.1449 36.1705 55.4167 36.1705 55.7159C36.1705 55.9299 36.1316 56.1392 36.054 56.3438C35.9782 56.5464 35.8456 56.7727 35.6562 57.0227C35.4688 57.2708 35.2083 57.5739 34.875 57.9318L33.5682 59.3295V59.375H36.2727V60H32.6023Z" fill="black"/>
<path d="M27.6843 77V76.4886L29.6048 74.3864C29.8301 74.1402 30.0157 73.9261 30.1616 73.7443C30.3074 73.5606 30.4154 73.3883 30.4854 73.2273C30.5574 73.0644 30.5934 72.8939 30.5934 72.7159C30.5934 72.5114 30.5442 72.3343 30.4457 72.1847C30.3491 72.035 30.2165 71.9195 30.0479 71.8381C29.8794 71.7566 29.69 71.7159 29.4798 71.7159C29.2563 71.7159 29.0612 71.7623 28.8945 71.8551C28.7298 71.946 28.6019 72.0739 28.511 72.2386C28.422 72.4034 28.3775 72.5966 28.3775 72.8182H27.707C27.707 72.4773 27.7856 72.178 27.9428 71.9205C28.1 71.6629 28.314 71.4621 28.5849 71.3182C28.8576 71.1742 29.1635 71.1023 29.5025 71.1023C29.8434 71.1023 30.1455 71.1742 30.4087 71.3182C30.672 71.4621 30.8784 71.6562 31.0281 71.9006C31.1777 72.1449 31.2525 72.4167 31.2525 72.7159C31.2525 72.9299 31.2137 73.1392 31.136 73.3438C31.0603 73.5464 30.9277 73.7727 30.7383 74.0227C30.5508 74.2708 30.2904 74.5739 29.957 74.9318L28.6502 76.3295V76.375H31.3548V77H27.6843ZM34.3803 71.1023C34.619 71.1042 34.8576 71.1496 35.0962 71.2386C35.3349 71.3277 35.5527 71.4754 35.7496 71.6818C35.9466 71.8864 36.1048 72.1657 36.2241 72.5199C36.3434 72.8741 36.4031 73.3182 36.4031 73.8523C36.4031 74.3693 36.3538 74.8286 36.2553 75.2301C36.1587 75.6297 36.0186 75.9669 35.8349 76.2415C35.6531 76.5161 35.4315 76.7244 35.1701 76.8665C34.9106 77.0085 34.6171 77.0795 34.2894 77.0795C33.9637 77.0795 33.6729 77.0152 33.4173 76.8864C33.1635 76.7557 32.9551 76.5748 32.7923 76.3438C32.6313 76.1108 32.5281 75.8409 32.4826 75.5341H33.1758C33.2383 75.8011 33.3623 76.0218 33.5479 76.196C33.7354 76.3684 33.9826 76.4545 34.2894 76.4545C34.7383 76.4545 35.0924 76.2585 35.3519 75.8665C35.6133 75.4744 35.744 74.9205 35.744 74.2045H35.6985C35.5924 74.3636 35.4665 74.5009 35.3207 74.6165C35.1748 74.732 35.0129 74.821 34.8349 74.8835C34.6568 74.946 34.4674 74.9773 34.2667 74.9773C33.9334 74.9773 33.6275 74.8949 33.3491 74.7301C33.0726 74.5634 32.851 74.3352 32.6843 74.0455C32.5195 73.7538 32.4371 73.4205 32.4371 73.0455C32.4371 72.6894 32.5167 72.3636 32.6758 72.0682C32.8368 71.7708 33.0621 71.5341 33.3519 71.358C33.6436 71.1818 33.9864 71.0966 34.3803 71.1023ZM34.3803 71.7273C34.1417 71.7273 33.9267 71.7869 33.7354 71.9062C33.546 72.0237 33.3955 72.1828 33.2837 72.3835C33.1739 72.5824 33.119 72.803 33.119 73.0455C33.119 73.2879 33.172 73.5085 33.2781 73.7074C33.386 73.9044 33.5328 74.0616 33.7184 74.179C33.9059 74.2945 34.119 74.3523 34.3576 74.3523C34.5375 74.3523 34.7051 74.3172 34.8604 74.2472C35.0157 74.1752 35.1512 74.0777 35.2667 73.9545C35.3841 73.8295 35.476 73.6884 35.5423 73.5312C35.6085 73.3722 35.6417 73.2064 35.6417 73.0341C35.6417 72.8068 35.5868 72.5937 35.4769 72.3949C35.369 72.196 35.2193 72.035 35.0281 71.9119C34.8387 71.7888 34.6228 71.7273 34.3803 71.7273Z" fill="black"/>
<path d="M46.7138 111V105.545H48.9759C49.5914 105.545 50.0791 105.677 50.4389 105.94C50.7988 106.2 50.9787 106.554 50.9787 107.001C50.9787 107.321 50.8769 107.574 50.6733 107.761C50.4697 107.948 50.1998 108.074 49.8636 108.138C50.1075 108.166 50.3312 108.24 50.5348 108.358C50.7384 108.474 50.9018 108.63 51.0249 108.827C51.1503 109.023 51.2131 109.258 51.2131 109.53C51.2131 109.819 51.1385 110.074 50.9893 110.297C50.8402 110.517 50.6236 110.69 50.3395 110.815C50.0578 110.938 49.718 111 49.3203 111H46.7138ZM47.7116 110.112H49.3203C49.5831 110.112 49.7891 110.049 49.9382 109.924C50.0874 109.799 50.1619 109.628 50.1619 109.413C50.1619 109.159 50.0874 108.96 49.9382 108.816C49.7891 108.669 49.5831 108.596 49.3203 108.596H47.7116V110.112ZM47.7116 107.818H48.9865C49.1854 107.818 49.3558 107.79 49.4979 107.733C49.6423 107.676 49.7524 107.596 49.8281 107.491C49.9062 107.385 49.9453 107.259 49.9453 107.115C49.9453 106.904 49.8589 106.74 49.6861 106.621C49.5133 106.503 49.2765 106.444 48.9759 106.444H47.7116V107.818Z" fill="black"/>
<path d="M46.6804 9V8.48864L48.6009 6.38636C48.8262 6.14015 49.0118 5.92614 49.1577 5.74432C49.3035 5.56061 49.4115 5.38826 49.4815 5.22727C49.5535 5.06439 49.5895 4.89394 49.5895 4.71591C49.5895 4.51136 49.5402 4.33428 49.4418 4.18466C49.3452 4.03504 49.2126 3.91951 49.044 3.83807C48.8755 3.75663 48.6861 3.71591 48.4759 3.71591C48.2524 3.71591 48.0573 3.76231 47.8906 3.85511C47.7259 3.94602 47.598 4.07386 47.5071 4.23864C47.4181 4.40341 47.3736 4.59659 47.3736 4.81818H46.7031C46.7031 4.47727 46.7817 4.17803 46.9389 3.92045C47.0961 3.66288 47.3101 3.46212 47.581 3.31818C47.8537 3.17424 48.1596 3.10227 48.4986 3.10227C48.8395 3.10227 49.1416 3.17424 49.4048 3.31818C49.6681 3.46212 49.8745 3.65625 50.0241 3.90057C50.1738 4.14489 50.2486 4.41667 50.2486 4.71591C50.2486 4.92992 50.2098 5.1392 50.1321 5.34375C50.0563 5.5464 49.9238 5.77273 49.7344 6.02273C49.5469 6.27083 49.2865 6.57386 48.9531 6.93182L47.6463 8.32955V8.375H50.3509V9H46.6804Z" fill="black"/>
<path d="M48.4585 20.1023C48.6971 20.1042 48.9357 20.1496 49.1744 20.2386C49.413 20.3277 49.6308 20.4754 49.8278 20.6818C50.0247 20.8864 50.1829 21.1657 50.3022 21.5199C50.4215 21.8741 50.4812 22.3182 50.4812 22.8523C50.4812 23.3693 50.4319 23.8286 50.3335 24.2301C50.2369 24.6297 50.0967 24.9669 49.913 25.2415C49.7312 25.5161 49.5096 25.7244 49.2482 25.8665C48.9888 26.0085 48.6952 26.0795 48.3675 26.0795C48.0418 26.0795 47.7511 26.0152 47.4954 25.8864C47.2416 25.7557 47.0333 25.5748 46.8704 25.3438C46.7094 25.1108 46.6062 24.8409 46.5607 24.5341H47.2539C47.3164 24.8011 47.4405 25.0218 47.6261 25.196C47.8136 25.3684 48.0607 25.4545 48.3675 25.4545C48.8164 25.4545 49.1706 25.2585 49.43 24.8665C49.6914 24.4744 49.8221 23.9205 49.8221 23.2045H49.7766C49.6706 23.3636 49.5446 23.5009 49.3988 23.6165C49.253 23.732 49.091 23.821 48.913 23.8835C48.735 23.946 48.5456 23.9773 48.3448 23.9773C48.0115 23.9773 47.7056 23.8949 47.4272 23.7301C47.1507 23.5634 46.9291 23.3352 46.7624 23.0455C46.5977 22.7538 46.5153 22.4205 46.5153 22.0455C46.5153 21.6894 46.5948 21.3636 46.7539 21.0682C46.9149 20.7708 47.1403 20.5341 47.43 20.358C47.7217 20.1818 48.0645 20.0966 48.4585 20.1023ZM48.4585 20.7273C48.2198 20.7273 48.0049 20.7869 47.8136 20.9062C47.6242 21.0237 47.4736 21.1828 47.3619 21.3835C47.252 21.5824 47.1971 21.803 47.1971 22.0455C47.1971 22.2879 47.2501 22.5085 47.3562 22.7074C47.4641 22.9044 47.6109 23.0616 47.7965 23.179C47.984 23.2945 48.1971 23.3523 48.4357 23.3523C48.6156 23.3523 48.7833 23.3172 48.9386 23.2472C49.0939 23.1752 49.2293 23.0777 49.3448 22.9545C49.4622 22.8295 49.5541 22.6884 49.6204 22.5312C49.6867 22.3722 49.7198 22.2064 49.7198 22.0341C49.7198 21.8068 49.6649 21.5937 49.555 21.3949C49.4471 21.196 49.2975 21.035 49.1062 20.9119C48.9168 20.7888 48.7009 20.7273 48.4585 20.7273Z" fill="black"/>
<path d="M48.538 144.08C48.2994 144.076 48.0607 144.03 47.8221 143.943C47.5835 143.856 47.3656 143.709 47.1687 143.503C46.9717 143.295 46.8136 143.013 46.6942 142.659C46.5749 142.303 46.5153 141.856 46.5153 141.318C46.5153 140.803 46.5636 140.347 46.6602 139.949C46.7567 139.549 46.8969 139.213 47.0806 138.94C47.2643 138.666 47.4859 138.457 47.7454 138.315C48.0067 138.173 48.3013 138.102 48.6289 138.102C48.9547 138.102 49.2444 138.168 49.4982 138.298C49.7539 138.427 49.9622 138.607 50.1232 138.838C50.2842 139.069 50.3884 139.335 50.4357 139.636H49.7425C49.6781 139.375 49.5531 139.158 49.3675 138.986C49.1819 138.813 48.9357 138.727 48.6289 138.727C48.1781 138.727 47.823 138.923 47.5636 139.315C47.306 139.707 47.1763 140.258 47.1744 140.966H47.2198C47.3259 140.805 47.4518 140.668 47.5977 140.554C47.7454 140.438 47.9083 140.349 48.0863 140.287C48.2643 140.224 48.4528 140.193 48.6516 140.193C48.985 140.193 49.2899 140.277 49.5664 140.443C49.8429 140.608 50.0645 140.836 50.2312 141.128C50.3978 141.418 50.4812 141.75 50.4812 142.125C50.4812 142.485 50.4007 142.814 50.2397 143.114C50.0787 143.411 49.8524 143.648 49.5607 143.824C49.271 143.998 48.93 144.083 48.538 144.08ZM48.538 143.455C48.7766 143.455 48.9906 143.395 49.18 143.276C49.3713 143.156 49.5219 142.996 49.6317 142.795C49.7435 142.595 49.7994 142.371 49.7994 142.125C49.7994 141.884 49.7454 141.666 49.6374 141.469C49.5314 141.27 49.3846 141.112 49.1971 140.994C49.0115 140.877 48.7994 140.818 48.5607 140.818C48.3808 140.818 48.2132 140.854 48.0579 140.926C47.9026 140.996 47.7662 141.093 47.6488 141.216C47.5333 141.339 47.4424 141.48 47.3761 141.639C47.3098 141.796 47.2766 141.962 47.2766 142.136C47.2766 142.367 47.3306 142.583 47.4386 142.784C47.5484 142.985 47.698 143.147 47.8874 143.27C48.0787 143.393 48.2956 143.455 48.538 143.455Z" fill="black"/>
<path d="M46.7923 37.1818V43H46.0877V37.9205H46.0536L44.6332 38.8636V38.1477L46.0877 37.1818H46.7923ZM50.3974 43.0795C50.1587 43.0758 49.9201 43.0303 49.6815 42.9432C49.4428 42.8561 49.225 42.7093 49.0281 42.5028C48.8311 42.2945 48.6729 42.0133 48.5536 41.6591C48.4343 41.303 48.3746 40.8561 48.3746 40.3182C48.3746 39.803 48.4229 39.3466 48.5195 38.9489C48.6161 38.5492 48.7563 38.2131 48.94 37.9403C49.1237 37.6657 49.3453 37.4574 49.6048 37.3153C49.8661 37.1733 50.1606 37.1023 50.4883 37.1023C50.814 37.1023 51.1038 37.1676 51.3576 37.2983C51.6133 37.4271 51.8216 37.607 51.9826 37.8381C52.1436 38.0691 52.2478 38.3352 52.2951 38.6364H51.6019C51.5375 38.375 51.4125 38.1581 51.2269 37.9858C51.0413 37.8134 50.7951 37.7273 50.4883 37.7273C50.0375 37.7273 49.6824 37.9233 49.4229 38.3153C49.1654 38.7074 49.0356 39.2576 49.0337 39.9659H49.0792C49.1853 39.8049 49.3112 39.6676 49.457 39.554C49.6048 39.4384 49.7676 39.3494 49.9457 39.2869C50.1237 39.2244 50.3121 39.1932 50.511 39.1932C50.8443 39.1932 51.1493 39.2765 51.4258 39.4432C51.7023 39.608 51.9239 39.8362 52.0906 40.1278C52.2572 40.4176 52.3406 40.75 52.3406 41.125C52.3406 41.4848 52.2601 41.8144 52.0991 42.1136C51.9381 42.411 51.7118 42.6477 51.4201 42.8239C51.1303 42.9981 50.7894 43.0833 50.3974 43.0795ZM50.3974 42.4545C50.636 42.4545 50.85 42.3949 51.0394 42.2756C51.2307 42.1562 51.3813 41.9962 51.4911 41.7955C51.6029 41.5947 51.6587 41.3712 51.6587 41.125C51.6587 40.8845 51.6048 40.6657 51.4968 40.4688C51.3907 40.2699 51.244 40.1117 51.0565 39.9943C50.8709 39.8769 50.6587 39.8182 50.4201 39.8182C50.2402 39.8182 50.0726 39.8542 49.9173 39.9261C49.762 39.9962 49.6256 40.0928 49.5082 40.2159C49.3926 40.339 49.3017 40.4801 49.2354 40.6392C49.1692 40.7964 49.136 40.9621 49.136 41.1364C49.136 41.3674 49.19 41.5833 49.2979 41.7841C49.4078 41.9848 49.5574 42.1468 49.7468 42.2699C49.9381 42.393 50.1549 42.4545 50.3974 42.4545Z" fill="black"/>
<path d="M46.7415 155.182V161H46.0369V155.92H46.0028L44.5824 156.864V156.148L46.0369 155.182H46.7415ZM50.3807 161.08C50.0057 161.08 49.6714 161.015 49.3778 160.886C49.0862 160.758 48.8542 160.579 48.6818 160.349C48.5114 160.118 48.4186 159.85 48.4034 159.545H49.1193C49.1345 159.733 49.1989 159.895 49.3125 160.031C49.4261 160.166 49.5748 160.27 49.7585 160.344C49.9422 160.418 50.1458 160.455 50.3693 160.455C50.6193 160.455 50.8409 160.411 51.0341 160.324C51.2273 160.237 51.3788 160.116 51.4886 159.96C51.5985 159.805 51.6534 159.625 51.6534 159.42C51.6534 159.206 51.6004 159.018 51.4943 158.855C51.3883 158.69 51.233 158.562 51.0284 158.469C50.8239 158.376 50.5739 158.33 50.2784 158.33H49.8125V157.705H50.2784C50.5095 157.705 50.7121 157.663 50.8864 157.58C51.0625 157.496 51.1998 157.379 51.2983 157.227C51.3987 157.076 51.4489 156.898 51.4489 156.693C51.4489 156.496 51.4053 156.325 51.3182 156.179C51.2311 156.033 51.108 155.92 50.9489 155.838C50.7917 155.757 50.6061 155.716 50.392 155.716C50.1913 155.716 50.0019 155.753 49.8239 155.827C49.6477 155.899 49.5038 156.004 49.392 156.142C49.2803 156.278 49.2197 156.443 49.2102 156.636H48.5284C48.5398 156.331 48.6316 156.064 48.804 155.835C48.9763 155.604 49.2017 155.424 49.4801 155.295C49.7604 155.167 50.0682 155.102 50.4034 155.102C50.7633 155.102 51.072 155.175 51.3295 155.321C51.5871 155.465 51.785 155.655 51.9233 155.892C52.0616 156.129 52.1307 156.384 52.1307 156.659C52.1307 156.987 52.0445 157.266 51.8722 157.497C51.7017 157.728 51.4697 157.888 51.1761 157.977V158.023C51.5436 158.083 51.8305 158.24 52.0369 158.491C52.2434 158.741 52.3466 159.051 52.3466 159.42C52.3466 159.737 52.2604 160.021 52.0881 160.273C51.9176 160.523 51.6847 160.72 51.3892 160.864C51.0938 161.008 50.7576 161.08 50.3807 161.08Z" fill="black"/>
<path d="M43.6335 60V59.4886L45.554 57.3864C45.7794 57.1402 45.965 56.9261 46.1108 56.7443C46.2566 56.5606 46.3646 56.3883 46.4347 56.2273C46.5066 56.0644 46.5426 55.8939 46.5426 55.7159C46.5426 55.5114 46.4934 55.3343 46.3949 55.1847C46.2983 55.035 46.1657 54.9195 45.9972 54.8381C45.8286 54.7566 45.6392 54.7159 45.429 54.7159C45.2055 54.7159 45.0104 54.7623 44.8438 54.8551C44.679 54.946 44.5511 55.0739 44.4602 55.2386C44.3712 55.4034 44.3267 55.5966 44.3267 55.8182H43.6562C43.6562 55.4773 43.7348 55.178 43.892 54.9205C44.0492 54.6629 44.2633 54.4621 44.5341 54.3182C44.8068 54.1742 45.1127 54.1023 45.4517 54.1023C45.7926 54.1023 46.0947 54.1742 46.358 54.3182C46.6212 54.4621 46.8277 54.6562 46.9773 54.9006C47.1269 55.1449 47.2017 55.4167 47.2017 55.7159C47.2017 55.9299 47.1629 56.1392 47.0852 56.3438C47.0095 56.5464 46.8769 56.7727 46.6875 57.0227C46.5 57.2708 46.2396 57.5739 45.9062 57.9318L44.5994 59.3295V59.375H47.304V60H43.6335ZM50.4432 60.0795C50.0682 60.0795 49.7339 60.0152 49.4403 59.8864C49.1487 59.7576 48.9167 59.5786 48.7443 59.3494C48.5739 59.1184 48.4811 58.8504 48.4659 58.5455H49.1818C49.197 58.733 49.2614 58.8949 49.375 59.0312C49.4886 59.1657 49.6373 59.2699 49.821 59.3438C50.0047 59.4176 50.2083 59.4545 50.4318 59.4545C50.6818 59.4545 50.9034 59.411 51.0966 59.3239C51.2898 59.2367 51.4413 59.1155 51.5511 58.9602C51.661 58.8049 51.7159 58.625 51.7159 58.4205C51.7159 58.2064 51.6629 58.018 51.5568 57.8551C51.4508 57.6903 51.2955 57.5616 51.0909 57.4688C50.8864 57.3759 50.6364 57.3295 50.3409 57.3295H49.875V56.7045H50.3409C50.572 56.7045 50.7746 56.6629 50.9489 56.5795C51.125 56.4962 51.2623 56.3788 51.3608 56.2273C51.4612 56.0758 51.5114 55.8977 51.5114 55.6932C51.5114 55.4962 51.4678 55.3248 51.3807 55.179C51.2936 55.0331 51.1705 54.9195 51.0114 54.8381C50.8542 54.7566 50.6686 54.7159 50.4545 54.7159C50.2538 54.7159 50.0644 54.7528 49.8864 54.8267C49.7102 54.8987 49.5663 55.0038 49.4545 55.142C49.3428 55.2784 49.2822 55.4432 49.2727 55.6364H48.5909C48.6023 55.3314 48.6941 55.0644 48.8665 54.8352C49.0388 54.6042 49.2642 54.4242 49.5426 54.2955C49.8229 54.1667 50.1307 54.1023 50.4659 54.1023C50.8258 54.1023 51.1345 54.1752 51.392 54.321C51.6496 54.465 51.8475 54.6553 51.9858 54.892C52.1241 55.1288 52.1932 55.3845 52.1932 55.6591C52.1932 55.9867 52.107 56.2661 51.9347 56.4972C51.7642 56.7282 51.5322 56.8883 51.2386 56.9773V57.0227C51.6061 57.0833 51.893 57.2396 52.0994 57.4915C52.3059 57.7415 52.4091 58.0511 52.4091 58.4205C52.4091 58.7367 52.3229 59.0208 52.1506 59.2727C51.9801 59.5227 51.7472 59.7197 51.4517 59.8636C51.1563 60.0076 50.8201 60.0795 50.4432 60.0795Z" fill="black"/>
<path d="M46.0213 77.0795C45.6463 77.0795 45.312 77.0152 45.0185 76.8864C44.7268 76.7576 44.4948 76.5786 44.3224 76.3494C44.152 76.1184 44.0592 75.8504 44.044 75.5455H44.7599C44.7751 75.733 44.8395 75.8949 44.9531 76.0312C45.0668 76.1657 45.2154 76.2699 45.3991 76.3438C45.5829 76.4176 45.7865 76.4545 46.0099 76.4545C46.2599 76.4545 46.4815 76.411 46.6747 76.3239C46.8679 76.2367 47.0194 76.1155 47.1293 75.9602C47.2391 75.8049 47.294 75.625 47.294 75.4205C47.294 75.2064 47.241 75.018 47.1349 74.8551C47.0289 74.6903 46.8736 74.5616 46.669 74.4688C46.4645 74.3759 46.2145 74.3295 45.919 74.3295H45.4531V73.7045H45.919C46.1501 73.7045 46.3527 73.6629 46.527 73.5795C46.7031 73.4962 46.8404 73.3788 46.9389 73.2273C47.0393 73.0758 47.0895 72.8977 47.0895 72.6932C47.0895 72.4962 47.0459 72.3248 46.9588 72.179C46.8717 72.0331 46.7486 71.9195 46.5895 71.8381C46.4323 71.7566 46.2467 71.7159 46.0327 71.7159C45.8319 71.7159 45.6425 71.7528 45.4645 71.8267C45.2884 71.8987 45.1444 72.0038 45.0327 72.142C44.9209 72.2784 44.8603 72.4432 44.8509 72.6364H44.169C44.1804 72.3314 44.2723 72.0644 44.4446 71.8352C44.617 71.6042 44.8423 71.4242 45.1207 71.2955C45.401 71.1667 45.7088 71.1023 46.044 71.1023C46.4039 71.1023 46.7126 71.1752 46.9702 71.321C47.2277 71.465 47.4257 71.6553 47.5639 71.892C47.7022 72.1288 47.7713 72.3845 47.7713 72.6591C47.7713 72.9867 47.6851 73.2661 47.5128 73.4972C47.3423 73.7282 47.1103 73.8883 46.8168 73.9773V74.0227C47.1842 74.0833 47.4711 74.2396 47.6776 74.4915C47.884 74.7415 47.9872 75.0511 47.9872 75.4205C47.9872 75.7367 47.901 76.0208 47.7287 76.2727C47.5582 76.5227 47.3253 76.7197 47.0298 76.8636C46.7344 77.0076 46.3982 77.0795 46.0213 77.0795ZM51.0469 77.0795C50.6188 77.0795 50.2543 76.9631 49.9531 76.7301C49.652 76.4953 49.4219 76.1553 49.2628 75.7102C49.1037 75.2633 49.0241 74.7235 49.0241 74.0909C49.0241 73.4621 49.1037 72.9252 49.2628 72.4801C49.4238 72.0331 49.6548 71.6922 49.956 71.4574C50.259 71.2206 50.6226 71.1023 51.0469 71.1023C51.4711 71.1023 51.8338 71.2206 52.1349 71.4574C52.438 71.6922 52.669 72.0331 52.8281 72.4801C52.9891 72.9252 53.0696 73.4621 53.0696 74.0909C53.0696 74.7235 52.9901 75.2633 52.831 75.7102C52.6719 76.1553 52.4418 76.4953 52.1406 76.7301C51.8395 76.9631 51.4749 77.0795 51.0469 77.0795ZM51.0469 76.4545C51.4711 76.4545 51.8007 76.25 52.0355 75.8409C52.2704 75.4318 52.3878 74.8485 52.3878 74.0909C52.3878 73.5871 52.3338 73.1581 52.2259 72.804C52.1198 72.4498 51.9664 72.1799 51.7656 71.9943C51.5668 71.8087 51.3272 71.7159 51.0469 71.7159C50.6264 71.7159 50.2978 71.9233 50.0611 72.3381C49.8243 72.7509 49.706 73.3352 49.706 74.0909C49.706 74.5947 49.759 75.0227 49.8651 75.375C49.9711 75.7273 50.1236 75.9953 50.3224 76.179C50.5232 76.3627 50.7647 76.4545 51.0469 76.4545Z" fill="black"/>
<path d="M66.0114 111.11C65.4834 111.11 65.0289 110.991 64.6477 110.751C64.2689 110.51 63.9777 110.177 63.7741 109.754C63.5705 109.33 63.4688 108.844 63.4688 108.298C63.4688 107.744 63.5729 107.255 63.7812 106.831C63.9896 106.405 64.2831 106.072 64.6619 105.833C65.0407 105.594 65.487 105.474 66.0007 105.474C66.415 105.474 66.7843 105.551 67.1087 105.705C67.433 105.857 67.6946 106.07 67.8935 106.344C68.0947 106.619 68.2143 106.94 68.2521 107.307H67.2188C67.1619 107.051 67.0317 106.831 66.8281 106.646C66.6269 106.462 66.357 106.369 66.0185 106.369C65.7225 106.369 65.4633 106.447 65.2408 106.604C65.0206 106.758 64.849 106.978 64.7259 107.264C64.6027 107.548 64.5412 107.884 64.5412 108.273C64.5412 108.67 64.6016 109.014 64.7223 109.303C64.843 109.591 65.0135 109.815 65.2337 109.974C65.4562 110.132 65.7178 110.212 66.0185 110.212C66.2197 110.212 66.402 110.175 66.5653 110.102C66.7311 110.026 66.8696 109.918 66.9808 109.778C67.0945 109.639 67.1738 109.471 67.2188 109.274H68.2521C68.2143 109.627 68.0994 109.942 67.9077 110.219C67.7159 110.496 67.459 110.714 67.1371 110.872C66.8175 111.031 66.4422 111.11 66.0114 111.11Z" fill="black"/>
<path d="M65.0213 9.07955C64.6463 9.07955 64.312 9.01515 64.0185 8.88636C63.7268 8.75758 63.4948 8.5786 63.3224 8.34943C63.152 8.11837 63.0592 7.85038 63.044 7.54545H63.7599C63.7751 7.73295 63.8395 7.89489 63.9531 8.03125C64.0668 8.16572 64.2154 8.26989 64.3991 8.34375C64.5829 8.41761 64.7865 8.45455 65.0099 8.45455C65.2599 8.45455 65.4815 8.41098 65.6747 8.32386C65.8679 8.23674 66.0194 8.11553 66.1293 7.96023C66.2391 7.80492 66.294 7.625 66.294 7.42045C66.294 7.20644 66.241 7.01799 66.1349 6.85511C66.0289 6.69034 65.8736 6.56155 65.669 6.46875C65.4645 6.37595 65.2145 6.32955 64.919 6.32955H64.4531V5.70455H64.919C65.1501 5.70455 65.3527 5.66288 65.527 5.57955C65.7031 5.49621 65.8404 5.37879 65.9389 5.22727C66.0393 5.07576 66.0895 4.89773 66.0895 4.69318C66.0895 4.49621 66.0459 4.32481 65.9588 4.17898C65.8717 4.03314 65.7486 3.91951 65.5895 3.83807C65.4323 3.75663 65.2467 3.71591 65.0327 3.71591C64.8319 3.71591 64.6425 3.75284 64.4645 3.8267C64.2884 3.89867 64.1444 4.00379 64.0327 4.14205C63.9209 4.27841 63.8603 4.44318 63.8509 4.63636H63.169C63.1804 4.33144 63.2723 4.06439 63.4446 3.83523C63.617 3.60417 63.8423 3.42424 64.1207 3.29545C64.401 3.16667 64.7088 3.10227 65.044 3.10227C65.4039 3.10227 65.7126 3.17519 65.9702 3.32102C66.2277 3.46496 66.4257 3.6553 66.5639 3.89205C66.7022 4.12879 66.7713 4.38447 66.7713 4.65909C66.7713 4.98674 66.6851 5.2661 66.5128 5.49716C66.3423 5.72822 66.1103 5.88826 65.8168 5.97727V6.02273C66.1842 6.08333 66.4711 6.23958 66.6776 6.49148C66.884 6.74148 66.9872 7.05114 66.9872 7.42045C66.9872 7.73674 66.901 8.02083 66.7287 8.27273C66.5582 8.52273 66.3253 8.7197 66.0298 8.86364C65.7344 9.00758 65.3982 9.07955 65.0213 9.07955Z" fill="black"/>
<path d="M63.7884 20.1818V26H63.0838V20.9205H63.0497L61.6293 21.8636V21.1477L63.0838 20.1818H63.7884ZM67.3594 26.0795C66.9313 26.0795 66.5668 25.9631 66.2656 25.7301C65.9645 25.4953 65.7344 25.1553 65.5753 24.7102C65.4162 24.2633 65.3366 23.7235 65.3366 23.0909C65.3366 22.4621 65.4162 21.9252 65.5753 21.4801C65.7363 21.0331 65.9673 20.6922 66.2685 20.4574C66.5715 20.2206 66.9351 20.1023 67.3594 20.1023C67.7836 20.1023 68.1463 20.2206 68.4474 20.4574C68.7505 20.6922 68.9815 21.0331 69.1406 21.4801C69.3016 21.9252 69.3821 22.4621 69.3821 23.0909C69.3821 23.7235 69.3026 24.2633 69.1435 24.7102C68.9844 25.1553 68.7543 25.4953 68.4531 25.7301C68.152 25.9631 67.7874 26.0795 67.3594 26.0795ZM67.3594 25.4545C67.7836 25.4545 68.1132 25.25 68.348 24.8409C68.5829 24.4318 68.7003 23.8485 68.7003 23.0909C68.7003 22.5871 68.6463 22.1581 68.5384 21.804C68.4323 21.4498 68.2789 21.1799 68.0781 20.9943C67.8793 20.8087 67.6397 20.7159 67.3594 20.7159C66.9389 20.7159 66.6103 20.9233 66.3736 21.3381C66.1368 21.7509 66.0185 22.3352 66.0185 23.0909C66.0185 23.5947 66.0715 24.0227 66.1776 24.375C66.2836 24.7273 66.4361 24.9953 66.6349 25.179C66.8357 25.3627 67.0772 25.4545 67.3594 25.4545Z" fill="black"/>
<path d="M63.9989 144L66.6012 138.852V138.807H63.6012V138.182H67.3285V138.841L64.7376 144H63.9989Z" fill="black"/>
<path d="M64.0032 37.1818V43H63.2987V37.9205H63.2646L61.8441 38.8636V38.1477L63.2987 37.1818H64.0032ZM65.8583 43L68.4606 37.8523V37.8068H65.4606V37.1818H69.1879V37.8409L66.5969 43H65.8583Z" fill="black"/>
<path d="M63.7219 155.182V161H63.0174V155.92H62.9833L61.5629 156.864V156.148L63.0174 155.182H63.7219ZM65.2589 159.807V159.227L67.8157 155.182H68.2362V156.08H67.9521L66.0202 159.136V159.182H69.4634V159.807H65.2589ZM67.9975 161V159.631V159.361V155.182H68.668V161H67.9975Z" fill="black"/>
<path d="M60.6765 60V59.4886L62.5969 57.3864C62.8223 57.1402 63.0079 56.9261 63.1538 56.7443C63.2996 56.5606 63.4076 56.3883 63.4776 56.2273C63.5496 56.0644 63.5856 55.8939 63.5856 55.7159C63.5856 55.5114 63.5363 55.3343 63.4379 55.1847C63.3413 55.035 63.2087 54.9195 63.0401 54.8381C62.8716 54.7566 62.6822 54.7159 62.4719 54.7159C62.2485 54.7159 62.0534 54.7623 61.8867 54.8551C61.7219 54.946 61.5941 55.0739 61.5032 55.2386C61.4142 55.4034 61.3697 55.5966 61.3697 55.8182H60.6992C60.6992 55.4773 60.7778 55.178 60.935 54.9205C61.0922 54.6629 61.3062 54.4621 61.5771 54.3182C61.8498 54.1742 62.1557 54.1023 62.4947 54.1023C62.8356 54.1023 63.1377 54.1742 63.4009 54.3182C63.6642 54.4621 63.8706 54.6562 64.0202 54.9006C64.1699 55.1449 64.2447 55.4167 64.2447 55.7159C64.2447 55.9299 64.2058 56.1392 64.1282 56.3438C64.0524 56.5464 63.9199 56.7727 63.7305 57.0227C63.543 57.2708 63.2826 57.5739 62.9492 57.9318L61.6424 59.3295V59.375H64.3469V60H60.6765ZM65.2589 58.8068V58.2273L67.8157 54.1818H68.2362V55.0795H67.9521L66.0202 58.1364V58.1818H69.4634V58.8068H65.2589ZM67.9975 60V58.6307V58.3608V54.1818H68.668V60H67.9975Z" fill="black"/>
<path d="M63.6619 77.0795C63.2869 77.0795 62.9527 77.0152 62.6591 76.8864C62.3674 76.7576 62.1354 76.5786 61.9631 76.3494C61.7926 76.1184 61.6998 75.8504 61.6847 75.5455H62.4006C62.4157 75.733 62.4801 75.8949 62.5938 76.0312C62.7074 76.1657 62.8561 76.2699 63.0398 76.3438C63.2235 76.4176 63.4271 76.4545 63.6506 76.4545C63.9006 76.4545 64.1222 76.411 64.3153 76.3239C64.5085 76.2367 64.66 76.1155 64.7699 75.9602C64.8797 75.8049 64.9347 75.625 64.9347 75.4205C64.9347 75.2064 64.8816 75.018 64.7756 74.8551C64.6695 74.6903 64.5142 74.5616 64.3097 74.4688C64.1051 74.3759 63.8551 74.3295 63.5597 74.3295H63.0938V73.7045H63.5597C63.7907 73.7045 63.9934 73.6629 64.1676 73.5795C64.3438 73.4962 64.4811 73.3788 64.5795 73.2273C64.6799 73.0758 64.7301 72.8977 64.7301 72.6932C64.7301 72.4962 64.6866 72.3248 64.5994 72.179C64.5123 72.0331 64.3892 71.9195 64.2301 71.8381C64.0729 71.7566 63.8873 71.7159 63.6733 71.7159C63.4725 71.7159 63.2831 71.7528 63.1051 71.8267C62.929 71.8987 62.785 72.0038 62.6733 72.142C62.5616 72.2784 62.5009 72.4432 62.4915 72.6364H61.8097C61.821 72.3314 61.9129 72.0644 62.0852 71.8352C62.2576 71.6042 62.483 71.4242 62.7614 71.2955C63.0417 71.1667 63.3494 71.1023 63.6847 71.1023C64.0445 71.1023 64.3532 71.1752 64.6108 71.321C64.8684 71.465 65.0663 71.6553 65.2045 71.892C65.3428 72.1288 65.4119 72.3845 65.4119 72.6591C65.4119 72.9867 65.3258 73.2661 65.1534 73.4972C64.983 73.7282 64.7509 73.8883 64.4574 73.9773V74.0227C64.8248 74.0833 65.1117 74.2396 65.3182 74.4915C65.5246 74.7415 65.6278 75.0511 65.6278 75.4205C65.6278 75.7367 65.5417 76.0208 65.3693 76.2727C65.1989 76.5227 64.9659 76.7197 64.6705 76.8636C64.375 77.0076 64.0388 77.0795 63.6619 77.0795ZM68.8352 71.1818V77H68.1307V71.9205H68.0966L66.6761 72.8636V72.1477L68.1307 71.1818H68.8352Z" fill="black"/>
<path d="M85.0923 105.545V111H84.0554V105.545H85.0923ZM84.6413 108.077V108.994C84.478 109.06 84.3052 109.119 84.1229 109.171C83.9406 109.221 83.7488 109.26 83.5476 109.288C83.3464 109.317 83.1368 109.331 82.919 109.331C82.2443 109.331 81.7081 109.166 81.3104 108.837C80.9126 108.506 80.7138 107.999 80.7138 107.317V105.535H81.7472V107.317C81.7472 107.576 81.7945 107.785 81.8892 107.946C81.9839 108.107 82.1188 108.225 82.294 108.301C82.4692 108.377 82.6776 108.415 82.919 108.415C83.2386 108.415 83.5334 108.385 83.8033 108.326C84.0755 108.264 84.3549 108.182 84.6413 108.077Z" fill="black"/>
<path d="M79.8995 7.80682V7.22727L82.4563 3.18182H82.8768V4.07955H82.5927L80.6609 7.13636V7.18182H84.104V7.80682H79.8995ZM82.6381 9V7.63068V7.3608V3.18182H83.3086V9H82.6381Z" fill="black"/>
<path d="M82.7884 121.182V127H82.0838V121.92H82.0497L80.6293 122.864V122.148L82.0838 121.182H82.7884Z" fill="black"/>
<path d="M80.929 20.1818V26H80.2244V20.9205H80.1903L78.7699 21.8636V21.1477L80.2244 20.1818H80.929ZM84.6477 20.1818V26H83.9432V20.9205H83.9091L82.4886 21.8636V21.1477L83.9432 20.1818H84.6477Z" fill="black"/>
<path d="M82.5011 144.08C82.1109 144.08 81.7662 144.01 81.467 143.872C81.1696 143.732 80.9376 143.54 80.771 143.295C80.6043 143.049 80.5219 142.769 80.5238 142.455C80.5219 142.208 80.5702 141.981 80.6687 141.773C80.7672 141.562 80.9016 141.387 81.0721 141.247C81.2444 141.105 81.4367 141.015 81.6488 140.977V140.943C81.3704 140.871 81.1488 140.715 80.984 140.474C80.8192 140.232 80.7378 139.956 80.7397 139.648C80.7378 139.352 80.8126 139.088 80.9641 138.855C81.1156 138.622 81.324 138.438 81.5891 138.304C81.8562 138.17 82.1602 138.102 82.5011 138.102C82.8382 138.102 83.1393 138.17 83.4045 138.304C83.6696 138.438 83.878 138.622 84.0295 138.855C84.1829 139.088 84.2605 139.352 84.2624 139.648C84.2605 139.956 84.1763 140.232 84.0096 140.474C83.8448 140.715 83.6261 140.871 83.3533 140.943V140.977C83.5636 141.015 83.753 141.105 83.9215 141.247C84.0901 141.387 84.2246 141.562 84.3249 141.773C84.4253 141.981 84.4764 142.208 84.4783 142.455C84.4764 142.769 84.3912 143.049 84.2227 143.295C84.056 143.54 83.824 143.732 83.5266 143.872C83.2312 144.01 82.8893 144.08 82.5011 144.08ZM82.5011 143.455C82.7643 143.455 82.9916 143.412 83.1829 143.327C83.3742 143.241 83.5219 143.121 83.6261 142.966C83.7302 142.811 83.7833 142.629 83.7852 142.42C83.7833 142.201 83.7264 142.007 83.6147 141.838C83.503 141.67 83.3505 141.537 83.1573 141.44C82.966 141.344 82.7473 141.295 82.5011 141.295C82.253 141.295 82.0314 141.344 81.8363 141.44C81.6431 141.537 81.4906 141.67 81.3789 141.838C81.2691 142.007 81.2151 142.201 81.217 142.42C81.2151 142.629 81.2653 142.811 81.3675 142.966C81.4717 143.121 81.6204 143.241 81.8136 143.327C82.0067 143.412 82.2359 143.455 82.5011 143.455ZM82.5011 140.693C82.7094 140.693 82.8941 140.652 83.055 140.568C83.2179 140.485 83.3458 140.368 83.4386 140.219C83.5314 140.069 83.5787 139.894 83.5806 139.693C83.5787 139.496 83.5323 139.325 83.4414 139.179C83.3505 139.031 83.2246 138.918 83.0636 138.838C82.9026 138.757 82.7151 138.716 82.5011 138.716C82.2833 138.716 82.0929 138.757 81.93 138.838C81.7672 138.918 81.6412 139.031 81.5522 139.179C81.4632 139.325 81.4196 139.496 81.4215 139.693C81.4196 139.894 81.4641 140.069 81.555 140.219C81.6478 140.368 81.7757 140.485 81.9386 140.568C82.1014 140.652 82.2889 140.693 82.5011 140.693Z" fill="black"/>
<path d="M80.8235 37.1818V43H80.119V37.9205H80.0849L78.6644 38.8636V38.1477L80.119 37.1818H80.8235ZM84.3604 43.0795C83.9703 43.0795 83.6256 43.0104 83.3263 42.8722C83.029 42.732 82.797 42.5398 82.6303 42.2955C82.4637 42.0492 82.3813 41.7689 82.3832 41.4545C82.3813 41.2083 82.4296 40.9811 82.5281 40.7727C82.6265 40.5625 82.761 40.3873 82.9315 40.2472C83.1038 40.1051 83.296 40.0152 83.5082 39.9773V39.9432C83.2298 39.8712 83.0082 39.715 82.8434 39.4744C82.6786 39.232 82.5972 38.9564 82.5991 38.6477C82.5972 38.3523 82.672 38.0881 82.8235 37.8551C82.975 37.6222 83.1834 37.4384 83.4485 37.304C83.7156 37.1695 84.0195 37.1023 84.3604 37.1023C84.6976 37.1023 84.9987 37.1695 85.2638 37.304C85.529 37.4384 85.7373 37.6222 85.8888 37.8551C86.0423 38.0881 86.1199 38.3523 86.1218 38.6477C86.1199 38.9564 86.0356 39.232 85.869 39.4744C85.7042 39.715 85.4854 39.8712 85.2127 39.9432V39.9773C85.4229 40.0152 85.6123 40.1051 85.7809 40.2472C85.9495 40.3873 86.0839 40.5625 86.1843 40.7727C86.2847 40.9811 86.3358 41.2083 86.3377 41.4545C86.3358 41.7689 86.2506 42.0492 86.082 42.2955C85.9154 42.5398 85.6834 42.732 85.386 42.8722C85.0906 43.0104 84.7487 43.0795 84.3604 43.0795ZM84.3604 42.4545C84.6237 42.4545 84.851 42.4119 85.0423 42.3267C85.2335 42.2415 85.3813 42.1212 85.4854 41.9659C85.5896 41.8106 85.6426 41.6288 85.6445 41.4205C85.6426 41.2008 85.5858 41.0066 85.4741 40.8381C85.3623 40.6695 85.2099 40.5369 85.0167 40.4403C84.8254 40.3437 84.6067 40.2955 84.3604 40.2955C84.1123 40.2955 83.8907 40.3437 83.6957 40.4403C83.5025 40.5369 83.35 40.6695 83.2383 40.8381C83.1284 41.0066 83.0745 41.2008 83.0763 41.4205C83.0745 41.6288 83.1246 41.8106 83.2269 41.9659C83.3311 42.1212 83.4798 42.2415 83.6729 42.3267C83.8661 42.4119 84.0953 42.4545 84.3604 42.4545ZM84.3604 39.6932C84.5688 39.6932 84.7534 39.6515 84.9144 39.5682C85.0773 39.4848 85.2051 39.3684 85.2979 39.2188C85.3907 39.0691 85.4381 38.8939 85.44 38.6932C85.4381 38.4962 85.3917 38.3248 85.3008 38.179C85.2099 38.0312 85.0839 37.9176 84.9229 37.8381C84.762 37.7566 84.5745 37.7159 84.3604 37.7159C84.1426 37.7159 83.9523 37.7566 83.7894 37.8381C83.6265 37.9176 83.5006 38.0312 83.4116 38.179C83.3226 38.3248 83.279 38.4962 83.2809 38.6932C83.279 38.8939 83.3235 39.0691 83.4144 39.2188C83.5072 39.3684 83.6351 39.4848 83.7979 39.5682C83.9608 39.6515 84.1483 39.6932 84.3604 39.6932Z" fill="black"/>
<path d="M80.8548 155.182V161H80.1502V155.92H80.1161L78.6957 156.864V156.148L80.1502 155.182H80.8548ZM84.3462 161.08C84.0129 161.08 83.7127 161.013 83.4457 160.881C83.1786 160.748 82.9646 160.566 82.8036 160.335C82.6426 160.104 82.5546 159.841 82.5394 159.545H83.2212C83.2478 159.809 83.3671 160.027 83.5792 160.199C83.7932 160.369 84.0489 160.455 84.3462 160.455C84.5849 160.455 84.797 160.399 84.9826 160.287C85.1701 160.175 85.3169 160.022 85.4229 159.827C85.5309 159.63 85.5849 159.407 85.5849 159.159C85.5849 158.905 85.529 158.679 85.4173 158.48C85.3074 158.279 85.1559 158.121 84.9627 158.006C84.7695 157.89 84.5489 157.831 84.3008 157.83C84.1228 157.828 83.94 157.855 83.7525 157.912C83.565 157.967 83.4106 158.038 83.2894 158.125L82.6303 158.045L82.9826 155.182H86.0053V155.807H83.5735L83.369 157.523H83.4031C83.5224 157.428 83.672 157.349 83.8519 157.287C84.0318 157.224 84.2193 157.193 84.4144 157.193C84.7705 157.193 85.0877 157.278 85.3661 157.449C85.6464 157.617 85.8661 157.848 86.0252 158.142C86.1862 158.436 86.2667 158.771 86.2667 159.148C86.2667 159.519 86.1834 159.85 86.0167 160.142C85.8519 160.432 85.6246 160.661 85.3349 160.83C85.0451 160.996 84.7156 161.08 84.3462 161.08Z" fill="black"/>
<path d="M77.7468 60V59.4886L79.6673 57.3864C79.8926 57.1402 80.0782 56.9261 80.2241 56.7443C80.3699 56.5606 80.4779 56.3883 80.5479 56.2273C80.6199 56.0644 80.6559 55.8939 80.6559 55.7159C80.6559 55.5114 80.6067 55.3343 80.5082 55.1847C80.4116 55.035 80.279 54.9195 80.1104 54.8381C79.9419 54.7566 79.7525 54.7159 79.5423 54.7159C79.3188 54.7159 79.1237 54.7623 78.957 54.8551C78.7923 54.946 78.6644 55.0739 78.5735 55.2386C78.4845 55.4034 78.44 55.5966 78.44 55.8182H77.7695C77.7695 55.4773 77.8481 55.178 78.0053 54.9205C78.1625 54.6629 78.3765 54.4621 78.6474 54.3182C78.9201 54.1742 79.226 54.1023 79.565 54.1023C79.9059 54.1023 80.208 54.1742 80.4712 54.3182C80.7345 54.4621 80.9409 54.6562 81.0906 54.9006C81.2402 55.1449 81.315 55.4167 81.315 55.7159C81.315 55.9299 81.2762 56.1392 81.1985 56.3438C81.1228 56.5464 80.9902 56.7727 80.8008 57.0227C80.6133 57.2708 80.3529 57.5739 80.0195 57.9318L78.7127 59.3295V59.375H81.4173V60H77.7468ZM84.4087 60.0795C84.0754 60.0795 83.7752 60.0133 83.5082 59.8807C83.2411 59.7481 83.0271 59.5663 82.8661 59.3352C82.7051 59.1042 82.6171 58.8409 82.6019 58.5455H83.2837C83.3103 58.8087 83.4296 59.0265 83.6417 59.1989C83.8557 59.3693 84.1114 59.4545 84.4087 59.4545C84.6474 59.4545 84.8595 59.3987 85.0451 59.2869C85.2326 59.1752 85.3794 59.0218 85.4854 58.8267C85.5934 58.6297 85.6474 58.4072 85.6474 58.1591C85.6474 57.9053 85.5915 57.679 85.4798 57.4801C85.3699 57.2794 85.2184 57.1212 85.0252 57.0057C84.832 56.8902 84.6114 56.8314 84.3633 56.8295C84.1853 56.8277 84.0025 56.8551 83.815 56.9119C83.6275 56.9669 83.4731 57.0379 83.3519 57.125L82.6928 57.0455L83.0451 54.1818H86.0678V54.8068H83.636L83.4315 56.5227H83.4656C83.5849 56.428 83.7345 56.3494 83.9144 56.2869C84.0943 56.2244 84.2818 56.1932 84.4769 56.1932C84.833 56.1932 85.1502 56.2784 85.4286 56.4489C85.7089 56.6174 85.9286 56.8485 86.0877 57.142C86.2487 57.4356 86.3292 57.7708 86.3292 58.1477C86.3292 58.5189 86.2459 58.8504 86.0792 59.142C85.9144 59.4318 85.6871 59.661 85.3974 59.8295C85.1076 59.9962 84.7781 60.0795 84.4087 60.0795Z" fill="black"/>
<path d="M97.7138 111V105.545H102.163V111H101.123V106.462H98.7472V111H97.7138Z" fill="black"/>
<path d="M99.4869 9.07955C99.1535 9.07955 98.8533 9.01326 98.5863 8.88068C98.3192 8.74811 98.1052 8.56629 97.9442 8.33523C97.7833 8.10417 97.6952 7.84091 97.68 7.54545H98.3619C98.3884 7.80871 98.5077 8.02652 98.7198 8.19886C98.9338 8.36932 99.1895 8.45455 99.4869 8.45455C99.7255 8.45455 99.9376 8.39867 100.123 8.28693C100.311 8.17519 100.458 8.02178 100.564 7.8267C100.672 7.62973 100.725 7.4072 100.725 7.15909C100.725 6.9053 100.67 6.67898 100.558 6.48011C100.448 6.27936 100.297 6.12121 100.103 6.00568C99.9102 5.89015 99.6895 5.83144 99.4414 5.82955C99.2634 5.82765 99.0806 5.85511 98.8931 5.91193C98.7056 5.96686 98.5513 6.03788 98.43 6.125L97.771 6.04545L98.1232 3.18182H101.146V3.80682H98.7141L98.5096 5.52273H98.5437C98.663 5.42803 98.8126 5.34943 98.9925 5.28693C99.1725 5.22443 99.36 5.19318 99.555 5.19318C99.9111 5.19318 100.228 5.27841 100.507 5.44886C100.787 5.61742 101.007 5.84848 101.166 6.14205C101.327 6.43561 101.407 6.77083 101.407 7.14773C101.407 7.51894 101.324 7.85038 101.157 8.14205C100.993 8.43182 100.765 8.66098 100.475 8.82955C100.186 8.99621 99.8562 9.07955 99.4869 9.07955Z" fill="black"/>
<path d="M97.6804 127V126.489L99.6009 124.386C99.8262 124.14 100.012 123.926 100.158 123.744C100.304 123.561 100.411 123.388 100.482 123.227C100.554 123.064 100.589 122.894 100.589 122.716C100.589 122.511 100.54 122.334 100.442 122.185C100.345 122.035 100.213 121.92 100.044 121.838C99.8755 121.757 99.6861 121.716 99.4759 121.716C99.2524 121.716 99.0573 121.762 98.8906 121.855C98.7259 121.946 98.598 122.074 98.5071 122.239C98.4181 122.403 98.3736 122.597 98.3736 122.818H97.7031C97.7031 122.477 97.7817 122.178 97.9389 121.92C98.0961 121.663 98.3101 121.462 98.581 121.318C98.8537 121.174 99.1596 121.102 99.4986 121.102C99.8395 121.102 100.142 121.174 100.405 121.318C100.668 121.462 100.875 121.656 101.024 121.901C101.174 122.145 101.249 122.417 101.249 122.716C101.249 122.93 101.21 123.139 101.132 123.344C101.056 123.546 100.924 123.773 100.734 124.023C100.547 124.271 100.286 124.574 99.9531 124.932L98.6463 126.33V126.375H101.351V127H97.6804Z" fill="black"/>
<path d="M97.8665 20.1818V26H97.1619V20.9205H97.1278L95.7074 21.8636V21.1477L97.1619 20.1818H97.8665ZM99.5398 26V25.4886L101.46 23.3864C101.686 23.1402 101.871 22.9261 102.017 22.7443C102.163 22.5606 102.271 22.3883 102.341 22.2273C102.413 22.0644 102.449 21.8939 102.449 21.7159C102.449 21.5114 102.4 21.3343 102.301 21.1847C102.205 21.035 102.072 20.9195 101.903 20.8381C101.735 20.7566 101.545 20.7159 101.335 20.7159C101.112 20.7159 100.917 20.7623 100.75 20.8551C100.585 20.946 100.457 21.0739 100.366 21.2386C100.277 21.4034 100.233 21.5966 100.233 21.8182H99.5625C99.5625 21.4773 99.6411 21.178 99.7983 20.9205C99.9555 20.6629 100.17 20.4621 100.44 20.3182C100.713 20.1742 101.019 20.1023 101.358 20.1023C101.699 20.1023 102.001 20.1742 102.264 20.3182C102.527 20.4621 102.734 20.6562 102.884 20.9006C103.033 21.1449 103.108 21.4167 103.108 21.7159C103.108 21.9299 103.069 22.1392 102.991 22.3438C102.916 22.5464 102.783 22.7727 102.594 23.0227C102.406 23.2708 102.146 23.5739 101.812 23.9318L100.506 25.3295V25.375H103.21V26H99.5398Z" fill="black"/>
<path d="M99.4585 138.102C99.6971 138.104 99.9357 138.15 100.174 138.239C100.413 138.328 100.631 138.475 100.828 138.682C101.025 138.886 101.183 139.166 101.302 139.52C101.422 139.874 101.481 140.318 101.481 140.852C101.481 141.369 101.432 141.829 101.333 142.23C101.237 142.63 101.097 142.967 100.913 143.241C100.731 143.516 100.51 143.724 100.248 143.866C99.9888 144.009 99.6952 144.08 99.3675 144.08C99.0418 144.08 98.7511 144.015 98.4954 143.886C98.2416 143.756 98.0333 143.575 97.8704 143.344C97.7094 143.111 97.6062 142.841 97.5607 142.534H98.2539C98.3164 142.801 98.4405 143.022 98.6261 143.196C98.8136 143.368 99.0607 143.455 99.3675 143.455C99.8164 143.455 100.171 143.259 100.43 142.866C100.691 142.474 100.822 141.92 100.822 141.205H100.777C100.671 141.364 100.545 141.501 100.399 141.616C100.253 141.732 100.091 141.821 99.913 141.884C99.735 141.946 99.5456 141.977 99.3448 141.977C99.0115 141.977 98.7056 141.895 98.4272 141.73C98.1507 141.563 97.9291 141.335 97.7624 141.045C97.5977 140.754 97.5153 140.42 97.5153 140.045C97.5153 139.689 97.5948 139.364 97.7539 139.068C97.9149 138.771 98.1403 138.534 98.43 138.358C98.7217 138.182 99.0645 138.097 99.4585 138.102ZM99.4585 138.727C99.2198 138.727 99.0049 138.787 98.8136 138.906C98.6242 139.024 98.4736 139.183 98.3619 139.384C98.252 139.582 98.1971 139.803 98.1971 140.045C98.1971 140.288 98.2501 140.509 98.3562 140.707C98.4641 140.904 98.6109 141.062 98.7965 141.179C98.984 141.295 99.1971 141.352 99.4357 141.352C99.6156 141.352 99.7833 141.317 99.9386 141.247C100.094 141.175 100.229 141.078 100.345 140.955C100.462 140.83 100.554 140.688 100.62 140.531C100.687 140.372 100.72 140.206 100.72 140.034C100.72 139.807 100.665 139.594 100.555 139.395C100.447 139.196 100.297 139.035 100.106 138.912C99.9168 138.789 99.7009 138.727 99.4585 138.727Z" fill="black"/>
<path d="M97.7923 37.1818V43H97.0877V37.9205H97.0536L95.6332 38.8636V38.1477L97.0877 37.1818H97.7923ZM101.318 37.1023C101.556 37.1042 101.795 37.1496 102.034 37.2386C102.272 37.3277 102.49 37.4754 102.687 37.6818C102.884 37.8864 103.042 38.1657 103.162 38.5199C103.281 38.8741 103.341 39.3182 103.341 39.8523C103.341 40.3693 103.291 40.8286 103.193 41.2301C103.096 41.6297 102.956 41.9669 102.772 42.2415C102.591 42.5161 102.369 42.7244 102.108 42.8665C101.848 43.0085 101.555 43.0795 101.227 43.0795C100.901 43.0795 100.61 43.0152 100.355 42.8864C100.101 42.7557 99.8926 42.5748 99.7298 42.3438C99.5688 42.1108 99.4656 41.8409 99.4201 41.5341H100.113C100.176 41.8011 100.3 42.0218 100.485 42.196C100.673 42.3684 100.92 42.4545 101.227 42.4545C101.676 42.4545 102.03 42.2585 102.289 41.8665C102.551 41.4744 102.681 40.9205 102.681 40.2045H102.636C102.53 40.3636 102.404 40.5009 102.258 40.6165C102.112 40.732 101.95 40.821 101.772 40.8835C101.594 40.946 101.405 40.9773 101.204 40.9773C100.871 40.9773 100.565 40.8949 100.287 40.7301C100.01 40.5634 99.7885 40.3352 99.6218 40.0455C99.457 39.7538 99.3746 39.4205 99.3746 39.0455C99.3746 38.6894 99.4542 38.3636 99.6133 38.0682C99.7743 37.7708 99.9996 37.5341 100.289 37.358C100.581 37.1818 100.924 37.0966 101.318 37.1023ZM101.318 37.7273C101.079 37.7273 100.864 37.7869 100.673 37.9062C100.484 38.0237 100.333 38.1828 100.221 38.3835C100.111 38.5824 100.056 38.803 100.056 39.0455C100.056 39.2879 100.109 39.5085 100.216 39.7074C100.324 39.9044 100.47 40.0616 100.656 40.179C100.843 40.2945 101.056 40.3523 101.295 40.3523C101.475 40.3523 101.643 40.3172 101.798 40.2472C101.953 40.1752 102.089 40.0777 102.204 39.9545C102.322 39.8295 102.413 39.6884 102.48 39.5312C102.546 39.3722 102.579 39.2064 102.579 39.0341C102.579 38.8068 102.524 38.5937 102.414 38.3949C102.306 38.196 102.157 38.035 101.966 37.9119C101.776 37.7888 101.56 37.7273 101.318 37.7273Z" fill="black"/>
<path d="M97.7923 155.182V161H97.0877V155.92H97.0536L95.6332 156.864V156.148L97.0877 155.182H97.7923ZM101.397 161.08C101.159 161.076 100.92 161.03 100.681 160.943C100.443 160.856 100.225 160.709 100.028 160.503C99.8311 160.295 99.6729 160.013 99.5536 159.659C99.4343 159.303 99.3746 158.856 99.3746 158.318C99.3746 157.803 99.4229 157.347 99.5195 156.949C99.6161 156.549 99.7563 156.213 99.94 155.94C100.124 155.666 100.345 155.457 100.605 155.315C100.866 155.173 101.161 155.102 101.488 155.102C101.814 155.102 102.104 155.168 102.358 155.298C102.613 155.427 102.822 155.607 102.983 155.838C103.144 156.069 103.248 156.335 103.295 156.636H102.602C102.538 156.375 102.413 156.158 102.227 155.986C102.041 155.813 101.795 155.727 101.488 155.727C101.038 155.727 100.682 155.923 100.423 156.315C100.165 156.707 100.036 157.258 100.034 157.966H100.079C100.185 157.805 100.311 157.668 100.457 157.554C100.605 157.438 100.768 157.349 100.946 157.287C101.124 157.224 101.312 157.193 101.511 157.193C101.844 157.193 102.149 157.277 102.426 157.443C102.702 157.608 102.924 157.836 103.091 158.128C103.257 158.418 103.341 158.75 103.341 159.125C103.341 159.485 103.26 159.814 103.099 160.114C102.938 160.411 102.712 160.648 102.42 160.824C102.13 160.998 101.789 161.083 101.397 161.08ZM101.397 160.455C101.636 160.455 101.85 160.395 102.039 160.276C102.231 160.156 102.381 159.996 102.491 159.795C102.603 159.595 102.659 159.371 102.659 159.125C102.659 158.884 102.605 158.666 102.497 158.469C102.391 158.27 102.244 158.112 102.056 157.994C101.871 157.877 101.659 157.818 101.42 157.818C101.24 157.818 101.073 157.854 100.917 157.926C100.762 157.996 100.626 158.093 100.508 158.216C100.393 158.339 100.302 158.48 100.235 158.639C100.169 158.796 100.136 158.962 100.136 159.136C100.136 159.367 100.19 159.583 100.298 159.784C100.408 159.985 100.557 160.147 100.747 160.27C100.938 160.393 101.155 160.455 101.397 160.455Z" fill="black"/>
<path d="M94.6843 60V59.4886L96.6048 57.3864C96.8301 57.1402 97.0157 56.9261 97.1616 56.7443C97.3074 56.5606 97.4154 56.3883 97.4854 56.2273C97.5574 56.0644 97.5934 55.8939 97.5934 55.7159C97.5934 55.5114 97.5442 55.3343 97.4457 55.1847C97.3491 55.035 97.2165 54.9195 97.0479 54.8381C96.8794 54.7566 96.69 54.7159 96.4798 54.7159C96.2563 54.7159 96.0612 54.7623 95.8945 54.8551C95.7298 54.946 95.6019 55.0739 95.511 55.2386C95.422 55.4034 95.3775 55.5966 95.3775 55.8182H94.707C94.707 55.4773 94.7856 55.178 94.9428 54.9205C95.1 54.6629 95.314 54.4621 95.5849 54.3182C95.8576 54.1742 96.1635 54.1023 96.5025 54.1023C96.8434 54.1023 97.1455 54.1742 97.4087 54.3182C97.672 54.4621 97.8784 54.6562 98.0281 54.9006C98.1777 55.1449 98.2525 55.4167 98.2525 55.7159C98.2525 55.9299 98.2137 56.1392 98.136 56.3438C98.0603 56.5464 97.9277 56.7727 97.7383 57.0227C97.5508 57.2708 97.2904 57.5739 96.957 57.9318L95.6502 59.3295V59.375H98.3548V60H94.6843ZM101.46 60.0795C101.221 60.0758 100.983 60.0303 100.744 59.9432C100.505 59.8561 100.288 59.7093 100.091 59.5028C99.8936 59.2945 99.7354 59.0133 99.6161 58.6591C99.4968 58.303 99.4371 57.8561 99.4371 57.3182C99.4371 56.803 99.4854 56.3466 99.582 55.9489C99.6786 55.5492 99.8188 55.2131 100.002 54.9403C100.186 54.6657 100.408 54.4574 100.667 54.3153C100.929 54.1733 101.223 54.1023 101.551 54.1023C101.877 54.1023 102.166 54.1676 102.42 54.2983C102.676 54.4271 102.884 54.607 103.045 54.8381C103.206 55.0691 103.31 55.3352 103.358 55.6364H102.664C102.6 55.375 102.475 55.1581 102.289 54.9858C102.104 54.8134 101.858 54.7273 101.551 54.7273C101.1 54.7273 100.745 54.9233 100.485 55.3153C100.228 55.7074 100.098 56.2576 100.096 56.9659H100.142C100.248 56.8049 100.374 56.6676 100.52 56.554C100.667 56.4384 100.83 56.3494 101.008 56.2869C101.186 56.2244 101.375 56.1932 101.574 56.1932C101.907 56.1932 102.212 56.2765 102.488 56.4432C102.765 56.608 102.986 56.8362 103.153 57.1278C103.32 57.4176 103.403 57.75 103.403 58.125C103.403 58.4848 103.323 58.8144 103.162 59.1136C103.001 59.411 102.774 59.6477 102.483 59.8239C102.193 59.9981 101.852 60.0833 101.46 60.0795ZM101.46 59.4545C101.699 59.4545 101.913 59.3949 102.102 59.2756C102.293 59.1562 102.444 58.9962 102.554 58.7955C102.665 58.5947 102.721 58.3712 102.721 58.125C102.721 57.8845 102.667 57.6657 102.559 57.4688C102.453 57.2699 102.306 57.1117 102.119 56.9943C101.933 56.8769 101.721 56.8182 101.483 56.8182C101.303 56.8182 101.135 56.8542 100.98 56.9261C100.824 56.9962 100.688 57.0928 100.571 57.2159C100.455 57.339 100.364 57.4801 100.298 57.6392C100.232 57.7964 100.199 57.9621 100.199 58.1364C100.199 58.3674 100.252 58.5833 100.36 58.7841C100.47 58.9848 100.62 59.1468 100.809 59.2699C101.001 59.393 101.217 59.4545 101.46 59.4545Z" fill="black"/>
<path d="M117.011 111.11C116.483 111.11 116.029 110.991 115.648 110.751C115.269 110.51 114.978 110.177 114.774 109.754C114.571 109.33 114.469 108.844 114.469 108.298C114.469 107.744 114.573 107.255 114.781 106.831C114.99 106.405 115.283 106.072 115.662 105.833C116.041 105.594 116.487 105.474 117.001 105.474C117.415 105.474 117.784 105.551 118.109 105.705C118.433 105.857 118.695 106.07 118.893 106.344C119.095 106.619 119.214 106.94 119.252 107.307H118.219C118.162 107.051 118.032 106.831 117.828 106.646C117.627 106.462 117.357 106.369 117.018 106.369C116.723 106.369 116.463 106.447 116.241 106.604C116.021 106.758 115.849 106.978 115.726 107.264C115.603 107.548 115.541 107.884 115.541 108.273C115.541 108.67 115.602 109.014 115.722 109.303C115.843 109.591 116.013 109.815 116.234 109.974C116.456 110.132 116.718 110.212 117.018 110.212C117.22 110.212 117.402 110.175 117.565 110.102C117.731 110.026 117.87 109.918 117.981 109.778C118.094 109.639 118.174 109.471 118.219 109.274H119.252C119.214 109.627 119.099 109.942 118.908 110.219C118.716 110.496 118.459 110.714 118.137 110.872C117.817 111.031 117.442 111.11 117.011 111.11Z" fill="black"/>
<path d="M115.538 9.07955C115.299 9.07576 115.061 9.0303 114.822 8.94318C114.583 8.85606 114.366 8.70928 114.169 8.50284C113.972 8.29451 113.814 8.01326 113.694 7.65909C113.575 7.30303 113.515 6.85606 113.515 6.31818C113.515 5.80303 113.564 5.34659 113.66 4.94886C113.757 4.54924 113.897 4.21307 114.081 3.94034C114.264 3.66572 114.486 3.45739 114.745 3.31534C115.007 3.1733 115.301 3.10227 115.629 3.10227C115.955 3.10227 116.244 3.16761 116.498 3.2983C116.754 3.42708 116.962 3.60701 117.123 3.83807C117.284 4.06913 117.388 4.33523 117.436 4.63636H116.743C116.678 4.375 116.553 4.15814 116.368 3.9858C116.182 3.81345 115.936 3.72727 115.629 3.72727C115.178 3.72727 114.823 3.9233 114.564 4.31534C114.306 4.70739 114.176 5.25758 114.174 5.96591H114.22C114.326 5.80492 114.452 5.66761 114.598 5.55398C114.745 5.43845 114.908 5.34943 115.086 5.28693C115.264 5.22443 115.453 5.19318 115.652 5.19318C115.985 5.19318 116.29 5.27652 116.566 5.44318C116.843 5.60795 117.065 5.83617 117.231 6.12784C117.398 6.41761 117.481 6.75 117.481 7.125C117.481 7.48485 117.401 7.81439 117.24 8.11364C117.079 8.41098 116.852 8.64773 116.561 8.82386C116.271 8.99811 115.93 9.08333 115.538 9.07955ZM115.538 8.45455C115.777 8.45455 115.991 8.39489 116.18 8.27557C116.371 8.15625 116.522 7.99621 116.632 7.79545C116.743 7.5947 116.799 7.37121 116.799 7.125C116.799 6.88447 116.745 6.66572 116.637 6.46875C116.531 6.26989 116.385 6.11174 116.197 5.99432C116.011 5.87689 115.799 5.81818 115.561 5.81818C115.381 5.81818 115.213 5.85417 115.058 5.92614C114.903 5.99621 114.766 6.0928 114.649 6.21591C114.533 6.33902 114.442 6.48011 114.376 6.6392C114.31 6.7964 114.277 6.96212 114.277 7.13636C114.277 7.36742 114.331 7.58333 114.439 7.78409C114.548 7.98485 114.698 8.14678 114.887 8.26989C115.079 8.39299 115.296 8.45455 115.538 8.45455Z" fill="black"/>
<path d="M115.021 127.08C114.646 127.08 114.312 127.015 114.018 126.886C113.727 126.758 113.495 126.579 113.322 126.349C113.152 126.118 113.059 125.85 113.044 125.545H113.76C113.775 125.733 113.839 125.895 113.953 126.031C114.067 126.166 114.215 126.27 114.399 126.344C114.583 126.418 114.786 126.455 115.01 126.455C115.26 126.455 115.482 126.411 115.675 126.324C115.868 126.237 116.019 126.116 116.129 125.96C116.239 125.805 116.294 125.625 116.294 125.42C116.294 125.206 116.241 125.018 116.135 124.855C116.029 124.69 115.874 124.562 115.669 124.469C115.464 124.376 115.214 124.33 114.919 124.33H114.453V123.705H114.919C115.15 123.705 115.353 123.663 115.527 123.58C115.703 123.496 115.84 123.379 115.939 123.227C116.039 123.076 116.089 122.898 116.089 122.693C116.089 122.496 116.046 122.325 115.959 122.179C115.872 122.033 115.749 121.92 115.589 121.838C115.432 121.757 115.247 121.716 115.033 121.716C114.832 121.716 114.643 121.753 114.464 121.827C114.288 121.899 114.144 122.004 114.033 122.142C113.921 122.278 113.86 122.443 113.851 122.636H113.169C113.18 122.331 113.272 122.064 113.445 121.835C113.617 121.604 113.842 121.424 114.121 121.295C114.401 121.167 114.709 121.102 115.044 121.102C115.404 121.102 115.713 121.175 115.97 121.321C116.228 121.465 116.426 121.655 116.564 121.892C116.702 122.129 116.771 122.384 116.771 122.659C116.771 122.987 116.685 123.266 116.513 123.497C116.342 123.728 116.11 123.888 115.817 123.977V124.023C116.184 124.083 116.471 124.24 116.678 124.491C116.884 124.741 116.987 125.051 116.987 125.42C116.987 125.737 116.901 126.021 116.729 126.273C116.558 126.523 116.325 126.72 116.03 126.864C115.734 127.008 115.398 127.08 115.021 127.08Z" fill="black"/>
<path d="M113.741 20.1818V26H113.037V20.9205H113.003L111.582 21.8636V21.1477L113.037 20.1818H113.741ZM117.381 26.0795C117.006 26.0795 116.671 26.0152 116.378 25.8864C116.086 25.7576 115.854 25.5786 115.682 25.3494C115.511 25.1184 115.419 24.8504 115.403 24.5455H116.119C116.134 24.733 116.199 24.8949 116.312 25.0312C116.426 25.1657 116.575 25.2699 116.759 25.3438C116.942 25.4176 117.146 25.4545 117.369 25.4545C117.619 25.4545 117.841 25.411 118.034 25.3239C118.227 25.2367 118.379 25.1155 118.489 24.9602C118.598 24.8049 118.653 24.625 118.653 24.4205C118.653 24.2064 118.6 24.018 118.494 23.8551C118.388 23.6903 118.233 23.5616 118.028 23.4688C117.824 23.3759 117.574 23.3295 117.278 23.3295H116.812V22.7045H117.278C117.509 22.7045 117.712 22.6629 117.886 22.5795C118.063 22.4962 118.2 22.3788 118.298 22.2273C118.399 22.0758 118.449 21.8977 118.449 21.6932C118.449 21.4962 118.405 21.3248 118.318 21.179C118.231 21.0331 118.108 20.9195 117.949 20.8381C117.792 20.7566 117.606 20.7159 117.392 20.7159C117.191 20.7159 117.002 20.7528 116.824 20.8267C116.648 20.8987 116.504 21.0038 116.392 21.142C116.28 21.2784 116.22 21.4432 116.21 21.6364H115.528C115.54 21.3314 115.632 21.0644 115.804 20.8352C115.976 20.6042 116.202 20.4242 116.48 20.2955C116.76 20.1667 117.068 20.1023 117.403 20.1023C117.763 20.1023 118.072 20.1752 118.33 20.321C118.587 20.465 118.785 20.6553 118.923 20.892C119.062 21.1288 119.131 21.3845 119.131 21.6591C119.131 21.9867 119.045 22.2661 118.872 22.4972C118.702 22.7282 118.47 22.8883 118.176 22.9773V23.0227C118.544 23.0833 118.83 23.2396 119.037 23.4915C119.243 23.7415 119.347 24.0511 119.347 24.4205C119.347 24.7367 119.26 25.0208 119.088 25.2727C118.918 25.5227 118.685 25.7197 118.389 25.8636C118.094 26.0076 117.758 26.0795 117.381 26.0795Z" fill="black"/>
<path d="M113.788 138.182V144H113.084V138.92H113.05L111.629 139.864V139.148L113.084 138.182H113.788ZM117.359 144.08C116.931 144.08 116.567 143.963 116.266 143.73C115.964 143.495 115.734 143.155 115.575 142.71C115.416 142.263 115.337 141.723 115.337 141.091C115.337 140.462 115.416 139.925 115.575 139.48C115.736 139.033 115.967 138.692 116.268 138.457C116.571 138.221 116.935 138.102 117.359 138.102C117.784 138.102 118.146 138.221 118.447 138.457C118.75 138.692 118.982 139.033 119.141 139.48C119.302 139.925 119.382 140.462 119.382 141.091C119.382 141.723 119.303 142.263 119.143 142.71C118.984 143.155 118.754 143.495 118.453 143.73C118.152 143.963 117.787 144.08 117.359 144.08ZM117.359 143.455C117.784 143.455 118.113 143.25 118.348 142.841C118.583 142.432 118.7 141.848 118.7 141.091C118.7 140.587 118.646 140.158 118.538 139.804C118.432 139.45 118.279 139.18 118.078 138.994C117.879 138.809 117.64 138.716 117.359 138.716C116.939 138.716 116.61 138.923 116.374 139.338C116.137 139.751 116.018 140.335 116.018 141.091C116.018 141.595 116.071 142.023 116.178 142.375C116.284 142.727 116.436 142.995 116.635 143.179C116.836 143.363 117.077 143.455 117.359 143.455Z" fill="black"/>
<path d="M110.68 43V42.4886L112.601 40.3864C112.826 40.1402 113.012 39.9261 113.158 39.7443C113.304 39.5606 113.411 39.3883 113.482 39.2273C113.554 39.0644 113.589 38.8939 113.589 38.7159C113.589 38.5114 113.54 38.3343 113.442 38.1847C113.345 38.035 113.213 37.9195 113.044 37.8381C112.875 37.7566 112.686 37.7159 112.476 37.7159C112.252 37.7159 112.057 37.7623 111.891 37.8551C111.726 37.946 111.598 38.0739 111.507 38.2386C111.418 38.4034 111.374 38.5966 111.374 38.8182H110.703C110.703 38.4773 110.782 38.178 110.939 37.9205C111.096 37.6629 111.31 37.4621 111.581 37.3182C111.854 37.1742 112.16 37.1023 112.499 37.1023C112.839 37.1023 113.142 37.1742 113.405 37.3182C113.668 37.4621 113.875 37.6562 114.024 37.9006C114.174 38.1449 114.249 38.4167 114.249 38.7159C114.249 38.9299 114.21 39.1392 114.132 39.3438C114.056 39.5464 113.924 39.7727 113.734 40.0227C113.547 40.2708 113.286 40.5739 112.953 40.9318L111.646 42.3295V42.375H114.351V43H110.68ZM117.422 43.0795C116.994 43.0795 116.629 42.9631 116.328 42.7301C116.027 42.4953 115.797 42.1553 115.638 41.7102C115.479 41.2633 115.399 40.7235 115.399 40.0909C115.399 39.4621 115.479 38.9252 115.638 38.4801C115.799 38.0331 116.03 37.6922 116.331 37.4574C116.634 37.2206 116.998 37.1023 117.422 37.1023C117.846 37.1023 118.209 37.2206 118.51 37.4574C118.813 37.6922 119.044 38.0331 119.203 38.4801C119.364 38.9252 119.445 39.4621 119.445 40.0909C119.445 40.7235 119.365 41.2633 119.206 41.7102C119.047 42.1553 118.817 42.4953 118.516 42.7301C118.214 42.9631 117.85 43.0795 117.422 43.0795ZM117.422 42.4545C117.846 42.4545 118.176 42.25 118.411 41.8409C118.645 41.4318 118.763 40.8485 118.763 40.0909C118.763 39.5871 118.709 39.1581 118.601 38.804C118.495 38.4498 118.341 38.1799 118.141 37.9943C117.942 37.8087 117.702 37.7159 117.422 37.7159C117.001 37.7159 116.673 37.9233 116.436 38.3381C116.199 38.7509 116.081 39.3352 116.081 40.0909C116.081 40.5947 116.134 41.0227 116.24 41.375C116.346 41.7273 116.499 41.9953 116.697 42.179C116.898 42.3627 117.14 42.4545 117.422 42.4545Z" fill="black"/>
<path d="M114.003 155.182V161H113.299V155.92H113.265L111.844 156.864V156.148L113.299 155.182H114.003ZM115.858 161L118.461 155.852V155.807H115.461V155.182H119.188V155.841L116.597 161H115.858Z" fill="black"/>
<path d="M110.895 60V59.4886L112.816 57.3864C113.041 57.1402 113.227 56.9261 113.373 56.7443C113.518 56.5606 113.626 56.3883 113.696 56.2273C113.768 56.0644 113.804 55.8939 113.804 55.7159C113.804 55.5114 113.755 55.3343 113.657 55.1847C113.56 55.035 113.427 54.9195 113.259 54.8381C113.09 54.7566 112.901 54.7159 112.691 54.7159C112.467 54.7159 112.272 54.7623 112.105 54.8551C111.941 54.946 111.813 55.0739 111.722 55.2386C111.633 55.4034 111.588 55.5966 111.588 55.8182H110.918C110.918 55.4773 110.997 55.178 111.154 54.9205C111.311 54.6629 111.525 54.4621 111.796 54.3182C112.069 54.1742 112.374 54.1023 112.713 54.1023C113.054 54.1023 113.356 54.1742 113.62 54.3182C113.883 54.4621 114.089 54.6562 114.239 54.9006C114.389 55.1449 114.463 55.4167 114.463 55.7159C114.463 55.9299 114.425 56.1392 114.347 56.3438C114.271 56.5464 114.139 56.7727 113.949 57.0227C113.762 57.2708 113.501 57.5739 113.168 57.9318L111.861 59.3295V59.375H114.566V60H110.895ZM115.921 60L118.523 54.8523V54.8068H115.523V54.1818H119.25V54.8409L116.659 60H115.921Z" fill="black"/>
<path d="M131.714 111V105.545H133.976C134.591 105.545 135.079 105.677 135.439 105.94C135.799 106.2 135.979 106.554 135.979 107.001C135.979 107.321 135.877 107.574 135.673 107.761C135.47 107.948 135.2 108.074 134.864 108.138C135.107 108.166 135.331 108.24 135.535 108.358C135.738 108.474 135.902 108.63 136.025 108.827C136.15 109.023 136.213 109.258 136.213 109.53C136.213 109.819 136.138 110.074 135.989 110.297C135.84 110.517 135.624 110.69 135.339 110.815C135.058 110.938 134.718 111 134.32 111H131.714ZM132.712 110.112H134.32C134.583 110.112 134.789 110.049 134.938 109.924C135.087 109.799 135.162 109.628 135.162 109.413C135.162 109.159 135.087 108.96 134.938 108.816C134.789 108.669 134.583 108.596 134.32 108.596H132.712V110.112ZM132.712 107.818H133.987C134.185 107.818 134.356 107.79 134.498 107.733C134.642 107.676 134.752 107.596 134.828 107.491C134.906 107.385 134.945 107.259 134.945 107.115C134.945 106.904 134.859 106.74 134.686 106.621C134.513 106.503 134.277 106.444 133.976 106.444H132.712V107.818Z" fill="#FF0000"/>
<path d="M130.999 9L133.601 3.85227V3.80682H130.601V3.18182H134.328V3.84091L131.738 9H130.999Z" fill="#FF0000"/>
<path d="M129.9 125.807V125.227L132.456 121.182H132.877V122.08H132.593L130.661 125.136V125.182H134.104V125.807H129.9ZM132.638 127V125.631V125.361V121.182H133.309V127H132.638Z" fill="#FF0000"/>
<path d="M130.722 20.1818V26H130.017V20.9205H129.983L128.563 21.8636V21.1477L130.017 20.1818H130.722ZM132.259 24.8068V24.2273L134.816 20.1818H135.236V21.0795H134.952L133.02 24.1364V24.1818H136.463V24.8068H132.259ZM134.998 26V24.6307V24.3608V20.1818H135.668V26H134.998Z" fill="#FF0000"/>
<path d="M130.929 138.182V144H130.224V138.92H130.19L128.77 139.864V139.148L130.224 138.182H130.929ZM134.648 138.182V144H133.943V138.92H133.909L132.489 139.864V139.148L133.943 138.182H134.648Z" fill="#FF0000"/>
<path d="M128.821 43V42.4886L130.741 40.3864C130.967 40.1402 131.152 39.9261 131.298 39.7443C131.444 39.5606 131.552 39.3883 131.622 39.2273C131.694 39.0644 131.73 38.8939 131.73 38.7159C131.73 38.5114 131.681 38.3343 131.582 38.1847C131.486 38.035 131.353 37.9195 131.185 37.8381C131.016 37.7566 130.827 37.7159 130.616 37.7159C130.393 37.7159 130.198 37.7623 130.031 37.8551C129.866 37.946 129.739 38.0739 129.648 38.2386C129.559 38.4034 129.514 38.5966 129.514 38.8182H128.844C128.844 38.4773 128.922 38.178 129.08 37.9205C129.237 37.6629 129.451 37.4621 129.722 37.3182C129.994 37.1742 130.3 37.1023 130.639 37.1023C130.98 37.1023 131.282 37.1742 131.545 37.3182C131.809 37.4621 132.015 37.6562 132.165 37.9006C132.314 38.1449 132.389 38.4167 132.389 38.7159C132.389 38.9299 132.35 39.1392 132.273 39.3438C132.197 39.5464 132.064 39.7727 131.875 40.0227C131.688 40.2708 131.427 40.5739 131.094 40.9318L129.787 42.3295V42.375H132.491V43H128.821ZM135.71 37.1818V43H135.006V37.9205H134.972L133.551 38.8636V38.1477L135.006 37.1818H135.71Z" fill="#FF0000"/>
<path d="M130.824 155.182V161H130.119V155.92H130.085L128.664 156.864V156.148L130.119 155.182H130.824ZM134.36 161.08C133.97 161.08 133.626 161.01 133.326 160.872C133.029 160.732 132.797 160.54 132.63 160.295C132.464 160.049 132.381 159.769 132.383 159.455C132.381 159.208 132.43 158.981 132.528 158.773C132.627 158.562 132.761 158.387 132.931 158.247C133.104 158.105 133.296 158.015 133.508 157.977V157.943C133.23 157.871 133.008 157.715 132.843 157.474C132.679 157.232 132.597 156.956 132.599 156.648C132.597 156.352 132.672 156.088 132.824 155.855C132.975 155.622 133.183 155.438 133.449 155.304C133.716 155.17 134.02 155.102 134.36 155.102C134.698 155.102 134.999 155.17 135.264 155.304C135.529 155.438 135.737 155.622 135.889 155.855C136.042 156.088 136.12 156.352 136.122 156.648C136.12 156.956 136.036 157.232 135.869 157.474C135.704 157.715 135.485 157.871 135.213 157.943V157.977C135.423 158.015 135.612 158.105 135.781 158.247C135.949 158.387 136.084 158.562 136.184 158.773C136.285 158.981 136.336 159.208 136.338 159.455C136.336 159.769 136.251 160.049 136.082 160.295C135.915 160.54 135.683 160.732 135.386 160.872C135.091 161.01 134.749 161.08 134.36 161.08ZM134.36 160.455C134.624 160.455 134.851 160.412 135.042 160.327C135.234 160.241 135.381 160.121 135.485 159.966C135.59 159.811 135.643 159.629 135.645 159.42C135.643 159.201 135.586 159.007 135.474 158.838C135.362 158.67 135.21 158.537 135.017 158.44C134.825 158.344 134.607 158.295 134.36 158.295C134.112 158.295 133.891 158.344 133.696 158.44C133.502 158.537 133.35 158.67 133.238 158.838C133.128 159.007 133.074 159.201 133.076 159.42C133.074 159.629 133.125 159.811 133.227 159.966C133.331 160.121 133.48 160.241 133.673 160.327C133.866 160.412 134.095 160.455 134.36 160.455ZM134.36 157.693C134.569 157.693 134.753 157.652 134.914 157.568C135.077 157.485 135.205 157.368 135.298 157.219C135.391 157.069 135.438 156.894 135.44 156.693C135.438 156.496 135.392 156.325 135.301 156.179C135.21 156.031 135.084 155.918 134.923 155.838C134.762 155.757 134.574 155.716 134.36 155.716C134.143 155.716 133.952 155.757 133.789 155.838C133.627 155.918 133.501 156.031 133.412 156.179C133.323 156.325 133.279 156.496 133.281 156.693C133.279 156.894 133.324 157.069 133.414 157.219C133.507 157.368 133.635 157.485 133.798 157.568C133.961 157.652 134.148 157.693 134.36 157.693Z" fill="#FF0000"/>
<path d="M127.716 60V59.4886L129.636 57.3864C129.861 57.1402 130.047 56.9261 130.193 56.7443C130.339 56.5606 130.447 56.3883 130.517 56.2273C130.589 56.0644 130.625 55.8939 130.625 55.7159C130.625 55.5114 130.575 55.3343 130.477 55.1847C130.38 55.035 130.248 54.9195 130.079 54.8381C129.911 54.7566 129.721 54.7159 129.511 54.7159C129.288 54.7159 129.092 54.7623 128.926 54.8551C128.761 54.946 128.633 55.0739 128.542 55.2386C128.453 55.4034 128.409 55.5966 128.409 55.8182H127.738C127.738 55.4773 127.817 55.178 127.974 54.9205C128.131 54.6629 128.345 54.4621 128.616 54.3182C128.889 54.1742 129.195 54.1023 129.534 54.1023C129.875 54.1023 130.177 54.1742 130.44 54.3182C130.703 54.4621 130.91 54.6562 131.059 54.9006C131.209 55.1449 131.284 55.4167 131.284 55.7159C131.284 55.9299 131.245 56.1392 131.167 56.3438C131.092 56.5464 130.959 56.7727 130.77 57.0227C130.582 57.2708 130.322 57.5739 129.988 57.9318L128.681 59.3295V59.375H131.386V60H127.716ZM134.423 60.0795C134.033 60.0795 133.688 60.0104 133.389 59.8722C133.092 59.732 132.859 59.5398 132.693 59.2955C132.526 59.0492 132.444 58.7689 132.446 58.4545C132.444 58.2083 132.492 57.9811 132.591 57.7727C132.689 57.5625 132.824 57.3873 132.994 57.2472C133.166 57.1051 133.359 57.0152 133.571 56.9773V56.9432C133.292 56.8712 133.071 56.715 132.906 56.4744C132.741 56.232 132.66 55.9564 132.662 55.6477C132.66 55.3523 132.734 55.0881 132.886 54.8551C133.038 54.6222 133.246 54.4384 133.511 54.304C133.778 54.1695 134.082 54.1023 134.423 54.1023C134.76 54.1023 135.061 54.1695 135.326 54.304C135.592 54.4384 135.8 54.6222 135.951 54.8551C136.105 55.0881 136.182 55.3523 136.184 55.6477C136.182 55.9564 136.098 56.232 135.931 56.4744C135.767 56.715 135.548 56.8712 135.275 56.9432V56.9773C135.485 57.0152 135.675 57.1051 135.843 57.2472C136.012 57.3873 136.146 57.5625 136.247 57.7727C136.347 57.9811 136.398 58.2083 136.4 58.4545C136.398 58.7689 136.313 59.0492 136.145 59.2955C135.978 59.5398 135.746 59.732 135.449 59.8722C135.153 60.0104 134.811 60.0795 134.423 60.0795ZM134.423 59.4545C134.686 59.4545 134.913 59.4119 135.105 59.3267C135.296 59.2415 135.444 59.1212 135.548 58.9659C135.652 58.8106 135.705 58.6288 135.707 58.4205C135.705 58.2008 135.648 58.0066 135.537 57.8381C135.425 57.6695 135.272 57.5369 135.079 57.4403C134.888 57.3437 134.669 57.2955 134.423 57.2955C134.175 57.2955 133.953 57.3437 133.758 57.4403C133.565 57.5369 133.413 57.6695 133.301 57.8381C133.191 58.0066 133.137 58.2008 133.139 58.4205C133.137 58.6288 133.187 58.8106 133.289 58.9659C133.394 59.1212 133.542 59.2415 133.735 59.3267C133.929 59.4119 134.158 59.4545 134.423 59.4545ZM134.423 56.6932C134.631 56.6932 134.816 56.6515 134.977 56.5682C135.14 56.4848 135.268 56.3684 135.36 56.2188C135.453 56.0691 135.501 55.8939 135.502 55.6932C135.501 55.4962 135.454 55.3248 135.363 55.179C135.272 55.0312 135.146 54.9176 134.985 54.8381C134.824 54.7566 134.637 54.7159 134.423 54.7159C134.205 54.7159 134.015 54.7566 133.852 54.8381C133.689 54.9176 133.563 55.0312 133.474 55.179C133.385 55.3248 133.342 55.4962 133.343 55.6932C133.342 55.8939 133.386 56.0691 133.477 56.2188C133.57 56.3684 133.698 56.4848 133.86 56.5682C134.023 56.6515 134.211 56.6932 134.423 56.6932Z" fill="#FF0000"/>
<rect x="27" width="111" height="14" fill="url(#paint0_linear_514_164)"/>
<rect x="139" y="164" width="111" height="14" transform="rotate(-180 139 164)" fill="url(#paint1_linear_514_164)"/>
<defs>
<linearGradient id="paint0_linear_514_164" x1="82.5" y1="0" x2="82.5" y2="14" gradientUnits="userSpaceOnUse">
<stop offset="0.228" stop-color="white"/>
<stop offset="0.808" stop-color="white" stop-opacity="0.544888"/>
<stop offset="1" stop-color="white" stop-opacity="0"/>
</linearGradient>
<linearGradient id="paint1_linear_514_164" x1="194.5" y1="164" x2="194.5" y2="178" gradientUnits="userSpaceOnUse">
<stop offset="0.228" stop-color="white"/>
<stop offset="0.808" stop-color="white" stop-opacity="0.544888"/>
<stop offset="1" stop-color="white" stop-opacity="0"/>
</linearGradient>
</defs>
</svg>
