<svg width="24" height="20" viewBox="0 0 24 20" fill="none" xmlns="http://www.w3.org/2000/svg">
<path fill-rule="evenodd" clip-rule="evenodd" d="M1.64325 8.5759C8.08437 5.77861 12.3723 3.91989 14.5255 3.01813C20.6538 0.460081 21.942 0.0184032 22.7701 0C22.9542 0 23.359 0.0368067 23.6351 0.257645C23.8559 0.441677 23.9111 0.68092 23.9479 0.864952C23.9848 1.04898 24.0216 1.43545 23.9848 1.7299C23.6535 5.22651 22.218 13.7104 21.4819 17.6119C21.1691 19.2682 20.5618 19.8203 19.9729 19.8755C18.6846 19.9859 17.7093 19.0289 16.4762 18.2192C14.5255 16.9494 13.4397 16.158 11.5442 14.9066C9.3542 13.4712 10.7712 12.6798 12.0227 11.3916C12.3539 11.0603 18.0037 5.90743 18.1141 5.44735C18.1325 5.39214 18.1325 5.1713 18.0037 5.06088C17.8749 4.95047 17.6909 4.98727 17.5436 5.02408C17.3412 5.06089 14.2495 7.12205 8.2316 11.1892C7.34824 11.7965 6.55691 12.0909 5.83918 12.0725C5.04784 12.0541 3.53878 11.6308 2.39778 11.2628C1.01754 10.8211 -0.0866539 10.5819 0.00536217 9.80892C0.0605718 9.40404 0.612668 8.99917 1.64325 8.5759Z" fill="black"/>
</svg>
