<svg width="14" height="14" viewBox="0 0 14 14" fill="none" xmlns="http://www.w3.org/2000/svg">
<g clip-path="url(#clip0_392_57)">
<path opacity="0.96" d="M11.4284 6.39403H8.41898C7.28723 6.46997 6.66991 5.17602 6.33267 4.55639L4.56645 1.3033C4.40926 1.01171 4.05773 0.914508 3.78622 1.08157C3.51186 1.24863 3.42041 1.62223 3.57759 1.91078L4.90654 4.35592C5.39811 5.26107 4.78365 6.391 3.80051 6.391H2.57159C2.25722 6.391 2 6.66436 2 6.99848C2 7.3326 2.25722 7.60597 2.57159 7.60597H5.58102C7.00143 7.68798 7.47585 9.08823 7.81309 9.71091L9.43355 12.6967C9.59074 12.9883 9.94227 13.0855 10.2138 12.9184C10.4881 12.7514 10.5796 12.3778 10.4224 12.0892L9.09346 9.64408C8.60189 8.73893 8.51615 7.53003 10.1995 7.60901H11.4284C11.7428 7.60901 12 7.33564 12 7.00152C12 6.6674 11.7428 6.39403 11.4284 6.39403Z" fill="#2F90DD"/>
</g>
<defs>
<clipPath id="clip0_392_57">
<rect width="14" height="14" fill="white"/>
</clipPath>
</defs>
</svg>
