<svg width="19" height="15" viewBox="0 0 19 15" fill="none" xmlns="http://www.w3.org/2000/svg">
<g clip-path="url(#clip0_320_177)">
<path d="M18.711 7.49613C18.711 7.28705 18.6251 7.09345 18.4533 6.93082L11.7452 0.271038C11.5421 0.0696954 11.3547 0 11.1516 0C10.73 0 10.4019 0.309758 10.4019 0.727931C10.4019 0.929277 10.4722 1.12287 10.6128 1.26226L13.3461 4.01136L16.993 7.349L17.1726 6.9076L14.1035 6.74497H0.749691C0.312371 6.74497 0 7.05473 0 7.49613C0 7.92979 0.312371 8.2473 0.749691 8.2473H14.1035L17.1726 8.07689L16.993 7.64327L13.3461 10.9809L10.6128 13.7223C10.4801 13.8617 10.4019 14.063 10.4019 14.2644C10.4019 14.6825 10.73 14.9922 11.1516 14.9922C11.3547 14.9922 11.5343 14.9148 11.7061 14.76L18.4533 8.05366C18.6251 7.89882 18.711 7.70522 18.711 7.49613Z" fill="black"/>
</g>
<defs>
<clipPath id="clip0_320_177">
<rect width="19" height="15" fill="white"/>
</clipPath>
</defs>
</svg>
