<svg width="19" height="19" viewBox="0 0 19 19" fill="none" xmlns="http://www.w3.org/2000/svg">
<g clip-path="url(#clip0_320_208)">
<path d="M18.4863 13.877L18.4668 1.06445C18.4668 0.458984 18.0664 0.0390625 17.4414 0.0390625H4.61914C4.02344 0.0390625 3.61328 0.488281 3.61328 0.996094C3.61328 1.51367 4.07227 1.94336 4.58008 1.94336H9.64844L15.5762 1.77734L13.3105 3.80859L0.292969 16.8359C0.0976562 17.0312 0 17.2852 0 17.5098C0 18.0176 0.458984 18.5059 0.996094 18.5059C1.23047 18.5059 1.46484 18.4082 1.66016 18.2129L14.6875 5.18555L16.7383 2.91992L16.5527 8.36914V13.916C16.5527 14.4238 16.9824 14.8926 17.5098 14.8926C18.0371 14.8926 18.4863 14.4531 18.4863 13.877Z" fill="black" fill-opacity="0.85"/>
</g>
<defs>
<clipPath id="clip0_320_208">
<rect width="18.8477" height="18.5059" fill="white"/>
</clipPath>
</defs>
</svg>
