<svg width="164" height="164" viewBox="0 0 164 164" fill="none" xmlns="http://www.w3.org/2000/svg">
<rect width="164" height="164" fill="white"/>
<rect x="41" y="57" width="83" height="14" rx="7" fill="#9BD3FF"/>
<rect x="27" y="74" width="97" height="14" rx="7" fill="#9BD3FF"/>
<rect x="27" y="91" width="29" height="14" rx="7" fill="#9BD3FF"/>
<path d="M29.7138 51V45.5455H34.1634V51H33.1229V46.4616H30.7472V51H29.7138Z" fill="black"/>
<path d="M31.049 34.0043L33.0128 30.5455H34.5043V36H33.0625V32.5305L31.1058 36H29.6037V30.5455H31.049V34.0043ZM38.7319 32.701V33.9013H35.7738V32.701H38.7319ZM36.9421 30.5455V36H35.4329V30.5455H36.9421ZM40.3654 36.1065C39.8256 36.1065 39.3593 35.9858 38.9663 35.7443C38.5733 35.5028 38.2702 35.169 38.0572 34.7429C37.8465 34.3168 37.7411 33.8279 37.7411 33.2763C37.7411 32.7247 37.8465 32.2382 38.0572 31.8168C38.2702 31.3954 38.5733 31.0663 38.9663 30.8295C39.3593 30.5928 39.8256 30.4744 40.3654 30.4744C40.9076 30.4744 41.3739 30.5928 41.7646 30.8295C42.1576 31.0663 42.4594 31.3954 42.6701 31.8168C42.8832 32.2382 42.9897 32.7247 42.9897 33.2763C42.9897 33.8279 42.8832 34.3168 42.6701 34.7429C42.4594 35.169 42.1576 35.5028 41.7646 35.7443C41.3739 35.9858 40.9076 36.1065 40.3654 36.1065ZM40.3654 34.8849C40.6471 34.8849 40.8744 34.8163 41.0472 34.679C41.2201 34.5393 41.3467 34.3487 41.4272 34.1072C41.5077 33.8634 41.5479 33.5864 41.5479 33.2763C41.5479 32.9661 41.5077 32.6915 41.4272 32.4524C41.3467 32.2109 41.2201 32.0215 41.0472 31.8842C40.8744 31.7469 40.6471 31.6783 40.3654 31.6783C40.0861 31.6783 39.8588 31.7469 39.6836 31.8842C39.5084 32.0192 39.3794 32.2062 39.2965 32.4453C39.216 32.6844 39.1758 32.9614 39.1758 33.2763C39.1758 33.5888 39.216 33.8658 39.2965 34.1072C39.3794 34.3487 39.5084 34.5393 39.6836 34.679C39.8588 34.8163 40.0861 34.8849 40.3654 34.8849ZM43.6982 36L43.6911 34.7997H43.8722C44 34.7997 44.1101 34.7689 44.2024 34.7074C44.2971 34.6435 44.3752 34.5405 44.4368 34.3984C44.4983 34.2564 44.5469 34.0682 44.5824 33.8338C44.6179 33.5971 44.6416 33.3059 44.6534 32.9602L44.7422 30.5455H48.8899V36H47.4482V31.7351H46.1023L46.017 33.4006C45.9957 33.8575 45.9401 34.2505 45.8501 34.5795C45.7625 34.9086 45.6406 35.1785 45.4844 35.3892C45.3281 35.5975 45.1399 35.7514 44.9197 35.8509C44.6996 35.9503 44.4439 36 44.1527 36H43.6982ZM51.0108 32.2216H52.6408C53.3629 32.2216 53.9263 32.3944 54.3311 32.7401C54.736 33.0833 54.9384 33.5426 54.9384 34.1179C54.9384 34.492 54.8472 34.821 54.665 35.1051C54.4827 35.3868 54.2199 35.607 53.8766 35.7656C53.5333 35.9219 53.1214 36 52.6408 36H50.0627V30.5455H51.508V34.8104H52.6408C52.8941 34.8104 53.1025 34.7464 53.2658 34.6186C53.4292 34.4908 53.512 34.3274 53.5144 34.1286C53.512 33.9179 53.4292 33.7462 53.2658 33.6136C53.1025 33.4787 52.8941 33.4112 52.6408 33.4112H51.0108V32.2216Z" fill="#358FD7"/>
<path d="M32.7884 61.1818V67H32.0838V61.9205H32.0497L30.6293 62.8636V62.1477L32.0838 61.1818H32.7884Z" fill="black"/>
<path d="M32.5011 84.0795C32.1109 84.0795 31.7662 84.0104 31.467 83.8722C31.1696 83.732 30.9376 83.5398 30.771 83.2955C30.6043 83.0492 30.5219 82.7689 30.5238 82.4545C30.5219 82.2083 30.5702 81.9811 30.6687 81.7727C30.7672 81.5625 30.9016 81.3873 31.0721 81.2472C31.2444 81.1051 31.4367 81.0152 31.6488 80.9773V80.9432C31.3704 80.8712 31.1488 80.715 30.984 80.4744C30.8192 80.232 30.7378 79.9564 30.7397 79.6477C30.7378 79.3523 30.8126 79.0881 30.9641 78.8551C31.1156 78.6222 31.324 78.4384 31.5891 78.304C31.8562 78.1695 32.1602 78.1023 32.5011 78.1023C32.8382 78.1023 33.1393 78.1695 33.4045 78.304C33.6696 78.4384 33.878 78.6222 34.0295 78.8551C34.1829 79.0881 34.2605 79.3523 34.2624 79.6477C34.2605 79.9564 34.1763 80.232 34.0096 80.4744C33.8448 80.715 33.6261 80.8712 33.3533 80.9432V80.9773C33.5636 81.0152 33.753 81.1051 33.9215 81.2472C34.0901 81.3873 34.2246 81.5625 34.3249 81.7727C34.4253 81.9811 34.4764 82.2083 34.4783 82.4545C34.4764 82.7689 34.3912 83.0492 34.2227 83.2955C34.056 83.5398 33.824 83.732 33.5266 83.8722C33.2312 84.0104 32.8893 84.0795 32.5011 84.0795ZM32.5011 83.4545C32.7643 83.4545 32.9916 83.4119 33.1829 83.3267C33.3742 83.2415 33.5219 83.1212 33.6261 82.9659C33.7302 82.8106 33.7833 82.6288 33.7852 82.4205C33.7833 82.2008 33.7264 82.0066 33.6147 81.8381C33.503 81.6695 33.3505 81.5369 33.1573 81.4403C32.966 81.3437 32.7473 81.2955 32.5011 81.2955C32.253 81.2955 32.0314 81.3437 31.8363 81.4403C31.6431 81.5369 31.4906 81.6695 31.3789 81.8381C31.2691 82.0066 31.2151 82.2008 31.217 82.4205C31.2151 82.6288 31.2653 82.8106 31.3675 82.9659C31.4717 83.1212 31.6204 83.2415 31.8136 83.3267C32.0067 83.4119 32.2359 83.4545 32.5011 83.4545ZM32.5011 80.6932C32.7094 80.6932 32.8941 80.6515 33.055 80.5682C33.2179 80.4848 33.3458 80.3684 33.4386 80.2188C33.5314 80.0691 33.5787 79.8939 33.5806 79.6932C33.5787 79.4962 33.5323 79.3248 33.4414 79.179C33.3505 79.0312 33.2246 78.9176 33.0636 78.8381C32.9026 78.7566 32.7151 78.7159 32.5011 78.7159C32.2833 78.7159 32.0929 78.7566 31.93 78.8381C31.7672 78.9176 31.6412 79.0312 31.5522 79.179C31.4632 79.3248 31.4196 79.4962 31.4215 79.6932C31.4196 79.8939 31.4641 80.0691 31.555 80.2188C31.6478 80.3684 31.7757 80.4848 31.9386 80.5682C32.1014 80.6515 32.2889 80.6932 32.5011 80.6932Z" fill="black"/>
<path d="M30.8548 95.1818V101H30.1502V95.9205H30.1161L28.6957 96.8636V96.1477L30.1502 95.1818H30.8548ZM34.3462 101.08C34.0129 101.08 33.7127 101.013 33.4457 100.881C33.1786 100.748 32.9646 100.566 32.8036 100.335C32.6426 100.104 32.5546 99.8409 32.5394 99.5455H33.2212C33.2478 99.8087 33.3671 100.027 33.5792 100.199C33.7932 100.369 34.0489 100.455 34.3462 100.455C34.5849 100.455 34.797 100.399 34.9826 100.287C35.1701 100.175 35.3169 100.022 35.4229 99.8267C35.5309 99.6297 35.5849 99.4072 35.5849 99.1591C35.5849 98.9053 35.529 98.679 35.4173 98.4801C35.3074 98.2794 35.1559 98.1212 34.9627 98.0057C34.7695 97.8902 34.5489 97.8314 34.3008 97.8295C34.1228 97.8277 33.94 97.8551 33.7525 97.9119C33.565 97.9669 33.4106 98.0379 33.2894 98.125L32.6303 98.0455L32.9826 95.1818H36.0053V95.8068H33.5735L33.369 97.5227H33.4031C33.5224 97.428 33.672 97.3494 33.8519 97.2869C34.0318 97.2244 34.2193 97.1932 34.4144 97.1932C34.7705 97.1932 35.0877 97.2784 35.3661 97.4489C35.6464 97.6174 35.8661 97.8485 36.0252 98.142C36.1862 98.4356 36.2667 98.7708 36.2667 99.1477C36.2667 99.5189 36.1834 99.8504 36.0167 100.142C35.8519 100.432 35.6246 100.661 35.3349 100.83C35.0451 100.996 34.7156 101.08 34.3462 101.08Z" fill="black"/>
<path d="M27.7585 118V117.489L29.679 115.386C29.9044 115.14 30.09 114.926 30.2358 114.744C30.3816 114.561 30.4896 114.388 30.5597 114.227C30.6316 114.064 30.6676 113.894 30.6676 113.716C30.6676 113.511 30.6184 113.334 30.5199 113.185C30.4233 113.035 30.2907 112.92 30.1222 112.838C29.9536 112.757 29.7642 112.716 29.554 112.716C29.3305 112.716 29.1354 112.762 28.9688 112.855C28.804 112.946 28.6761 113.074 28.5852 113.239C28.4962 113.403 28.4517 113.597 28.4517 113.818H27.7812C27.7812 113.477 27.8598 113.178 28.017 112.92C28.1742 112.663 28.3883 112.462 28.6591 112.318C28.9318 112.174 29.2377 112.102 29.5767 112.102C29.9176 112.102 30.2197 112.174 30.483 112.318C30.7462 112.462 30.9527 112.656 31.1023 112.901C31.2519 113.145 31.3267 113.417 31.3267 113.716C31.3267 113.93 31.2879 114.139 31.2102 114.344C31.1345 114.546 31.0019 114.773 30.8125 115.023C30.625 115.271 30.3646 115.574 30.0312 115.932L28.7244 117.33V117.375H31.429V118H27.7585ZM32.6023 118V117.489L34.5227 115.386C34.7481 115.14 34.9337 114.926 35.0795 114.744C35.2254 114.561 35.3333 114.388 35.4034 114.227C35.4754 114.064 35.5114 113.894 35.5114 113.716C35.5114 113.511 35.4621 113.334 35.3636 113.185C35.267 113.035 35.1345 112.92 34.9659 112.838C34.7973 112.757 34.608 112.716 34.3977 112.716C34.1742 112.716 33.9792 112.762 33.8125 112.855C33.6477 112.946 33.5199 113.074 33.429 113.239C33.34 113.403 33.2955 113.597 33.2955 113.818H32.625C32.625 113.477 32.7036 113.178 32.8608 112.92C33.018 112.663 33.232 112.462 33.5028 112.318C33.7756 112.174 34.0814 112.102 34.4205 112.102C34.7614 112.102 35.0634 112.174 35.3267 112.318C35.59 112.462 35.7964 112.656 35.946 112.901C36.0956 113.145 36.1705 113.417 36.1705 113.716C36.1705 113.93 36.1316 114.139 36.054 114.344C35.9782 114.546 35.8456 114.773 35.6562 115.023C35.4688 115.271 35.2083 115.574 34.875 115.932L33.5682 117.33V117.375H36.2727V118H32.6023Z" fill="black"/>
<path d="M27.6843 135V134.489L29.6048 132.386C29.8301 132.14 30.0157 131.926 30.1616 131.744C30.3074 131.561 30.4154 131.388 30.4854 131.227C30.5574 131.064 30.5934 130.894 30.5934 130.716C30.5934 130.511 30.5442 130.334 30.4457 130.185C30.3491 130.035 30.2165 129.92 30.0479 129.838C29.8794 129.757 29.69 129.716 29.4798 129.716C29.2563 129.716 29.0612 129.762 28.8945 129.855C28.7298 129.946 28.6019 130.074 28.511 130.239C28.422 130.403 28.3775 130.597 28.3775 130.818H27.707C27.707 130.477 27.7856 130.178 27.9428 129.92C28.1 129.663 28.314 129.462 28.5849 129.318C28.8576 129.174 29.1635 129.102 29.5025 129.102C29.8434 129.102 30.1455 129.174 30.4087 129.318C30.672 129.462 30.8784 129.656 31.0281 129.901C31.1777 130.145 31.2525 130.417 31.2525 130.716C31.2525 130.93 31.2137 131.139 31.136 131.344C31.0603 131.546 30.9277 131.773 30.7383 132.023C30.5508 132.271 30.2904 132.574 29.957 132.932L28.6502 134.33V134.375H31.3548V135H27.6843ZM34.3803 129.102C34.619 129.104 34.8576 129.15 35.0962 129.239C35.3349 129.328 35.5527 129.475 35.7496 129.682C35.9466 129.886 36.1048 130.166 36.2241 130.52C36.3434 130.874 36.4031 131.318 36.4031 131.852C36.4031 132.369 36.3538 132.829 36.2553 133.23C36.1587 133.63 36.0186 133.967 35.8349 134.241C35.6531 134.516 35.4315 134.724 35.1701 134.866C34.9106 135.009 34.6171 135.08 34.2894 135.08C33.9637 135.08 33.6729 135.015 33.4173 134.886C33.1635 134.756 32.9551 134.575 32.7923 134.344C32.6313 134.111 32.5281 133.841 32.4826 133.534H33.1758C33.2383 133.801 33.3623 134.022 33.5479 134.196C33.7354 134.368 33.9826 134.455 34.2894 134.455C34.7383 134.455 35.0924 134.259 35.3519 133.866C35.6133 133.474 35.744 132.92 35.744 132.205H35.6985C35.5924 132.364 35.4665 132.501 35.3207 132.616C35.1748 132.732 35.0129 132.821 34.8349 132.884C34.6568 132.946 34.4674 132.977 34.2667 132.977C33.9334 132.977 33.6275 132.895 33.3491 132.73C33.0726 132.563 32.851 132.335 32.6843 132.045C32.5195 131.754 32.4371 131.42 32.4371 131.045C32.4371 130.689 32.5167 130.364 32.6758 130.068C32.8368 129.771 33.0621 129.534 33.3519 129.358C33.6436 129.182 33.9864 129.097 34.3803 129.102ZM34.3803 129.727C34.1417 129.727 33.9267 129.787 33.7354 129.906C33.546 130.024 33.3955 130.183 33.2837 130.384C33.1739 130.582 33.119 130.803 33.119 131.045C33.119 131.288 33.172 131.509 33.2781 131.707C33.386 131.904 33.5328 132.062 33.7184 132.179C33.9059 132.295 34.119 132.352 34.3576 132.352C34.5375 132.352 34.7051 132.317 34.8604 132.247C35.0157 132.175 35.1512 132.078 35.2667 131.955C35.3841 131.83 35.476 131.688 35.5423 131.531C35.6085 131.372 35.6417 131.206 35.6417 131.034C35.6417 130.807 35.5868 130.594 35.4769 130.395C35.369 130.196 35.2193 130.035 35.0281 129.912C34.8387 129.789 34.6228 129.727 34.3803 129.727Z" fill="black"/>
<path d="M46.7138 51V45.5455H48.9759C49.5914 45.5455 50.0791 45.6768 50.4389 45.9396C50.7988 46.2 50.9787 46.554 50.9787 47.0014C50.9787 47.321 50.8769 47.5743 50.6733 47.7614C50.4697 47.9484 50.1998 48.0739 49.8636 48.1378C50.1075 48.1662 50.3312 48.2396 50.5348 48.358C50.7384 48.474 50.9018 48.6302 51.0249 48.8267C51.1503 49.0232 51.2131 49.2576 51.2131 49.5298C51.2131 49.8187 51.1385 50.0743 50.9893 50.2969C50.8402 50.517 50.6236 50.6899 50.3395 50.8153C50.0578 50.9384 49.718 51 49.3203 51H46.7138ZM47.7116 50.1122H49.3203C49.5831 50.1122 49.7891 50.0495 49.9382 49.924C50.0874 49.7985 50.1619 49.6281 50.1619 49.4126C50.1619 49.1593 50.0874 48.9605 49.9382 48.8161C49.7891 48.6693 49.5831 48.5959 49.3203 48.5959H47.7116V50.1122ZM47.7116 47.8182H48.9865C49.1854 47.8182 49.3558 47.7898 49.4979 47.733C49.6423 47.6761 49.7524 47.5956 49.8281 47.4915C49.9062 47.3849 49.9453 47.2595 49.9453 47.1151C49.9453 46.9044 49.8589 46.7398 49.6861 46.6214C49.5133 46.5031 49.2765 46.4439 48.9759 46.4439H47.7116V47.8182Z" fill="black"/>
<path d="M46.6804 67V66.4886L48.6009 64.3864C48.8262 64.1402 49.0118 63.9261 49.1577 63.7443C49.3035 63.5606 49.4115 63.3883 49.4815 63.2273C49.5535 63.0644 49.5895 62.8939 49.5895 62.7159C49.5895 62.5114 49.5402 62.3343 49.4418 62.1847C49.3452 62.035 49.2126 61.9195 49.044 61.8381C48.8755 61.7566 48.6861 61.7159 48.4759 61.7159C48.2524 61.7159 48.0573 61.7623 47.8906 61.8551C47.7259 61.946 47.598 62.0739 47.5071 62.2386C47.4181 62.4034 47.3736 62.5966 47.3736 62.8182H46.7031C46.7031 62.4773 46.7817 62.178 46.9389 61.9205C47.0961 61.6629 47.3101 61.4621 47.581 61.3182C47.8537 61.1742 48.1596 61.1023 48.4986 61.1023C48.8395 61.1023 49.1416 61.1742 49.4048 61.3182C49.6681 61.4621 49.8745 61.6562 50.0241 61.9006C50.1738 62.1449 50.2486 62.4167 50.2486 62.7159C50.2486 62.9299 50.2098 63.1392 50.1321 63.3438C50.0563 63.5464 49.9238 63.7727 49.7344 64.0227C49.5469 64.2708 49.2865 64.5739 48.9531 64.9318L47.6463 66.3295V66.375H50.3509V67H46.6804Z" fill="black"/>
<path d="M48.4585 78.1023C48.6971 78.1042 48.9357 78.1496 49.1744 78.2386C49.413 78.3277 49.6308 78.4754 49.8278 78.6818C50.0247 78.8864 50.1829 79.1657 50.3022 79.5199C50.4215 79.8741 50.4812 80.3182 50.4812 80.8523C50.4812 81.3693 50.4319 81.8286 50.3335 82.2301C50.2369 82.6297 50.0967 82.9669 49.913 83.2415C49.7312 83.5161 49.5096 83.7244 49.2482 83.8665C48.9888 84.0085 48.6952 84.0795 48.3675 84.0795C48.0418 84.0795 47.7511 84.0152 47.4954 83.8864C47.2416 83.7557 47.0333 83.5748 46.8704 83.3438C46.7094 83.1108 46.6062 82.8409 46.5607 82.5341H47.2539C47.3164 82.8011 47.4405 83.0218 47.6261 83.196C47.8136 83.3684 48.0607 83.4545 48.3675 83.4545C48.8164 83.4545 49.1706 83.2585 49.43 82.8665C49.6914 82.4744 49.8221 81.9205 49.8221 81.2045H49.7766C49.6706 81.3636 49.5446 81.5009 49.3988 81.6165C49.253 81.732 49.091 81.821 48.913 81.8835C48.735 81.946 48.5456 81.9773 48.3448 81.9773C48.0115 81.9773 47.7056 81.8949 47.4272 81.7301C47.1507 81.5634 46.9291 81.3352 46.7624 81.0455C46.5977 80.7538 46.5153 80.4205 46.5153 80.0455C46.5153 79.6894 46.5948 79.3636 46.7539 79.0682C46.9149 78.7708 47.1403 78.5341 47.43 78.358C47.7217 78.1818 48.0645 78.0966 48.4585 78.1023ZM48.4585 78.7273C48.2198 78.7273 48.0049 78.7869 47.8136 78.9062C47.6242 79.0237 47.4736 79.1828 47.3619 79.3835C47.252 79.5824 47.1971 79.803 47.1971 80.0455C47.1971 80.2879 47.2501 80.5085 47.3562 80.7074C47.4641 80.9044 47.6109 81.0616 47.7965 81.179C47.984 81.2945 48.1971 81.3523 48.4357 81.3523C48.6156 81.3523 48.7833 81.3172 48.9386 81.2472C49.0939 81.1752 49.2293 81.0777 49.3448 80.9545C49.4622 80.8295 49.5541 80.6884 49.6204 80.5312C49.6867 80.3722 49.7198 80.2064 49.7198 80.0341C49.7198 79.8068 49.6649 79.5937 49.555 79.3949C49.4471 79.196 49.2975 79.035 49.1062 78.9119C48.9168 78.7888 48.7009 78.7273 48.4585 78.7273Z" fill="black"/>
<path d="M46.7923 95.1818V101H46.0877V95.9205H46.0536L44.6332 96.8636V96.1477L46.0877 95.1818H46.7923ZM50.3974 101.08C50.1587 101.076 49.9201 101.03 49.6815 100.943C49.4428 100.856 49.225 100.709 49.0281 100.503C48.8311 100.295 48.6729 100.013 48.5536 99.6591C48.4343 99.303 48.3746 98.8561 48.3746 98.3182C48.3746 97.803 48.4229 97.3466 48.5195 96.9489C48.6161 96.5492 48.7563 96.2131 48.94 95.9403C49.1237 95.6657 49.3453 95.4574 49.6048 95.3153C49.8661 95.1733 50.1606 95.1023 50.4883 95.1023C50.814 95.1023 51.1038 95.1676 51.3576 95.2983C51.6133 95.4271 51.8216 95.607 51.9826 95.8381C52.1436 96.0691 52.2478 96.3352 52.2951 96.6364H51.6019C51.5375 96.375 51.4125 96.1581 51.2269 95.9858C51.0413 95.8134 50.7951 95.7273 50.4883 95.7273C50.0375 95.7273 49.6824 95.9233 49.4229 96.3153C49.1654 96.7074 49.0356 97.2576 49.0337 97.9659H49.0792C49.1853 97.8049 49.3112 97.6676 49.457 97.554C49.6048 97.4384 49.7676 97.3494 49.9457 97.2869C50.1237 97.2244 50.3121 97.1932 50.511 97.1932C50.8443 97.1932 51.1493 97.2765 51.4258 97.4432C51.7023 97.608 51.9239 97.8362 52.0906 98.1278C52.2572 98.4176 52.3406 98.75 52.3406 99.125C52.3406 99.4848 52.2601 99.8144 52.0991 100.114C51.9381 100.411 51.7118 100.648 51.4201 100.824C51.1303 100.998 50.7894 101.083 50.3974 101.08ZM50.3974 100.455C50.636 100.455 50.85 100.395 51.0394 100.276C51.2307 100.156 51.3813 99.9962 51.4911 99.7955C51.6029 99.5947 51.6587 99.3712 51.6587 99.125C51.6587 98.8845 51.6048 98.6657 51.4968 98.4688C51.3907 98.2699 51.244 98.1117 51.0565 97.9943C50.8709 97.8769 50.6587 97.8182 50.4201 97.8182C50.2402 97.8182 50.0726 97.8542 49.9173 97.9261C49.762 97.9962 49.6256 98.0928 49.5082 98.2159C49.3926 98.339 49.3017 98.4801 49.2354 98.6392C49.1692 98.7964 49.136 98.9621 49.136 99.1364C49.136 99.3674 49.19 99.5833 49.2979 99.7841C49.4078 99.9848 49.5574 100.147 49.7468 100.27C49.9381 100.393 50.1549 100.455 50.3974 100.455Z" fill="black"/>
<path d="M43.6335 118V117.489L45.554 115.386C45.7794 115.14 45.965 114.926 46.1108 114.744C46.2566 114.561 46.3646 114.388 46.4347 114.227C46.5066 114.064 46.5426 113.894 46.5426 113.716C46.5426 113.511 46.4934 113.334 46.3949 113.185C46.2983 113.035 46.1657 112.92 45.9972 112.838C45.8286 112.757 45.6392 112.716 45.429 112.716C45.2055 112.716 45.0104 112.762 44.8438 112.855C44.679 112.946 44.5511 113.074 44.4602 113.239C44.3712 113.403 44.3267 113.597 44.3267 113.818H43.6562C43.6562 113.477 43.7348 113.178 43.892 112.92C44.0492 112.663 44.2633 112.462 44.5341 112.318C44.8068 112.174 45.1127 112.102 45.4517 112.102C45.7926 112.102 46.0947 112.174 46.358 112.318C46.6212 112.462 46.8277 112.656 46.9773 112.901C47.1269 113.145 47.2017 113.417 47.2017 113.716C47.2017 113.93 47.1629 114.139 47.0852 114.344C47.0095 114.546 46.8769 114.773 46.6875 115.023C46.5 115.271 46.2396 115.574 45.9062 115.932L44.5994 117.33V117.375H47.304V118H43.6335ZM50.4432 118.08C50.0682 118.08 49.7339 118.015 49.4403 117.886C49.1487 117.758 48.9167 117.579 48.7443 117.349C48.5739 117.118 48.4811 116.85 48.4659 116.545H49.1818C49.197 116.733 49.2614 116.895 49.375 117.031C49.4886 117.166 49.6373 117.27 49.821 117.344C50.0047 117.418 50.2083 117.455 50.4318 117.455C50.6818 117.455 50.9034 117.411 51.0966 117.324C51.2898 117.237 51.4413 117.116 51.5511 116.96C51.661 116.805 51.7159 116.625 51.7159 116.42C51.7159 116.206 51.6629 116.018 51.5568 115.855C51.4508 115.69 51.2955 115.562 51.0909 115.469C50.8864 115.376 50.6364 115.33 50.3409 115.33H49.875V114.705H50.3409C50.572 114.705 50.7746 114.663 50.9489 114.58C51.125 114.496 51.2623 114.379 51.3608 114.227C51.4612 114.076 51.5114 113.898 51.5114 113.693C51.5114 113.496 51.4678 113.325 51.3807 113.179C51.2936 113.033 51.1705 112.92 51.0114 112.838C50.8542 112.757 50.6686 112.716 50.4545 112.716C50.2538 112.716 50.0644 112.753 49.8864 112.827C49.7102 112.899 49.5663 113.004 49.4545 113.142C49.3428 113.278 49.2822 113.443 49.2727 113.636H48.5909C48.6023 113.331 48.6941 113.064 48.8665 112.835C49.0388 112.604 49.2642 112.424 49.5426 112.295C49.8229 112.167 50.1307 112.102 50.4659 112.102C50.8258 112.102 51.1345 112.175 51.392 112.321C51.6496 112.465 51.8475 112.655 51.9858 112.892C52.1241 113.129 52.1932 113.384 52.1932 113.659C52.1932 113.987 52.107 114.266 51.9347 114.497C51.7642 114.728 51.5322 114.888 51.2386 114.977V115.023C51.6061 115.083 51.893 115.24 52.0994 115.491C52.3059 115.741 52.4091 116.051 52.4091 116.42C52.4091 116.737 52.3229 117.021 52.1506 117.273C51.9801 117.523 51.7472 117.72 51.4517 117.864C51.1563 118.008 50.8201 118.08 50.4432 118.08Z" fill="black"/>
<path d="M46.0213 135.08C45.6463 135.08 45.312 135.015 45.0185 134.886C44.7268 134.758 44.4948 134.579 44.3224 134.349C44.152 134.118 44.0592 133.85 44.044 133.545H44.7599C44.7751 133.733 44.8395 133.895 44.9531 134.031C45.0668 134.166 45.2154 134.27 45.3991 134.344C45.5829 134.418 45.7865 134.455 46.0099 134.455C46.2599 134.455 46.4815 134.411 46.6747 134.324C46.8679 134.237 47.0194 134.116 47.1293 133.96C47.2391 133.805 47.294 133.625 47.294 133.42C47.294 133.206 47.241 133.018 47.1349 132.855C47.0289 132.69 46.8736 132.562 46.669 132.469C46.4645 132.376 46.2145 132.33 45.919 132.33H45.4531V131.705H45.919C46.1501 131.705 46.3527 131.663 46.527 131.58C46.7031 131.496 46.8404 131.379 46.9389 131.227C47.0393 131.076 47.0895 130.898 47.0895 130.693C47.0895 130.496 47.0459 130.325 46.9588 130.179C46.8717 130.033 46.7486 129.92 46.5895 129.838C46.4323 129.757 46.2467 129.716 46.0327 129.716C45.8319 129.716 45.6425 129.753 45.4645 129.827C45.2884 129.899 45.1444 130.004 45.0327 130.142C44.9209 130.278 44.8603 130.443 44.8509 130.636H44.169C44.1804 130.331 44.2723 130.064 44.4446 129.835C44.617 129.604 44.8423 129.424 45.1207 129.295C45.401 129.167 45.7088 129.102 46.044 129.102C46.4039 129.102 46.7126 129.175 46.9702 129.321C47.2277 129.465 47.4257 129.655 47.5639 129.892C47.7022 130.129 47.7713 130.384 47.7713 130.659C47.7713 130.987 47.6851 131.266 47.5128 131.497C47.3423 131.728 47.1103 131.888 46.8168 131.977V132.023C47.1842 132.083 47.4711 132.24 47.6776 132.491C47.884 132.741 47.9872 133.051 47.9872 133.42C47.9872 133.737 47.901 134.021 47.7287 134.273C47.5582 134.523 47.3253 134.72 47.0298 134.864C46.7344 135.008 46.3982 135.08 46.0213 135.08ZM51.0469 135.08C50.6188 135.08 50.2543 134.963 49.9531 134.73C49.652 134.495 49.4219 134.155 49.2628 133.71C49.1037 133.263 49.0241 132.723 49.0241 132.091C49.0241 131.462 49.1037 130.925 49.2628 130.48C49.4238 130.033 49.6548 129.692 49.956 129.457C50.259 129.221 50.6226 129.102 51.0469 129.102C51.4711 129.102 51.8338 129.221 52.1349 129.457C52.438 129.692 52.669 130.033 52.8281 130.48C52.9891 130.925 53.0696 131.462 53.0696 132.091C53.0696 132.723 52.9901 133.263 52.831 133.71C52.6719 134.155 52.4418 134.495 52.1406 134.73C51.8395 134.963 51.4749 135.08 51.0469 135.08ZM51.0469 134.455C51.4711 134.455 51.8007 134.25 52.0355 133.841C52.2704 133.432 52.3878 132.848 52.3878 132.091C52.3878 131.587 52.3338 131.158 52.2259 130.804C52.1198 130.45 51.9664 130.18 51.7656 129.994C51.5668 129.809 51.3272 129.716 51.0469 129.716C50.6264 129.716 50.2978 129.923 50.0611 130.338C49.8243 130.751 49.706 131.335 49.706 132.091C49.706 132.595 49.759 133.023 49.8651 133.375C49.9711 133.727 50.1236 133.995 50.3224 134.179C50.5232 134.363 50.7647 134.455 51.0469 134.455Z" fill="black"/>
<path d="M66.0114 51.1101C65.4834 51.1101 65.0289 50.9905 64.6477 50.7514C64.2689 50.5099 63.9777 50.1773 63.7741 49.7536C63.5705 49.3298 63.4688 48.8445 63.4688 48.2976C63.4688 47.7436 63.5729 47.2547 63.7812 46.831C63.9896 46.4048 64.2831 46.0722 64.6619 45.8331C65.0407 45.594 65.487 45.4744 66.0007 45.4744C66.415 45.4744 66.7843 45.5514 67.1087 45.7053C67.433 45.8568 67.6946 46.0698 67.8935 46.3445C68.0947 46.6191 68.2143 46.9399 68.2521 47.3068H67.2188C67.1619 47.0511 67.0317 46.831 66.8281 46.6463C66.6269 46.4616 66.357 46.3693 66.0185 46.3693C65.7225 46.3693 65.4633 46.4474 65.2408 46.6037C65.0206 46.7576 64.849 46.9777 64.7259 47.2642C64.6027 47.5483 64.5412 47.8845 64.5412 48.2727C64.5412 48.6705 64.6016 49.0137 64.7223 49.3026C64.843 49.5914 65.0135 49.8151 65.2337 49.9737C65.4562 50.1323 65.7178 50.2116 66.0185 50.2116C66.2197 50.2116 66.402 50.175 66.5653 50.1016C66.7311 50.0258 66.8696 49.9181 66.9808 49.7784C67.0945 49.6387 67.1738 49.4706 67.2188 49.2741H68.2521C68.2143 49.6269 68.0994 49.9418 67.9077 50.2188C67.7159 50.4957 67.459 50.7135 67.1371 50.8722C66.8175 51.0308 66.4422 51.1101 66.0114 51.1101Z" fill="black"/>
<path d="M65.0213 67.0795C64.6463 67.0795 64.312 67.0152 64.0185 66.8864C63.7268 66.7576 63.4948 66.5786 63.3224 66.3494C63.152 66.1184 63.0592 65.8504 63.044 65.5455H63.7599C63.7751 65.733 63.8395 65.8949 63.9531 66.0312C64.0668 66.1657 64.2154 66.2699 64.3991 66.3438C64.5829 66.4176 64.7865 66.4545 65.0099 66.4545C65.2599 66.4545 65.4815 66.411 65.6747 66.3239C65.8679 66.2367 66.0194 66.1155 66.1293 65.9602C66.2391 65.8049 66.294 65.625 66.294 65.4205C66.294 65.2064 66.241 65.018 66.1349 64.8551C66.0289 64.6903 65.8736 64.5616 65.669 64.4688C65.4645 64.3759 65.2145 64.3295 64.919 64.3295H64.4531V63.7045H64.919C65.1501 63.7045 65.3527 63.6629 65.527 63.5795C65.7031 63.4962 65.8404 63.3788 65.9389 63.2273C66.0393 63.0758 66.0895 62.8977 66.0895 62.6932C66.0895 62.4962 66.0459 62.3248 65.9588 62.179C65.8717 62.0331 65.7486 61.9195 65.5895 61.8381C65.4323 61.7566 65.2467 61.7159 65.0327 61.7159C64.8319 61.7159 64.6425 61.7528 64.4645 61.8267C64.2884 61.8987 64.1444 62.0038 64.0327 62.142C63.9209 62.2784 63.8603 62.4432 63.8509 62.6364H63.169C63.1804 62.3314 63.2723 62.0644 63.4446 61.8352C63.617 61.6042 63.8423 61.4242 64.1207 61.2955C64.401 61.1667 64.7088 61.1023 65.044 61.1023C65.4039 61.1023 65.7126 61.1752 65.9702 61.321C66.2277 61.465 66.4257 61.6553 66.5639 61.892C66.7022 62.1288 66.7713 62.3845 66.7713 62.6591C66.7713 62.9867 66.6851 63.2661 66.5128 63.4972C66.3423 63.7282 66.1103 63.8883 65.8168 63.9773V64.0227C66.1842 64.0833 66.4711 64.2396 66.6776 64.4915C66.884 64.7415 66.9872 65.0511 66.9872 65.4205C66.9872 65.7367 66.901 66.0208 66.7287 66.2727C66.5582 66.5227 66.3253 66.7197 66.0298 66.8636C65.7344 67.0076 65.3982 67.0795 65.0213 67.0795Z" fill="black"/>
<path d="M63.7884 78.1818V84H63.0838V78.9205H63.0497L61.6293 79.8636V79.1477L63.0838 78.1818H63.7884ZM67.3594 84.0795C66.9313 84.0795 66.5668 83.9631 66.2656 83.7301C65.9645 83.4953 65.7344 83.1553 65.5753 82.7102C65.4162 82.2633 65.3366 81.7235 65.3366 81.0909C65.3366 80.4621 65.4162 79.9252 65.5753 79.4801C65.7363 79.0331 65.9673 78.6922 66.2685 78.4574C66.5715 78.2206 66.9351 78.1023 67.3594 78.1023C67.7836 78.1023 68.1463 78.2206 68.4474 78.4574C68.7505 78.6922 68.9815 79.0331 69.1406 79.4801C69.3016 79.9252 69.3821 80.4621 69.3821 81.0909C69.3821 81.7235 69.3026 82.2633 69.1435 82.7102C68.9844 83.1553 68.7543 83.4953 68.4531 83.7301C68.152 83.9631 67.7874 84.0795 67.3594 84.0795ZM67.3594 83.4545C67.7836 83.4545 68.1132 83.25 68.348 82.8409C68.5829 82.4318 68.7003 81.8485 68.7003 81.0909C68.7003 80.5871 68.6463 80.1581 68.5384 79.804C68.4323 79.4498 68.2789 79.1799 68.0781 78.9943C67.8793 78.8087 67.6397 78.7159 67.3594 78.7159C66.9389 78.7159 66.6103 78.9233 66.3736 79.3381C66.1368 79.7509 66.0185 80.3352 66.0185 81.0909C66.0185 81.5947 66.0715 82.0227 66.1776 82.375C66.2836 82.7273 66.4361 82.9953 66.6349 83.179C66.8357 83.3627 67.0772 83.4545 67.3594 83.4545Z" fill="black"/>
<path d="M64.0032 95.1818V101H63.2987V95.9205H63.2646L61.8441 96.8636V96.1477L63.2987 95.1818H64.0032ZM65.8583 101L68.4606 95.8523V95.8068H65.4606V95.1818H69.1879V95.8409L66.5969 101H65.8583Z" fill="black"/>
<path d="M60.6765 118V117.489L62.5969 115.386C62.8223 115.14 63.0079 114.926 63.1538 114.744C63.2996 114.561 63.4076 114.388 63.4776 114.227C63.5496 114.064 63.5856 113.894 63.5856 113.716C63.5856 113.511 63.5363 113.334 63.4379 113.185C63.3413 113.035 63.2087 112.92 63.0401 112.838C62.8716 112.757 62.6822 112.716 62.4719 112.716C62.2485 112.716 62.0534 112.762 61.8867 112.855C61.7219 112.946 61.5941 113.074 61.5032 113.239C61.4142 113.403 61.3697 113.597 61.3697 113.818H60.6992C60.6992 113.477 60.7778 113.178 60.935 112.92C61.0922 112.663 61.3062 112.462 61.5771 112.318C61.8498 112.174 62.1557 112.102 62.4947 112.102C62.8356 112.102 63.1377 112.174 63.4009 112.318C63.6642 112.462 63.8706 112.656 64.0202 112.901C64.1699 113.145 64.2447 113.417 64.2447 113.716C64.2447 113.93 64.2058 114.139 64.1282 114.344C64.0524 114.546 63.9199 114.773 63.7305 115.023C63.543 115.271 63.2826 115.574 62.9492 115.932L61.6424 117.33V117.375H64.3469V118H60.6765ZM65.2589 116.807V116.227L67.8157 112.182H68.2362V113.08H67.9521L66.0202 116.136V116.182H69.4634V116.807H65.2589ZM67.9975 118V116.631V116.361V112.182H68.668V118H67.9975Z" fill="black"/>
<path d="M63.6619 135.08C63.2869 135.08 62.9527 135.015 62.6591 134.886C62.3674 134.758 62.1354 134.579 61.9631 134.349C61.7926 134.118 61.6998 133.85 61.6847 133.545H62.4006C62.4157 133.733 62.4801 133.895 62.5938 134.031C62.7074 134.166 62.8561 134.27 63.0398 134.344C63.2235 134.418 63.4271 134.455 63.6506 134.455C63.9006 134.455 64.1222 134.411 64.3153 134.324C64.5085 134.237 64.66 134.116 64.7699 133.96C64.8797 133.805 64.9347 133.625 64.9347 133.42C64.9347 133.206 64.8816 133.018 64.7756 132.855C64.6695 132.69 64.5142 132.562 64.3097 132.469C64.1051 132.376 63.8551 132.33 63.5597 132.33H63.0938V131.705H63.5597C63.7907 131.705 63.9934 131.663 64.1676 131.58C64.3438 131.496 64.4811 131.379 64.5795 131.227C64.6799 131.076 64.7301 130.898 64.7301 130.693C64.7301 130.496 64.6866 130.325 64.5994 130.179C64.5123 130.033 64.3892 129.92 64.2301 129.838C64.0729 129.757 63.8873 129.716 63.6733 129.716C63.4725 129.716 63.2831 129.753 63.1051 129.827C62.929 129.899 62.785 130.004 62.6733 130.142C62.5616 130.278 62.5009 130.443 62.4915 130.636H61.8097C61.821 130.331 61.9129 130.064 62.0852 129.835C62.2576 129.604 62.483 129.424 62.7614 129.295C63.0417 129.167 63.3494 129.102 63.6847 129.102C64.0445 129.102 64.3532 129.175 64.6108 129.321C64.8684 129.465 65.0663 129.655 65.2045 129.892C65.3428 130.129 65.4119 130.384 65.4119 130.659C65.4119 130.987 65.3258 131.266 65.1534 131.497C64.983 131.728 64.7509 131.888 64.4574 131.977V132.023C64.8248 132.083 65.1117 132.24 65.3182 132.491C65.5246 132.741 65.6278 133.051 65.6278 133.42C65.6278 133.737 65.5417 134.021 65.3693 134.273C65.1989 134.523 64.9659 134.72 64.6705 134.864C64.375 135.008 64.0388 135.08 63.6619 135.08ZM68.8352 129.182V135H68.1307V129.92H68.0966L66.6761 130.864V130.148L68.1307 129.182H68.8352Z" fill="black"/>
<path d="M85.0923 45.5455V51H84.0554V45.5455H85.0923ZM84.6413 48.0774V48.9936C84.478 49.0599 84.3052 49.1191 84.1229 49.1712C83.9406 49.2209 83.7488 49.2599 83.5476 49.2884C83.3464 49.3168 83.1368 49.331 82.919 49.331C82.2443 49.331 81.7081 49.1664 81.3104 48.8374C80.9126 48.5059 80.7138 47.9993 80.7138 47.3175V45.5348H81.7472V47.3175C81.7472 47.5755 81.7945 47.785 81.8892 47.946C81.9839 48.107 82.1188 48.2254 82.294 48.3011C82.4692 48.3769 82.6776 48.4148 82.919 48.4148C83.2386 48.4148 83.5334 48.3852 83.8033 48.326C84.0755 48.2644 84.3549 48.1816 84.6413 48.0774Z" fill="black"/>
<path d="M79.8995 65.8068V65.2273L82.4563 61.1818H82.8768V62.0795H82.5927L80.6609 65.1364V65.1818H84.104V65.8068H79.8995ZM82.6381 67V65.6307V65.3608V61.1818H83.3086V67H82.6381Z" fill="black"/>
<path d="M80.929 78.1818V84H80.2244V78.9205H80.1903L78.7699 79.8636V79.1477L80.2244 78.1818H80.929ZM84.6477 78.1818V84H83.9432V78.9205H83.9091L82.4886 79.8636V79.1477L83.9432 78.1818H84.6477Z" fill="black"/>
<path d="M80.8235 95.1818V101H80.119V95.9205H80.0849L78.6644 96.8636V96.1477L80.119 95.1818H80.8235ZM84.3604 101.08C83.9703 101.08 83.6256 101.01 83.3263 100.872C83.029 100.732 82.797 100.54 82.6303 100.295C82.4637 100.049 82.3813 99.7689 82.3832 99.4545C82.3813 99.2083 82.4296 98.9811 82.5281 98.7727C82.6265 98.5625 82.761 98.3873 82.9315 98.2472C83.1038 98.1051 83.296 98.0152 83.5082 97.9773V97.9432C83.2298 97.8712 83.0082 97.715 82.8434 97.4744C82.6786 97.232 82.5972 96.9564 82.5991 96.6477C82.5972 96.3523 82.672 96.0881 82.8235 95.8551C82.975 95.6222 83.1834 95.4384 83.4485 95.304C83.7156 95.1695 84.0195 95.1023 84.3604 95.1023C84.6976 95.1023 84.9987 95.1695 85.2638 95.304C85.529 95.4384 85.7373 95.6222 85.8888 95.8551C86.0423 96.0881 86.1199 96.3523 86.1218 96.6477C86.1199 96.9564 86.0356 97.232 85.869 97.4744C85.7042 97.715 85.4854 97.8712 85.2127 97.9432V97.9773C85.4229 98.0152 85.6123 98.1051 85.7809 98.2472C85.9495 98.3873 86.0839 98.5625 86.1843 98.7727C86.2847 98.9811 86.3358 99.2083 86.3377 99.4545C86.3358 99.7689 86.2506 100.049 86.082 100.295C85.9154 100.54 85.6834 100.732 85.386 100.872C85.0906 101.01 84.7487 101.08 84.3604 101.08ZM84.3604 100.455C84.6237 100.455 84.851 100.412 85.0423 100.327C85.2335 100.241 85.3813 100.121 85.4854 99.9659C85.5896 99.8106 85.6426 99.6288 85.6445 99.4205C85.6426 99.2008 85.5858 99.0066 85.4741 98.8381C85.3623 98.6695 85.2099 98.5369 85.0167 98.4403C84.8254 98.3437 84.6067 98.2955 84.3604 98.2955C84.1123 98.2955 83.8907 98.3437 83.6957 98.4403C83.5025 98.5369 83.35 98.6695 83.2383 98.8381C83.1284 99.0066 83.0745 99.2008 83.0763 99.4205C83.0745 99.6288 83.1246 99.8106 83.2269 99.9659C83.3311 100.121 83.4798 100.241 83.6729 100.327C83.8661 100.412 84.0953 100.455 84.3604 100.455ZM84.3604 97.6932C84.5688 97.6932 84.7534 97.6515 84.9144 97.5682C85.0773 97.4848 85.2051 97.3684 85.2979 97.2188C85.3907 97.0691 85.4381 96.8939 85.44 96.6932C85.4381 96.4962 85.3917 96.3248 85.3008 96.179C85.2099 96.0312 85.0839 95.9176 84.9229 95.8381C84.762 95.7566 84.5745 95.7159 84.3604 95.7159C84.1426 95.7159 83.9523 95.7566 83.7894 95.8381C83.6265 95.9176 83.5006 96.0312 83.4116 96.179C83.3226 96.3248 83.279 96.4962 83.2809 96.6932C83.279 96.8939 83.3235 97.0691 83.4144 97.2188C83.5072 97.3684 83.6351 97.4848 83.7979 97.5682C83.9608 97.6515 84.1483 97.6932 84.3604 97.6932Z" fill="black"/>
<path d="M77.7468 118V117.489L79.6673 115.386C79.8926 115.14 80.0782 114.926 80.2241 114.744C80.3699 114.561 80.4779 114.388 80.5479 114.227C80.6199 114.064 80.6559 113.894 80.6559 113.716C80.6559 113.511 80.6067 113.334 80.5082 113.185C80.4116 113.035 80.279 112.92 80.1104 112.838C79.9419 112.757 79.7525 112.716 79.5423 112.716C79.3188 112.716 79.1237 112.762 78.957 112.855C78.7923 112.946 78.6644 113.074 78.5735 113.239C78.4845 113.403 78.44 113.597 78.44 113.818H77.7695C77.7695 113.477 77.8481 113.178 78.0053 112.92C78.1625 112.663 78.3765 112.462 78.6474 112.318C78.9201 112.174 79.226 112.102 79.565 112.102C79.9059 112.102 80.208 112.174 80.4712 112.318C80.7345 112.462 80.9409 112.656 81.0906 112.901C81.2402 113.145 81.315 113.417 81.315 113.716C81.315 113.93 81.2762 114.139 81.1985 114.344C81.1228 114.546 80.9902 114.773 80.8008 115.023C80.6133 115.271 80.3529 115.574 80.0195 115.932L78.7127 117.33V117.375H81.4173V118H77.7468ZM84.4087 118.08C84.0754 118.08 83.7752 118.013 83.5082 117.881C83.2411 117.748 83.0271 117.566 82.8661 117.335C82.7051 117.104 82.6171 116.841 82.6019 116.545H83.2837C83.3103 116.809 83.4296 117.027 83.6417 117.199C83.8557 117.369 84.1114 117.455 84.4087 117.455C84.6474 117.455 84.8595 117.399 85.0451 117.287C85.2326 117.175 85.3794 117.022 85.4854 116.827C85.5934 116.63 85.6474 116.407 85.6474 116.159C85.6474 115.905 85.5915 115.679 85.4798 115.48C85.3699 115.279 85.2184 115.121 85.0252 115.006C84.832 114.89 84.6114 114.831 84.3633 114.83C84.1853 114.828 84.0025 114.855 83.815 114.912C83.6275 114.967 83.4731 115.038 83.3519 115.125L82.6928 115.045L83.0451 112.182H86.0678V112.807H83.636L83.4315 114.523H83.4656C83.5849 114.428 83.7345 114.349 83.9144 114.287C84.0943 114.224 84.2818 114.193 84.4769 114.193C84.833 114.193 85.1502 114.278 85.4286 114.449C85.7089 114.617 85.9286 114.848 86.0877 115.142C86.2487 115.436 86.3292 115.771 86.3292 116.148C86.3292 116.519 86.2459 116.85 86.0792 117.142C85.9144 117.432 85.6871 117.661 85.3974 117.83C85.1076 117.996 84.7781 118.08 84.4087 118.08Z" fill="black"/>
<path d="M97.7138 51V45.5455H102.163V51H101.123V46.4616H98.7472V51H97.7138Z" fill="black"/>
<path d="M99.4869 67.0795C99.1535 67.0795 98.8533 67.0133 98.5863 66.8807C98.3192 66.7481 98.1052 66.5663 97.9442 66.3352C97.7833 66.1042 97.6952 65.8409 97.68 65.5455H98.3619C98.3884 65.8087 98.5077 66.0265 98.7198 66.1989C98.9338 66.3693 99.1895 66.4545 99.4869 66.4545C99.7255 66.4545 99.9376 66.3987 100.123 66.2869C100.311 66.1752 100.458 66.0218 100.564 65.8267C100.672 65.6297 100.725 65.4072 100.725 65.1591C100.725 64.9053 100.67 64.679 100.558 64.4801C100.448 64.2794 100.297 64.1212 100.103 64.0057C99.9102 63.8902 99.6895 63.8314 99.4414 63.8295C99.2634 63.8277 99.0806 63.8551 98.8931 63.9119C98.7056 63.9669 98.5513 64.0379 98.43 64.125L97.771 64.0455L98.1232 61.1818H101.146V61.8068H98.7141L98.5096 63.5227H98.5437C98.663 63.428 98.8126 63.3494 98.9925 63.2869C99.1725 63.2244 99.36 63.1932 99.555 63.1932C99.9111 63.1932 100.228 63.2784 100.507 63.4489C100.787 63.6174 101.007 63.8485 101.166 64.142C101.327 64.4356 101.407 64.7708 101.407 65.1477C101.407 65.5189 101.324 65.8504 101.157 66.142C100.993 66.4318 100.765 66.661 100.475 66.8295C100.186 66.9962 99.8562 67.0795 99.4869 67.0795Z" fill="black"/>
<path d="M97.8665 78.1818V84H97.1619V78.9205H97.1278L95.7074 79.8636V79.1477L97.1619 78.1818H97.8665ZM99.5398 84V83.4886L101.46 81.3864C101.686 81.1402 101.871 80.9261 102.017 80.7443C102.163 80.5606 102.271 80.3883 102.341 80.2273C102.413 80.0644 102.449 79.8939 102.449 79.7159C102.449 79.5114 102.4 79.3343 102.301 79.1847C102.205 79.035 102.072 78.9195 101.903 78.8381C101.735 78.7566 101.545 78.7159 101.335 78.7159C101.112 78.7159 100.917 78.7623 100.75 78.8551C100.585 78.946 100.457 79.0739 100.366 79.2386C100.277 79.4034 100.233 79.5966 100.233 79.8182H99.5625C99.5625 79.4773 99.6411 79.178 99.7983 78.9205C99.9555 78.6629 100.17 78.4621 100.44 78.3182C100.713 78.1742 101.019 78.1023 101.358 78.1023C101.699 78.1023 102.001 78.1742 102.264 78.3182C102.527 78.4621 102.734 78.6562 102.884 78.9006C103.033 79.1449 103.108 79.4167 103.108 79.7159C103.108 79.9299 103.069 80.1392 102.991 80.3438C102.916 80.5464 102.783 80.7727 102.594 81.0227C102.406 81.2708 102.146 81.5739 101.812 81.9318L100.506 83.3295V83.375H103.21V84H99.5398Z" fill="black"/>
<path d="M97.7923 95.1818V101H97.0877V95.9205H97.0536L95.6332 96.8636V96.1477L97.0877 95.1818H97.7923ZM101.318 95.1023C101.556 95.1042 101.795 95.1496 102.034 95.2386C102.272 95.3277 102.49 95.4754 102.687 95.6818C102.884 95.8864 103.042 96.1657 103.162 96.5199C103.281 96.8741 103.341 97.3182 103.341 97.8523C103.341 98.3693 103.291 98.8286 103.193 99.2301C103.096 99.6297 102.956 99.9669 102.772 100.241C102.591 100.516 102.369 100.724 102.108 100.866C101.848 101.009 101.555 101.08 101.227 101.08C100.901 101.08 100.61 101.015 100.355 100.886C100.101 100.756 99.8926 100.575 99.7298 100.344C99.5688 100.111 99.4656 99.8409 99.4201 99.5341H100.113C100.176 99.8011 100.3 100.022 100.485 100.196C100.673 100.368 100.92 100.455 101.227 100.455C101.676 100.455 102.03 100.259 102.289 99.8665C102.551 99.4744 102.681 98.9205 102.681 98.2045H102.636C102.53 98.3636 102.404 98.5009 102.258 98.6165C102.112 98.732 101.95 98.821 101.772 98.8835C101.594 98.946 101.405 98.9773 101.204 98.9773C100.871 98.9773 100.565 98.8949 100.287 98.7301C100.01 98.5634 99.7885 98.3352 99.6218 98.0455C99.457 97.7538 99.3746 97.4205 99.3746 97.0455C99.3746 96.6894 99.4542 96.3636 99.6133 96.0682C99.7743 95.7708 99.9996 95.5341 100.289 95.358C100.581 95.1818 100.924 95.0966 101.318 95.1023ZM101.318 95.7273C101.079 95.7273 100.864 95.7869 100.673 95.9062C100.484 96.0237 100.333 96.1828 100.221 96.3835C100.111 96.5824 100.056 96.803 100.056 97.0455C100.056 97.2879 100.109 97.5085 100.216 97.7074C100.324 97.9044 100.47 98.0616 100.656 98.179C100.843 98.2945 101.056 98.3523 101.295 98.3523C101.475 98.3523 101.643 98.3172 101.798 98.2472C101.953 98.1752 102.089 98.0777 102.204 97.9545C102.322 97.8295 102.413 97.6884 102.48 97.5312C102.546 97.3722 102.579 97.2064 102.579 97.0341C102.579 96.8068 102.524 96.5937 102.414 96.3949C102.306 96.196 102.157 96.035 101.966 95.9119C101.776 95.7888 101.56 95.7273 101.318 95.7273Z" fill="black"/>
<path d="M94.6843 118V117.489L96.6048 115.386C96.8301 115.14 97.0157 114.926 97.1616 114.744C97.3074 114.561 97.4154 114.388 97.4854 114.227C97.5574 114.064 97.5934 113.894 97.5934 113.716C97.5934 113.511 97.5442 113.334 97.4457 113.185C97.3491 113.035 97.2165 112.92 97.0479 112.838C96.8794 112.757 96.69 112.716 96.4798 112.716C96.2563 112.716 96.0612 112.762 95.8945 112.855C95.7298 112.946 95.6019 113.074 95.511 113.239C95.422 113.403 95.3775 113.597 95.3775 113.818H94.707C94.707 113.477 94.7856 113.178 94.9428 112.92C95.1 112.663 95.314 112.462 95.5849 112.318C95.8576 112.174 96.1635 112.102 96.5025 112.102C96.8434 112.102 97.1455 112.174 97.4087 112.318C97.672 112.462 97.8784 112.656 98.0281 112.901C98.1777 113.145 98.2525 113.417 98.2525 113.716C98.2525 113.93 98.2137 114.139 98.136 114.344C98.0603 114.546 97.9277 114.773 97.7383 115.023C97.5508 115.271 97.2904 115.574 96.957 115.932L95.6502 117.33V117.375H98.3548V118H94.6843ZM101.46 118.08C101.221 118.076 100.983 118.03 100.744 117.943C100.505 117.856 100.288 117.709 100.091 117.503C99.8936 117.295 99.7354 117.013 99.6161 116.659C99.4968 116.303 99.4371 115.856 99.4371 115.318C99.4371 114.803 99.4854 114.347 99.582 113.949C99.6786 113.549 99.8188 113.213 100.002 112.94C100.186 112.666 100.408 112.457 100.667 112.315C100.929 112.173 101.223 112.102 101.551 112.102C101.877 112.102 102.166 112.168 102.42 112.298C102.676 112.427 102.884 112.607 103.045 112.838C103.206 113.069 103.31 113.335 103.358 113.636H102.664C102.6 113.375 102.475 113.158 102.289 112.986C102.104 112.813 101.858 112.727 101.551 112.727C101.1 112.727 100.745 112.923 100.485 113.315C100.228 113.707 100.098 114.258 100.096 114.966H100.142C100.248 114.805 100.374 114.668 100.52 114.554C100.667 114.438 100.83 114.349 101.008 114.287C101.186 114.224 101.375 114.193 101.574 114.193C101.907 114.193 102.212 114.277 102.488 114.443C102.765 114.608 102.986 114.836 103.153 115.128C103.32 115.418 103.403 115.75 103.403 116.125C103.403 116.485 103.323 116.814 103.162 117.114C103.001 117.411 102.774 117.648 102.483 117.824C102.193 117.998 101.852 118.083 101.46 118.08ZM101.46 117.455C101.699 117.455 101.913 117.395 102.102 117.276C102.293 117.156 102.444 116.996 102.554 116.795C102.665 116.595 102.721 116.371 102.721 116.125C102.721 115.884 102.667 115.666 102.559 115.469C102.453 115.27 102.306 115.112 102.119 114.994C101.933 114.877 101.721 114.818 101.483 114.818C101.303 114.818 101.135 114.854 100.98 114.926C100.824 114.996 100.688 115.093 100.571 115.216C100.455 115.339 100.364 115.48 100.298 115.639C100.232 115.796 100.199 115.962 100.199 116.136C100.199 116.367 100.252 116.583 100.36 116.784C100.47 116.985 100.62 117.147 100.809 117.27C101.001 117.393 101.217 117.455 101.46 117.455Z" fill="black"/>
<path d="M117.011 51.1101C116.483 51.1101 116.029 50.9905 115.648 50.7514C115.269 50.5099 114.978 50.1773 114.774 49.7536C114.571 49.3298 114.469 48.8445 114.469 48.2976C114.469 47.7436 114.573 47.2547 114.781 46.831C114.99 46.4048 115.283 46.0722 115.662 45.8331C116.041 45.594 116.487 45.4744 117.001 45.4744C117.415 45.4744 117.784 45.5514 118.109 45.7053C118.433 45.8568 118.695 46.0698 118.893 46.3445C119.095 46.6191 119.214 46.9399 119.252 47.3068H118.219C118.162 47.0511 118.032 46.831 117.828 46.6463C117.627 46.4616 117.357 46.3693 117.018 46.3693C116.723 46.3693 116.463 46.4474 116.241 46.6037C116.021 46.7576 115.849 46.9777 115.726 47.2642C115.603 47.5483 115.541 47.8845 115.541 48.2727C115.541 48.6705 115.602 49.0137 115.722 49.3026C115.843 49.5914 116.013 49.8151 116.234 49.9737C116.456 50.1323 116.718 50.2116 117.018 50.2116C117.22 50.2116 117.402 50.175 117.565 50.1016C117.731 50.0258 117.87 49.9181 117.981 49.7784C118.094 49.6387 118.174 49.4706 118.219 49.2741H119.252C119.214 49.6269 119.099 49.9418 118.908 50.2188C118.716 50.4957 118.459 50.7135 118.137 50.8722C117.817 51.0308 117.442 51.1101 117.011 51.1101Z" fill="black"/>
<path d="M115.538 67.0795C115.299 67.0758 115.061 67.0303 114.822 66.9432C114.583 66.8561 114.366 66.7093 114.169 66.5028C113.972 66.2945 113.814 66.0133 113.694 65.6591C113.575 65.303 113.515 64.8561 113.515 64.3182C113.515 63.803 113.564 63.3466 113.66 62.9489C113.757 62.5492 113.897 62.2131 114.081 61.9403C114.264 61.6657 114.486 61.4574 114.745 61.3153C115.007 61.1733 115.301 61.1023 115.629 61.1023C115.955 61.1023 116.244 61.1676 116.498 61.2983C116.754 61.4271 116.962 61.607 117.123 61.8381C117.284 62.0691 117.388 62.3352 117.436 62.6364H116.743C116.678 62.375 116.553 62.1581 116.368 61.9858C116.182 61.8134 115.936 61.7273 115.629 61.7273C115.178 61.7273 114.823 61.9233 114.564 62.3153C114.306 62.7074 114.176 63.2576 114.174 63.9659H114.22C114.326 63.8049 114.452 63.6676 114.598 63.554C114.745 63.4384 114.908 63.3494 115.086 63.2869C115.264 63.2244 115.453 63.1932 115.652 63.1932C115.985 63.1932 116.29 63.2765 116.566 63.4432C116.843 63.608 117.065 63.8362 117.231 64.1278C117.398 64.4176 117.481 64.75 117.481 65.125C117.481 65.4848 117.401 65.8144 117.24 66.1136C117.079 66.411 116.852 66.6477 116.561 66.8239C116.271 66.9981 115.93 67.0833 115.538 67.0795ZM115.538 66.4545C115.777 66.4545 115.991 66.3949 116.18 66.2756C116.371 66.1562 116.522 65.9962 116.632 65.7955C116.743 65.5947 116.799 65.3712 116.799 65.125C116.799 64.8845 116.745 64.6657 116.637 64.4688C116.531 64.2699 116.385 64.1117 116.197 63.9943C116.011 63.8769 115.799 63.8182 115.561 63.8182C115.381 63.8182 115.213 63.8542 115.058 63.9261C114.903 63.9962 114.766 64.0928 114.649 64.2159C114.533 64.339 114.442 64.4801 114.376 64.6392C114.31 64.7964 114.277 64.9621 114.277 65.1364C114.277 65.3674 114.331 65.5833 114.439 65.7841C114.548 65.9848 114.698 66.1468 114.887 66.2699C115.079 66.393 115.296 66.4545 115.538 66.4545Z" fill="black"/>
<path d="M113.741 78.1818V84H113.037V78.9205H113.003L111.582 79.8636V79.1477L113.037 78.1818H113.741ZM117.381 84.0795C117.006 84.0795 116.671 84.0152 116.378 83.8864C116.086 83.7576 115.854 83.5786 115.682 83.3494C115.511 83.1184 115.419 82.8504 115.403 82.5455H116.119C116.134 82.733 116.199 82.8949 116.312 83.0312C116.426 83.1657 116.575 83.2699 116.759 83.3438C116.942 83.4176 117.146 83.4545 117.369 83.4545C117.619 83.4545 117.841 83.411 118.034 83.3239C118.227 83.2367 118.379 83.1155 118.489 82.9602C118.598 82.8049 118.653 82.625 118.653 82.4205C118.653 82.2064 118.6 82.018 118.494 81.8551C118.388 81.6903 118.233 81.5616 118.028 81.4688C117.824 81.3759 117.574 81.3295 117.278 81.3295H116.812V80.7045H117.278C117.509 80.7045 117.712 80.6629 117.886 80.5795C118.063 80.4962 118.2 80.3788 118.298 80.2273C118.399 80.0758 118.449 79.8977 118.449 79.6932C118.449 79.4962 118.405 79.3248 118.318 79.179C118.231 79.0331 118.108 78.9195 117.949 78.8381C117.792 78.7566 117.606 78.7159 117.392 78.7159C117.191 78.7159 117.002 78.7528 116.824 78.8267C116.648 78.8987 116.504 79.0038 116.392 79.142C116.28 79.2784 116.22 79.4432 116.21 79.6364H115.528C115.54 79.3314 115.632 79.0644 115.804 78.8352C115.976 78.6042 116.202 78.4242 116.48 78.2955C116.76 78.1667 117.068 78.1023 117.403 78.1023C117.763 78.1023 118.072 78.1752 118.33 78.321C118.587 78.465 118.785 78.6553 118.923 78.892C119.062 79.1288 119.131 79.3845 119.131 79.6591C119.131 79.9867 119.045 80.2661 118.872 80.4972C118.702 80.7282 118.47 80.8883 118.176 80.9773V81.0227C118.544 81.0833 118.83 81.2396 119.037 81.4915C119.243 81.7415 119.347 82.0511 119.347 82.4205C119.347 82.7367 119.26 83.0208 119.088 83.2727C118.918 83.5227 118.685 83.7197 118.389 83.8636C118.094 84.0076 117.758 84.0795 117.381 84.0795Z" fill="black"/>
<path d="M110.68 101V100.489L112.601 98.3864C112.826 98.1402 113.012 97.9261 113.158 97.7443C113.304 97.5606 113.411 97.3883 113.482 97.2273C113.554 97.0644 113.589 96.8939 113.589 96.7159C113.589 96.5114 113.54 96.3343 113.442 96.1847C113.345 96.035 113.213 95.9195 113.044 95.8381C112.875 95.7566 112.686 95.7159 112.476 95.7159C112.252 95.7159 112.057 95.7623 111.891 95.8551C111.726 95.946 111.598 96.0739 111.507 96.2386C111.418 96.4034 111.374 96.5966 111.374 96.8182H110.703C110.703 96.4773 110.782 96.178 110.939 95.9205C111.096 95.6629 111.31 95.4621 111.581 95.3182C111.854 95.1742 112.16 95.1023 112.499 95.1023C112.839 95.1023 113.142 95.1742 113.405 95.3182C113.668 95.4621 113.875 95.6562 114.024 95.9006C114.174 96.1449 114.249 96.4167 114.249 96.7159C114.249 96.9299 114.21 97.1392 114.132 97.3438C114.056 97.5464 113.924 97.7727 113.734 98.0227C113.547 98.2708 113.286 98.5739 112.953 98.9318L111.646 100.33V100.375H114.351V101H110.68ZM117.422 101.08C116.994 101.08 116.629 100.963 116.328 100.73C116.027 100.495 115.797 100.155 115.638 99.7102C115.479 99.2633 115.399 98.7235 115.399 98.0909C115.399 97.4621 115.479 96.9252 115.638 96.4801C115.799 96.0331 116.03 95.6922 116.331 95.4574C116.634 95.2206 116.998 95.1023 117.422 95.1023C117.846 95.1023 118.209 95.2206 118.51 95.4574C118.813 95.6922 119.044 96.0331 119.203 96.4801C119.364 96.9252 119.445 97.4621 119.445 98.0909C119.445 98.7235 119.365 99.2633 119.206 99.7102C119.047 100.155 118.817 100.495 118.516 100.73C118.214 100.963 117.85 101.08 117.422 101.08ZM117.422 100.455C117.846 100.455 118.176 100.25 118.411 99.8409C118.645 99.4318 118.763 98.8485 118.763 98.0909C118.763 97.5871 118.709 97.1581 118.601 96.804C118.495 96.4498 118.341 96.1799 118.141 95.9943C117.942 95.8087 117.702 95.7159 117.422 95.7159C117.001 95.7159 116.673 95.9233 116.436 96.3381C116.199 96.7509 116.081 97.3352 116.081 98.0909C116.081 98.5947 116.134 99.0227 116.24 99.375C116.346 99.7273 116.499 99.9953 116.697 100.179C116.898 100.363 117.14 100.455 117.422 100.455Z" fill="black"/>
<path d="M110.895 118V117.489L112.816 115.386C113.041 115.14 113.227 114.926 113.373 114.744C113.518 114.561 113.626 114.388 113.696 114.227C113.768 114.064 113.804 113.894 113.804 113.716C113.804 113.511 113.755 113.334 113.657 113.185C113.56 113.035 113.427 112.92 113.259 112.838C113.09 112.757 112.901 112.716 112.691 112.716C112.467 112.716 112.272 112.762 112.105 112.855C111.941 112.946 111.813 113.074 111.722 113.239C111.633 113.403 111.588 113.597 111.588 113.818H110.918C110.918 113.477 110.997 113.178 111.154 112.92C111.311 112.663 111.525 112.462 111.796 112.318C112.069 112.174 112.374 112.102 112.713 112.102C113.054 112.102 113.356 112.174 113.62 112.318C113.883 112.462 114.089 112.656 114.239 112.901C114.389 113.145 114.463 113.417 114.463 113.716C114.463 113.93 114.425 114.139 114.347 114.344C114.271 114.546 114.139 114.773 113.949 115.023C113.762 115.271 113.501 115.574 113.168 115.932L111.861 117.33V117.375H114.566V118H110.895ZM115.921 118L118.523 112.852V112.807H115.523V112.182H119.25V112.841L116.659 118H115.921Z" fill="black"/>
<path d="M131.714 51V45.5455H133.976C134.591 45.5455 135.079 45.6768 135.439 45.9396C135.799 46.2 135.979 46.554 135.979 47.0014C135.979 47.321 135.877 47.5743 135.673 47.7614C135.47 47.9484 135.2 48.0739 134.864 48.1378C135.107 48.1662 135.331 48.2396 135.535 48.358C135.738 48.474 135.902 48.6302 136.025 48.8267C136.15 49.0232 136.213 49.2576 136.213 49.5298C136.213 49.8187 136.138 50.0743 135.989 50.2969C135.84 50.517 135.624 50.6899 135.339 50.8153C135.058 50.9384 134.718 51 134.32 51H131.714ZM132.712 50.1122H134.32C134.583 50.1122 134.789 50.0495 134.938 49.924C135.087 49.7985 135.162 49.6281 135.162 49.4126C135.162 49.1593 135.087 48.9605 134.938 48.8161C134.789 48.6693 134.583 48.5959 134.32 48.5959H132.712V50.1122ZM132.712 47.8182H133.987C134.185 47.8182 134.356 47.7898 134.498 47.733C134.642 47.6761 134.752 47.5956 134.828 47.4915C134.906 47.3849 134.945 47.2595 134.945 47.1151C134.945 46.9044 134.859 46.7398 134.686 46.6214C134.513 46.5031 134.277 46.4439 133.976 46.4439H132.712V47.8182Z" fill="#FF0000"/>
<path d="M130.999 67L133.601 61.8523V61.8068H130.601V61.1818H134.328V61.8409L131.738 67H130.999Z" fill="#FF0000"/>
<path d="M130.722 78.1818V84H130.017V78.9205H129.983L128.563 79.8636V79.1477L130.017 78.1818H130.722ZM132.259 82.8068V82.2273L134.816 78.1818H135.236V79.0795H134.952L133.02 82.1364V82.1818H136.463V82.8068H132.259ZM134.998 84V82.6307V82.3608V78.1818H135.668V84H134.998Z" fill="#FF0000"/>
<path d="M128.821 101V100.489L130.741 98.3864C130.967 98.1402 131.152 97.9261 131.298 97.7443C131.444 97.5606 131.552 97.3883 131.622 97.2273C131.694 97.0644 131.73 96.8939 131.73 96.7159C131.73 96.5114 131.681 96.3343 131.582 96.1847C131.486 96.035 131.353 95.9195 131.185 95.8381C131.016 95.7566 130.827 95.7159 130.616 95.7159C130.393 95.7159 130.198 95.7623 130.031 95.8551C129.866 95.946 129.739 96.0739 129.648 96.2386C129.559 96.4034 129.514 96.5966 129.514 96.8182H128.844C128.844 96.4773 128.922 96.178 129.08 95.9205C129.237 95.6629 129.451 95.4621 129.722 95.3182C129.994 95.1742 130.3 95.1023 130.639 95.1023C130.98 95.1023 131.282 95.1742 131.545 95.3182C131.809 95.4621 132.015 95.6562 132.165 95.9006C132.314 96.1449 132.389 96.4167 132.389 96.7159C132.389 96.9299 132.35 97.1392 132.273 97.3438C132.197 97.5464 132.064 97.7727 131.875 98.0227C131.688 98.2708 131.427 98.5739 131.094 98.9318L129.787 100.33V100.375H132.491V101H128.821ZM135.71 95.1818V101H135.006V95.9205H134.972L133.551 96.8636V96.1477L135.006 95.1818H135.71Z" fill="#FF0000"/>
<path d="M127.716 118V117.489L129.636 115.386C129.861 115.14 130.047 114.926 130.193 114.744C130.339 114.561 130.447 114.388 130.517 114.227C130.589 114.064 130.625 113.894 130.625 113.716C130.625 113.511 130.575 113.334 130.477 113.185C130.38 113.035 130.248 112.92 130.079 112.838C129.911 112.757 129.721 112.716 129.511 112.716C129.288 112.716 129.092 112.762 128.926 112.855C128.761 112.946 128.633 113.074 128.542 113.239C128.453 113.403 128.409 113.597 128.409 113.818H127.738C127.738 113.477 127.817 113.178 127.974 112.92C128.131 112.663 128.345 112.462 128.616 112.318C128.889 112.174 129.195 112.102 129.534 112.102C129.875 112.102 130.177 112.174 130.44 112.318C130.703 112.462 130.91 112.656 131.059 112.901C131.209 113.145 131.284 113.417 131.284 113.716C131.284 113.93 131.245 114.139 131.167 114.344C131.092 114.546 130.959 114.773 130.77 115.023C130.582 115.271 130.322 115.574 129.988 115.932L128.681 117.33V117.375H131.386V118H127.716ZM134.423 118.08C134.033 118.08 133.688 118.01 133.389 117.872C133.092 117.732 132.859 117.54 132.693 117.295C132.526 117.049 132.444 116.769 132.446 116.455C132.444 116.208 132.492 115.981 132.591 115.773C132.689 115.562 132.824 115.387 132.994 115.247C133.166 115.105 133.359 115.015 133.571 114.977V114.943C133.292 114.871 133.071 114.715 132.906 114.474C132.741 114.232 132.66 113.956 132.662 113.648C132.66 113.352 132.734 113.088 132.886 112.855C133.038 112.622 133.246 112.438 133.511 112.304C133.778 112.17 134.082 112.102 134.423 112.102C134.76 112.102 135.061 112.17 135.326 112.304C135.592 112.438 135.8 112.622 135.951 112.855C136.105 113.088 136.182 113.352 136.184 113.648C136.182 113.956 136.098 114.232 135.931 114.474C135.767 114.715 135.548 114.871 135.275 114.943V114.977C135.485 115.015 135.675 115.105 135.843 115.247C136.012 115.387 136.146 115.562 136.247 115.773C136.347 115.981 136.398 116.208 136.4 116.455C136.398 116.769 136.313 117.049 136.145 117.295C135.978 117.54 135.746 117.732 135.449 117.872C135.153 118.01 134.811 118.08 134.423 118.08ZM134.423 117.455C134.686 117.455 134.913 117.412 135.105 117.327C135.296 117.241 135.444 117.121 135.548 116.966C135.652 116.811 135.705 116.629 135.707 116.42C135.705 116.201 135.648 116.007 135.537 115.838C135.425 115.67 135.272 115.537 135.079 115.44C134.888 115.344 134.669 115.295 134.423 115.295C134.175 115.295 133.953 115.344 133.758 115.44C133.565 115.537 133.413 115.67 133.301 115.838C133.191 116.007 133.137 116.201 133.139 116.42C133.137 116.629 133.187 116.811 133.289 116.966C133.394 117.121 133.542 117.241 133.735 117.327C133.929 117.412 134.158 117.455 134.423 117.455ZM134.423 114.693C134.631 114.693 134.816 114.652 134.977 114.568C135.14 114.485 135.268 114.368 135.36 114.219C135.453 114.069 135.501 113.894 135.502 113.693C135.501 113.496 135.454 113.325 135.363 113.179C135.272 113.031 135.146 112.918 134.985 112.838C134.824 112.757 134.637 112.716 134.423 112.716C134.205 112.716 134.015 112.757 133.852 112.838C133.689 112.918 133.563 113.031 133.474 113.179C133.385 113.325 133.342 113.496 133.343 113.693C133.342 113.894 133.386 114.069 133.477 114.219C133.57 114.368 133.698 114.485 133.86 114.568C134.023 114.652 134.211 114.693 134.423 114.693Z" fill="#FF0000"/>
</svg>
