<svg width="18" height="18" viewBox="0 0 18 18" fill="none" xmlns="http://www.w3.org/2000/svg">
<g clip-path="url(#clip0_406_28)">
<path d="M6.86719 17.2363C7.28711 17.2363 7.61914 17.0508 7.85352 16.6895L17.082 2.1582C17.2578 1.875 17.3262 1.66016 17.3262 1.43555C17.3262 0.898438 16.9746 0.546875 16.4375 0.546875C16.0469 0.546875 15.832 0.673828 15.5977 1.04492L6.82812 15.0195L2.27734 9.0625C2.0332 8.7207 1.78906 8.58398 1.4375 8.58398C0.880859 8.58398 0.5 8.96484 0.5 9.50195C0.5 9.72656 0.597656 9.98047 0.783203 10.2148L5.85156 16.6699C6.14453 17.0508 6.44727 17.2363 6.86719 17.2363Z" fill="black"/>
</g>
<defs>
<clipPath id="clip0_406_28">
<rect width="17.1875" height="17.2363" fill="white" transform="translate(0.5)"/>
</clipPath>
</defs>
</svg>
