<svg width="14" height="14" viewBox="0 0 14 14" fill="none" xmlns="http://www.w3.org/2000/svg">
<g clip-path="url(#clip0_406_37)">
<path d="M0.752699 12.7625C1.08473 13.1043 1.6609 13.0945 1.99293 12.7625L6.99293 7.7527L12.0027 12.7625C12.3347 13.0945 12.9011 13.1043 13.2332 12.7625C13.5847 12.4207 13.575 11.8543 13.2332 11.5222L8.23317 6.51246L13.2332 1.51246C13.575 1.18043 13.5847 0.604261 13.2332 0.27223C12.9011 -0.0695668 12.3347 -0.0598012 12.0027 0.27223L6.99293 5.282L1.99293 0.27223C1.6609 -0.0598012 1.08473 -0.0695668 0.752699 0.27223C0.410902 0.604261 0.420668 1.18043 0.752699 1.51246L5.76246 6.51246L0.752699 11.5222C0.420668 11.8543 0.410902 12.4207 0.752699 12.7625Z" fill="black" fill-opacity="0.85"/>
</g>
<defs>
<clipPath id="clip0_406_37">
<rect width="13.3472" height="13.0152" fill="white" transform="translate(0.5)"/>
</clipPath>
</defs>
</svg>
