<svg width="24" height="24" viewBox="0 0 24 24" fill="none" xmlns="http://www.w3.org/2000/svg">
<path d="M0.0639829 10.558C0.102373 10.1677 0.166356 9.77745 0.243135 9.39355C0.159957 9.77745 0.102373 10.1677 0.0639829 10.558ZM0 11.7609C0 11.8441 0 11.9209 0.00639829 12.0041V11.7609C0.00639829 11.3578 0.0255932 10.9547 0.0639829 10.558C0.0191949 10.9547 0 11.3578 0 11.7609Z" fill="black"/>
<path d="M22.8037 7.71634C22.6693 7.35804 22.5222 7.00613 22.3622 6.66702C22.1063 6.14876 21.8247 5.65609 21.5112 5.18262C21.2937 4.8755 21.0697 4.57478 20.833 4.28686C20.7114 4.1333 20.5835 3.99254 20.4619 3.85177C20.3275 3.71741 20.1996 3.58304 20.0716 3.44868C19.8029 3.18635 19.5278 2.93042 19.2398 2.68728H19.2334C18.9455 2.45055 18.6448 2.22661 18.3377 2.00906C17.8642 1.69555 17.3715 1.41402 16.8533 1.15809C16.5142 0.998134 16.1623 0.850973 15.8039 0.716609C15.0809 0.454279 14.3259 0.255932 13.5453 0.134364C13.1615 0.0767795 12.7648 0.0383898 12.3681 0.0127966C12.1697 0.00639829 11.965 0 11.7602 0C11.5555 0 11.3507 0.00639829 11.1524 0.0127966C10.7557 0.0383898 10.359 0.0767795 9.9751 0.134364C9.19451 0.255932 8.43951 0.454279 7.7165 0.716609C7.3582 0.850973 7.00629 0.998134 6.66718 1.15809C6.15532 1.40762 5.66265 1.69555 5.18918 2.00906C4.87566 2.22021 4.57494 2.45055 4.28702 2.68728H4.28062C3.99269 2.93042 3.71117 3.18635 3.44884 3.44868C2.11799 4.77953 1.10066 6.43029 0.531217 8.2666C0.422446 8.6313 0.320073 9.0088 0.243293 9.3927C0.166514 9.77659 0.102531 10.1669 0.0641412 10.5572C0.0257514 10.9539 0.00655651 11.357 0.00655651 11.7601V12.0032C0.000158216 12.08 0.00655651 12.1632 0.0129548 12.2463C0.0257514 12.5535 0.0513446 12.8606 0.083336 13.1613C0.102531 13.334 0.128124 13.5068 0.160116 13.6732C0.185709 13.8267 0.2177 13.9803 0.243293 14.1338C0.33287 14.5881 0.460835 15.0424 0.607996 15.4839C0.633589 15.5607 0.659183 15.6438 0.691174 15.7206C0.723166 15.8166 0.761555 15.919 0.799945 16.0149C0.825538 16.0917 0.85753 16.1685 0.895919 16.2517C0.934309 16.354 0.979097 16.45 1.01749 16.546C1.08787 16.6995 1.15825 16.8531 1.23503 17.0003C1.29261 17.1218 1.3566 17.237 1.42058 17.3522C1.48456 17.4737 1.54855 17.5889 1.61893 17.7041C1.68291 17.8192 1.75329 17.9344 1.83007 18.0496L0.153717 24L6.45604 22.2469H6.46244C6.66078 22.3492 6.85913 22.4452 7.06388 22.5284C7.21743 22.6052 7.37739 22.6692 7.54375 22.7267C7.67171 22.7843 7.80608 22.8291 7.94044 22.8739C8.06841 22.9187 8.20277 22.9635 8.33714 23.0019C8.52269 23.0595 8.70184 23.1106 8.88739 23.1554C9.11773 23.2194 9.35446 23.2706 9.5848 23.309C9.78955 23.3474 10.0007 23.3858 10.2054 23.4114C10.2566 23.4178 10.3078 23.4242 10.3526 23.4306C10.8197 23.4881 11.2867 23.5137 11.7602 23.5137C13.1806 23.5137 14.5435 23.2578 15.8039 22.7971C16.1623 22.6628 16.5142 22.5156 16.8533 22.3556C17.3715 22.1061 17.8642 21.8182 18.3377 21.5047C18.6448 21.2871 18.9455 21.0632 19.2334 20.8264H19.2398C19.387 20.7049 19.5278 20.5833 19.6685 20.4553C19.8093 20.3274 19.9436 20.1994 20.078 20.0651C20.3403 19.7963 20.5899 19.5212 20.833 19.2333C21.0697 18.9453 21.2937 18.6446 21.5112 18.3311C21.8247 17.864 22.1063 17.365 22.3622 16.8531C22.5222 16.5076 22.6757 16.1557 22.8037 15.7974C23.2708 14.5369 23.5203 13.1805 23.5203 11.7601C23.5203 10.3396 23.2644 8.97681 22.8037 7.71634ZM3.81354 17.6401C3.57041 17.3138 3.34647 16.9683 3.15452 16.61V16.6228C3.12253 16.5716 3.09053 16.5204 3.07134 16.4692C2.91778 16.1877 2.77702 15.8998 2.64905 15.6054C2.58507 15.4583 2.52748 15.3111 2.4763 15.1576C2.41232 15.004 2.36113 14.8504 2.32274 14.6969C2.26515 14.5433 2.22037 14.3898 2.18837 14.2298C2.14359 14.0571 2.1052 13.8907 2.06681 13.7243C2.03482 13.5708 2.00922 13.4172 1.99003 13.2637C1.95804 13.0973 1.93884 12.931 1.92604 12.7646C1.88766 12.4319 1.86846 12.0992 1.86846 11.7601C1.86846 11.3826 1.88766 11.0179 1.93244 10.6532C1.97083 10.2885 2.03482 9.93655 2.1116 9.58464C2.17558 9.30312 2.24596 9.02799 2.33554 8.75926C2.38032 8.6249 2.42511 8.49054 2.4763 8.35617C2.58507 8.05545 2.71303 7.75473 2.8474 7.46681C2.98816 7.17889 3.13532 6.90376 3.30168 6.63503C3.38486 6.49427 3.47443 6.3599 3.56401 6.22554C3.92231 5.70088 4.32541 5.20821 4.77329 4.76673C6.55841 2.97521 9.03455 1.8683 11.7602 1.8683C14.4859 1.8683 16.962 2.97521 18.7472 4.76673C19.195 5.20821 19.5981 5.70088 19.9564 6.22554C20.046 6.3599 20.1356 6.49427 20.2188 6.63503C20.3851 6.90376 20.5323 7.17889 20.673 7.46681C20.8074 7.75473 20.9354 8.05545 21.0441 8.35617C21.0953 8.49054 21.1401 8.6249 21.1849 8.75926C21.2745 9.02799 21.3449 9.30312 21.4089 9.58464C21.4856 9.93655 21.5496 10.2885 21.588 10.6532C21.6328 11.0179 21.652 11.3826 21.652 11.7601C21.652 12.3999 21.588 13.0205 21.4728 13.6284C21.4344 13.8331 21.3897 14.0315 21.3385 14.2298C21.2169 14.7033 21.0633 15.164 20.8714 15.6054C20.6858 16.0469 20.4683 16.4756 20.2188 16.8787C20.1356 17.0131 20.046 17.1538 19.9564 17.2882C19.5981 17.8129 19.195 18.3055 18.7472 18.747C16.962 20.5385 14.4859 21.6454 11.7602 21.6454C11.4211 21.6454 11.082 21.6262 10.7493 21.5942C10.5829 21.575 10.4166 21.5559 10.2566 21.5303C10.0391 21.4983 9.82154 21.4599 9.6104 21.4087C9.50163 21.3895 9.39925 21.3639 9.29048 21.3319C9.13692 21.2935 8.97697 21.2487 8.82341 21.1975C8.66985 21.1528 8.51629 21.1016 8.36273 21.044L8.01722 20.9096C7.59493 20.7369 7.19184 20.5385 6.80794 20.3082H6.79515L5.64345 20.6857L4.74129 20.9672L4.54295 21.0312L2.61706 21.6454" fill="black"/>
<path d="M17.5294 15.3878C17.491 15.6693 17.4142 15.9445 17.3054 16.2132C16.8575 16.789 16.2241 17.2113 15.5139 17.4033C14.7141 17.5632 13.8887 17.4865 13.1273 17.1793C11.8285 16.7699 10.6128 16.1236 9.54428 15.2791C8.32221 14.2041 7.2409 12.9693 6.33234 11.6192C6.33234 11.6192 5.43658 10.1284 5.62853 8.66961C5.78848 7.74826 6.31314 6.92928 7.08094 6.39182C7.49043 6.33424 7.90632 6.33424 8.31581 6.39182C8.57174 6.50699 9.62106 9.15588 9.62106 9.34144C9.53149 9.67415 9.36513 9.98126 9.13479 10.2372C8.83407 10.6467 8.61013 10.909 8.61013 10.909C8.96204 11.7728 9.51229 12.5406 10.2161 13.1484C11.451 14.2681 12.7562 14.7928 13.0505 14.7928C13.3449 14.7928 13.4664 14.6072 13.7608 14.1977C14.0615 13.7819 14.2854 13.302 14.5477 13.2252C14.8101 13.1484 17.4974 14.3833 17.5294 14.6456C17.5741 14.8888 17.5741 15.1447 17.5294 15.3878Z" fill="black"/>
</svg>
